<ttFont>
    <TTGlyph name="A" xMin="30" yMin="0" xMax="779" yMax="768">
      <contour>
        <pt x="404" y="768" on="1"/>
        <pt x="779" y="0" on="1"/>
        <pt x="744" y="0" on="1"/>
        <pt x="602" y="286" on="1"/>
        <pt x="201" y="286" on="1"/>
        <pt x="61" y="0" on="1"/>
        <pt x="30" y="0" on="1"/>
      </contour>
      <contour>
        <pt x="401" y="699" on="1"/>
        <pt x="214" y="315" on="1"/>
        <pt x="590" y="315" on="1"/>
      </contour>
    </TTGlyph>
    <TTGlyph name="AE" xMin="25" yMin="0" xMax="666" yMax="750">
      <contour>
        <pt x="666" y="750" on="1"/>
        <pt x="666" y="721" on="1"/>
        <pt x="430" y="721" on="1"/>
        <pt x="430" y="316" on="1"/>
        <pt x="627" y="316" on="1"/>
        <pt x="627" y="287" on="1"/>
        <pt x="430" y="287" on="1"/>
        <pt x="430" y="29" on="1"/>
        <pt x="666" y="29" on="1"/>
        <pt x="666" y="0" on="1"/>
        <pt x="397" y="0" on="1"/>
        <pt x="397" y="286" on="1"/>
        <pt x="196" y="286" on="1"/>
        <pt x="56" y="0" on="1"/>
        <pt x="25" y="0" on="1"/>
        <pt x="397" y="750" on="1"/>
      </contour>
      <contour>
        <pt x="397" y="315" on="1"/>
        <pt x="397" y="692" on="1"/>
        <pt x="209" y="315" on="1"/>
      </contour>
    </TTGlyph>
    <TTGlyph name="AEacute" xMin="25" yMin="0" xMax="666" yMax="944">
      <contour>
        <pt x="666" y="750" on="1"/>
        <pt x="666" y="721" on="1"/>
        <pt x="430" y="721" on="1"/>
        <pt x="430" y="316" on="1"/>
        <pt x="627" y="316" on="1"/>
        <pt x="627" y="287" on="1"/>
        <pt x="430" y="287" on="1"/>
        <pt x="430" y="29" on="1"/>
        <pt x="666" y="29" on="1"/>
        <pt x="666" y="0" on="1"/>
        <pt x="397" y="0" on="1"/>
        <pt x="397" y="286" on="1"/>
        <pt x="196" y="286" on="1"/>
        <pt x="56" y="0" on="1"/>
        <pt x="25" y="0" on="1"/>
        <pt x="397" y="750" on="1"/>
      </contour>
      <contour>
        <pt x="397" y="315" on="1"/>
        <pt x="397" y="692" on="1"/>
        <pt x="209" y="315" on="1"/>
      </contour>
      <contour>
        <pt x="598" y="944" on="1"/>
        <pt x="639" y="944" on="1"/>
        <pt x="500" y="829" on="1"/>
        <pt x="458" y="829" on="1"/>
      </contour>
    </TTGlyph>
    <TTGlyph name="Aacute" xMin="30" yMin="0" xMax="779" yMax="944">
      <contour>
        <pt x="404" y="768" on="1"/>
        <pt x="779" y="0" on="1"/>
        <pt x="744" y="0" on="1"/>
        <pt x="602" y="286" on="1"/>
        <pt x="201" y="286" on="1"/>
        <pt x="61" y="0" on="1"/>
        <pt x="30" y="0" on="1"/>
      </contour>
      <contour>
        <pt x="401" y="699" on="1"/>
        <pt x="214" y="315" on="1"/>
        <pt x="590" y="315" on="1"/>
      </contour>
      <contour>
        <pt x="454" y="944" on="1"/>
        <pt x="495" y="944" on="1"/>
        <pt x="356" y="829" on="1"/>
        <pt x="314" y="829" on="1"/>
      </contour>
    </TTGlyph>
    <TTGlyph name="Abreve" xMin="20" yMin="0" xMax="769" yMax="944">
      <contour>
        <pt x="394" y="768" on="1"/>
        <pt x="769" y="0" on="1"/>
        <pt x="734" y="0" on="1"/>
        <pt x="592" y="286" on="1"/>
        <pt x="191" y="286" on="1"/>
        <pt x="51" y="0" on="1"/>
        <pt x="20" y="0" on="1"/>
      </contour>
      <contour>
        <pt x="391" y="699" on="1"/>
        <pt x="204" y="315" on="1"/>
        <pt x="580" y="315" on="1"/>
      </contour>
      <contour>
        <pt x="300" y="908" on="0"/>
        <pt x="358" y="853" on="0"/>
        <pt x="429" y="853" on="0"/>
        <pt x="486" y="908" on="0"/>
        <pt x="490" y="944" on="1"/>
        <pt x="519" y="944" on="1"/>
        <pt x="517" y="897" on="0"/>
        <pt x="446" y="828" on="0"/>
        <pt x="398" y="828" on="1"/>
        <pt x="390" y="828" on="1"/>
        <pt x="342" y="828" on="0"/>
        <pt x="272" y="896" on="0"/>
        <pt x="270" y="944" on="1"/>
        <pt x="298" y="944" on="1"/>
      </contour>
    </TTGlyph>
    <TTGlyph name="Acircumflex" xMin="30" yMin="0" xMax="779" yMax="944">
      <contour>
        <pt x="404" y="768" on="1"/>
        <pt x="779" y="0" on="1"/>
        <pt x="744" y="0" on="1"/>
        <pt x="602" y="286" on="1"/>
        <pt x="201" y="286" on="1"/>
        <pt x="61" y="0" on="1"/>
        <pt x="30" y="0" on="1"/>
      </contour>
      <contour>
        <pt x="401" y="699" on="1"/>
        <pt x="214" y="315" on="1"/>
        <pt x="590" y="315" on="1"/>
      </contour>
      <contour>
        <pt x="421" y="944" on="1"/>
        <pt x="553" y="829" on="1"/>
        <pt x="512" y="829" on="1"/>
        <pt x="405" y="920" on="1"/>
        <pt x="299" y="829" on="1"/>
        <pt x="257" y="829" on="1"/>
        <pt x="391" y="944" on="1"/>
      </contour>
    </TTGlyph>
    <TTGlyph name="Adieresis" xMin="30" yMin="0" xMax="779" yMax="912">
      <contour>
        <pt x="404" y="768" on="1"/>
        <pt x="779" y="0" on="1"/>
        <pt x="744" y="0" on="1"/>
        <pt x="602" y="286" on="1"/>
        <pt x="201" y="286" on="1"/>
        <pt x="61" y="0" on="1"/>
        <pt x="30" y="0" on="1"/>
      </contour>
      <contour>
        <pt x="401" y="699" on="1"/>
        <pt x="214" y="315" on="1"/>
        <pt x="590" y="315" on="1"/>
      </contour>
      <contour>
        <pt x="323" y="858" on="0"/>
        <pt x="323" y="912" on="0"/>
        <pt x="381" y="912" on="0"/>
        <pt x="381" y="858" on="0"/>
      </contour>
      <contour>
        <pt x="430" y="858" on="0"/>
        <pt x="430" y="912" on="0"/>
        <pt x="485" y="912" on="0"/>
        <pt x="485" y="858" on="0"/>
      </contour>
    </TTGlyph>
    <TTGlyph name="Agrave" xMin="30" yMin="0" xMax="779" yMax="944">
      <contour>
        <pt x="404" y="768" on="1"/>
        <pt x="779" y="0" on="1"/>
        <pt x="744" y="0" on="1"/>
        <pt x="602" y="286" on="1"/>
        <pt x="201" y="286" on="1"/>
        <pt x="61" y="0" on="1"/>
        <pt x="30" y="0" on="1"/>
      </contour>
      <contour>
        <pt x="401" y="699" on="1"/>
        <pt x="214" y="315" on="1"/>
        <pt x="590" y="315" on="1"/>
      </contour>
      <contour>
        <pt x="314" y="944" on="1"/>
        <pt x="355" y="944" on="1"/>
        <pt x="495" y="829" on="1"/>
        <pt x="453" y="829" on="1"/>
      </contour>
    </TTGlyph>
    <TTGlyph name="Amacron" xMin="20" yMin="0" xMax="769" yMax="768">
      <contour>
        <pt x="394" y="768" on="1"/>
        <pt x="769" y="0" on="1"/>
        <pt x="734" y="0" on="1"/>
        <pt x="592" y="286" on="1"/>
        <pt x="191" y="286" on="1"/>
        <pt x="51" y="0" on="1"/>
        <pt x="20" y="0" on="1"/>
      </contour>
      <contour>
        <pt x="391" y="699" on="1"/>
        <pt x="204" y="315" on="1"/>
        <pt x="580" y="315" on="1"/>
      </contour>
    </TTGlyph>
    <TTGlyph name="Aogonek" xMin="20" yMin="-200" xMax="769" yMax="768">
      <contour>
        <pt x="734" y="-175" on="1"/>
        <pt x="769" y="-175" on="1"/>
        <pt x="769" y="-200" on="1"/>
        <pt x="729" y="-200" on="1"/>
        <pt x="696" y="-200" on="0"/>
        <pt x="654" y="-160" on="0"/>
        <pt x="654" y="-130" on="1"/>
        <pt x="654" y="-123" on="1"/>
        <pt x="734" y="0" on="1"/>
        <pt x="592" y="286" on="1"/>
        <pt x="191" y="286" on="1"/>
        <pt x="51" y="0" on="1"/>
        <pt x="20" y="0" on="1"/>
        <pt x="394" y="768" on="1"/>
        <pt x="769" y="0" on="1"/>
        <pt x="689" y="-125" on="1"/>
        <pt x="689" y="-147" on="0"/>
        <pt x="712" y="-175" on="0"/>
      </contour>
      <contour>
        <pt x="391" y="699" on="1"/>
        <pt x="204" y="315" on="1"/>
        <pt x="580" y="315" on="1"/>
      </contour>
    </TTGlyph>
    <TTGlyph name="Aring" xMin="30" yMin="0" xMax="779" yMax="962">
      <contour>
        <pt x="404" y="768" on="1"/>
        <pt x="779" y="0" on="1"/>
        <pt x="744" y="0" on="1"/>
        <pt x="602" y="286" on="1"/>
        <pt x="201" y="286" on="1"/>
        <pt x="61" y="0" on="1"/>
        <pt x="30" y="0" on="1"/>
      </contour>
      <contour>
        <pt x="401" y="699" on="1"/>
        <pt x="214" y="315" on="1"/>
        <pt x="590" y="315" on="1"/>
      </contour>
      <contour>
        <pt x="406" y="812" on="1"/>
        <pt x="402" y="812" on="1"/>
        <pt x="372" y="812" on="0"/>
        <pt x="329" y="857" on="0"/>
        <pt x="329" y="918" on="0"/>
        <pt x="373" y="962" on="0"/>
        <pt x="436" y="962" on="0"/>
        <pt x="480" y="918" on="0"/>
        <pt x="480" y="857" on="0"/>
        <pt x="436" y="812" on="0"/>
      </contour>
      <contour>
        <pt x="454" y="908" on="0"/>
        <pt x="425" y="938" on="0"/>
        <pt x="384" y="938" on="0"/>
        <pt x="354" y="907" on="0"/>
        <pt x="354" y="867" on="0"/>
        <pt x="384" y="836" on="0"/>
        <pt x="425" y="836" on="0"/>
        <pt x="454" y="866" on="0"/>
      </contour>
    </TTGlyph>
    <TTGlyph name="Atilde" xMin="30" yMin="0" xMax="779" yMax="928">
      <contour>
        <pt x="404" y="768" on="1"/>
        <pt x="779" y="0" on="1"/>
        <pt x="744" y="0" on="1"/>
        <pt x="602" y="286" on="1"/>
        <pt x="201" y="286" on="1"/>
        <pt x="61" y="0" on="1"/>
        <pt x="30" y="0" on="1"/>
      </contour>
      <contour>
        <pt x="401" y="699" on="1"/>
        <pt x="214" y="315" on="1"/>
        <pt x="590" y="315" on="1"/>
      </contour>
      <contour>
        <pt x="485" y="847" on="1"/>
        <pt x="456" y="847" on="0"/>
        <pt x="357" y="902" on="0"/>
        <pt x="297" y="901" on="0"/>
        <pt x="265" y="848" on="1"/>
        <pt x="234" y="848" on="1"/>
        <pt x="273" y="928" on="0"/>
        <pt x="329" y="928" on="1"/>
        <pt x="338" y="928" on="1"/>
        <pt x="368" y="928" on="0"/>
        <pt x="458" y="875" on="0"/>
        <pt x="513" y="875" on="0"/>
        <pt x="544" y="924" on="1"/>
        <pt x="575" y="924" on="1"/>
        <pt x="528" y="847" on="0"/>
      </contour>
    </TTGlyph>
    <TTGlyph name="B" xMin="75" yMin="0" xMax="357" yMax="750">
      <contour>
        <pt x="75" y="750" on="1"/>
        <pt x="107" y="750" on="1"/>
        <pt x="172" y="750" on="0"/>
        <pt x="260" y="669" on="0"/>
        <pt x="260" y="606" on="1"/>
        <pt x="260" y="568" on="0"/>
        <pt x="211" y="489" on="0"/>
        <pt x="178" y="477" on="1"/>
        <pt x="255" y="458" on="0"/>
        <pt x="357" y="332" on="0"/>
        <pt x="357" y="141" on="0"/>
        <pt x="211" y="0" on="0"/>
        <pt x="107" y="0" on="1"/>
        <pt x="75" y="0" on="1"/>
      </contour>
      <contour>
        <pt x="107" y="459" on="1"/>
        <pt x="107" y="28" on="1"/>
        <pt x="115" y="28" on="1"/>
        <pt x="201" y="28" on="0"/>
        <pt x="326" y="156" on="0"/>
        <pt x="326" y="332" on="0"/>
        <pt x="202" y="459" on="0"/>
        <pt x="115" y="459" on="1"/>
      </contour>
      <contour>
        <pt x="107" y="722" on="1"/>
        <pt x="107" y="486" on="1"/>
        <pt x="115" y="486" on="1"/>
        <pt x="160" y="486" on="0"/>
        <pt x="229" y="559" on="0"/>
        <pt x="229" y="654" on="0"/>
        <pt x="161" y="722" on="0"/>
        <pt x="115" y="722" on="1"/>
      </contour>
    </TTGlyph>
    <TTGlyph name="C" xMin="45" yMin="-11" xMax="638" yMax="765">
      <contour>
        <pt x="440" y="-11" on="1"/>
        <pt x="429" y="-11" on="1"/>
        <pt x="326" y="-11" on="0"/>
        <pt x="148" y="97" on="0"/>
        <pt x="45" y="276" on="0"/>
        <pt x="45" y="377" on="1"/>
        <pt x="45" y="536" on="0"/>
        <pt x="275" y="765" on="0"/>
        <pt x="435" y="765" on="1"/>
        <pt x="542" y="765" on="0"/>
        <pt x="638" y="709" on="1"/>
        <pt x="638" y="672" on="1"/>
        <pt x="544" y="736" on="0"/>
        <pt x="435" y="736" on="1"/>
        <pt x="288" y="736" on="0"/>
        <pt x="78" y="525" on="0"/>
        <pt x="78" y="230" on="0"/>
        <pt x="288" y="18" on="0"/>
        <pt x="435" y="18" on="1"/>
        <pt x="544" y="18" on="0"/>
        <pt x="638" y="82" on="1"/>
        <pt x="638" y="45" on="1"/>
        <pt x="547" y="-11" on="0"/>
      </contour>
    </TTGlyph>
    <TTGlyph name="Cacute" xMin="45" yMin="-11" xMax="638" yMax="944">
      <contour>
        <pt x="440" y="-11" on="1"/>
        <pt x="429" y="-11" on="1"/>
        <pt x="326" y="-11" on="0"/>
        <pt x="148" y="97" on="0"/>
        <pt x="45" y="276" on="0"/>
        <pt x="45" y="377" on="1"/>
        <pt x="45" y="536" on="0"/>
        <pt x="275" y="765" on="0"/>
        <pt x="435" y="765" on="1"/>
        <pt x="542" y="765" on="0"/>
        <pt x="638" y="709" on="1"/>
        <pt x="638" y="672" on="1"/>
        <pt x="544" y="736" on="0"/>
        <pt x="435" y="736" on="1"/>
        <pt x="288" y="736" on="0"/>
        <pt x="78" y="525" on="0"/>
        <pt x="78" y="230" on="0"/>
        <pt x="288" y="18" on="0"/>
        <pt x="435" y="18" on="1"/>
        <pt x="544" y="18" on="0"/>
        <pt x="638" y="82" on="1"/>
        <pt x="638" y="45" on="1"/>
        <pt x="547" y="-11" on="0"/>
      </contour>
      <contour>
        <pt x="483" y="944" on="1"/>
        <pt x="524" y="944" on="1"/>
        <pt x="385" y="829" on="1"/>
        <pt x="343" y="829" on="1"/>
      </contour>
    </TTGlyph>
    <TTGlyph name="Ccaron" xMin="45" yMin="-11" xMax="638" yMax="944">
      <contour>
        <pt x="440" y="-11" on="1"/>
        <pt x="429" y="-11" on="1"/>
        <pt x="326" y="-11" on="0"/>
        <pt x="148" y="97" on="0"/>
        <pt x="45" y="276" on="0"/>
        <pt x="45" y="377" on="1"/>
        <pt x="45" y="536" on="0"/>
        <pt x="275" y="765" on="0"/>
        <pt x="435" y="765" on="1"/>
        <pt x="542" y="765" on="0"/>
        <pt x="638" y="709" on="1"/>
        <pt x="638" y="672" on="1"/>
        <pt x="544" y="736" on="0"/>
        <pt x="435" y="736" on="1"/>
        <pt x="288" y="736" on="0"/>
        <pt x="78" y="525" on="0"/>
        <pt x="78" y="230" on="0"/>
        <pt x="288" y="18" on="0"/>
        <pt x="435" y="18" on="1"/>
        <pt x="544" y="18" on="0"/>
        <pt x="638" y="82" on="1"/>
        <pt x="638" y="45" on="1"/>
        <pt x="547" y="-11" on="0"/>
      </contour>
      <contour>
        <pt x="581" y="944" on="1"/>
        <pt x="449" y="829" on="1"/>
        <pt x="419" y="829" on="1"/>
        <pt x="285" y="944" on="1"/>
        <pt x="327" y="944" on="1"/>
        <pt x="433" y="853" on="1"/>
        <pt x="540" y="944" on="1"/>
      </contour>
    </TTGlyph>
    <TTGlyph name="Ccedilla" xMin="55" yMin="-200" xMax="648" yMax="765">
      <contour>
        <pt x="417" y="-75" on="1"/>
        <pt x="417" y="-10" on="1"/>
        <pt x="268" y="-2" on="0"/>
        <pt x="55" y="229" on="0"/>
        <pt x="55" y="536" on="0"/>
        <pt x="285" y="765" on="0"/>
        <pt x="445" y="765" on="1"/>
        <pt x="552" y="765" on="0"/>
        <pt x="648" y="709" on="1"/>
        <pt x="648" y="672" on="1"/>
        <pt x="554" y="736" on="0"/>
        <pt x="445" y="736" on="1"/>
        <pt x="298" y="736" on="0"/>
        <pt x="88" y="525" on="0"/>
        <pt x="88" y="230" on="0"/>
        <pt x="298" y="18" on="0"/>
        <pt x="445" y="18" on="1"/>
        <pt x="554" y="18" on="0"/>
        <pt x="648" y="82" on="1"/>
        <pt x="648" y="45" on="1"/>
        <pt x="557" y="-11" on="0"/>
        <pt x="450" y="-11" on="1"/>
        <pt x="442" y="-11" on="1"/>
        <pt x="442" y="-49" on="1"/>
        <pt x="452" y="-49" on="1"/>
        <pt x="484" y="-49" on="0"/>
        <pt x="529" y="-93" on="0"/>
        <pt x="529" y="-123" on="1"/>
        <pt x="529" y="-127" on="1"/>
        <pt x="529" y="-157" on="0"/>
        <pt x="485" y="-200" on="0"/>
        <pt x="452" y="-200" on="1"/>
        <pt x="417" y="-200" on="1"/>
        <pt x="417" y="-175" on="1"/>
        <pt x="452" y="-175" on="1"/>
        <pt x="475" y="-175" on="0"/>
        <pt x="505" y="-146" on="0"/>
        <pt x="505" y="-104" on="0"/>
        <pt x="475" y="-75" on="0"/>
        <pt x="452" y="-75" on="1"/>
      </contour>
    </TTGlyph>
    <TTGlyph name="Ccircumflex" xMin="45" yMin="-11" xMax="638" yMax="944">
      <contour>
        <pt x="440" y="-11" on="1"/>
        <pt x="429" y="-11" on="1"/>
        <pt x="326" y="-11" on="0"/>
        <pt x="148" y="97" on="0"/>
        <pt x="45" y="276" on="0"/>
        <pt x="45" y="377" on="1"/>
        <pt x="45" y="536" on="0"/>
        <pt x="275" y="765" on="0"/>
        <pt x="435" y="765" on="1"/>
        <pt x="542" y="765" on="0"/>
        <pt x="638" y="709" on="1"/>
        <pt x="638" y="672" on="1"/>
        <pt x="544" y="736" on="0"/>
        <pt x="435" y="736" on="1"/>
        <pt x="288" y="736" on="0"/>
        <pt x="78" y="525" on="0"/>
        <pt x="78" y="230" on="0"/>
        <pt x="288" y="18" on="0"/>
        <pt x="435" y="18" on="1"/>
        <pt x="544" y="18" on="0"/>
        <pt x="638" y="82" on="1"/>
        <pt x="638" y="45" on="1"/>
        <pt x="547" y="-11" on="0"/>
      </contour>
      <contour>
        <pt x="452" y="944" on="1"/>
        <pt x="584" y="829" on="1"/>
        <pt x="543" y="829" on="1"/>
        <pt x="436" y="920" on="1"/>
        <pt x="330" y="829" on="1"/>
        <pt x="288" y="829" on="1"/>
        <pt x="422" y="944" on="1"/>
      </contour>
    </TTGlyph>
    <TTGlyph name="Cdotaccent" xMin="45" yMin="-11" xMax="638" yMax="913">
      <contour>
        <pt x="440" y="-11" on="1"/>
        <pt x="429" y="-11" on="1"/>
        <pt x="326" y="-11" on="0"/>
        <pt x="148" y="97" on="0"/>
        <pt x="45" y="276" on="0"/>
        <pt x="45" y="377" on="1"/>
        <pt x="45" y="536" on="0"/>
        <pt x="275" y="765" on="0"/>
        <pt x="435" y="765" on="1"/>
        <pt x="542" y="765" on="0"/>
        <pt x="638" y="709" on="1"/>
        <pt x="638" y="672" on="1"/>
        <pt x="544" y="736" on="0"/>
        <pt x="435" y="736" on="1"/>
        <pt x="288" y="736" on="0"/>
        <pt x="78" y="525" on="0"/>
        <pt x="78" y="230" on="0"/>
        <pt x="288" y="18" on="0"/>
        <pt x="435" y="18" on="1"/>
        <pt x="544" y="18" on="0"/>
        <pt x="638" y="82" on="1"/>
        <pt x="638" y="45" on="1"/>
        <pt x="547" y="-11" on="0"/>
      </contour>
      <contour>
        <pt x="410" y="859" on="0"/>
        <pt x="410" y="913" on="0"/>
        <pt x="468" y="913" on="0"/>
        <pt x="468" y="859" on="0"/>
      </contour>
    </TTGlyph>
    <TTGlyph name="D" xMin="75" yMin="0" xMax="481" yMax="750">
      <contour>
        <pt x="75" y="750" on="1"/>
        <pt x="107" y="750" on="1"/>
        <pt x="275" y="750" on="0"/>
        <pt x="481" y="529" on="0"/>
        <pt x="481" y="220" on="0"/>
        <pt x="276" y="0" on="0"/>
        <pt x="107" y="0" on="1"/>
        <pt x="75" y="0" on="1"/>
      </contour>
      <contour>
        <pt x="115" y="720" on="1"/>
        <pt x="107" y="720" on="1"/>
        <pt x="107" y="31" on="1"/>
        <pt x="115" y="31" on="1"/>
        <pt x="261" y="31" on="0"/>
        <pt x="448" y="233" on="0"/>
        <pt x="448" y="516" on="0"/>
        <pt x="261" y="720" on="0"/>
      </contour>
    </TTGlyph>
    <TTGlyph name="Dcaron" xMin="57" yMin="0" xMax="481" yMax="944">
      <contour>
        <pt x="75" y="750" on="1"/>
        <pt x="107" y="750" on="1"/>
        <pt x="275" y="750" on="0"/>
        <pt x="481" y="529" on="0"/>
        <pt x="481" y="220" on="0"/>
        <pt x="276" y="0" on="0"/>
        <pt x="107" y="0" on="1"/>
        <pt x="75" y="0" on="1"/>
      </contour>
      <contour>
        <pt x="115" y="720" on="1"/>
        <pt x="107" y="720" on="1"/>
        <pt x="107" y="31" on="1"/>
        <pt x="115" y="31" on="1"/>
        <pt x="261" y="31" on="0"/>
        <pt x="448" y="233" on="0"/>
        <pt x="448" y="516" on="0"/>
        <pt x="261" y="720" on="0"/>
      </contour>
      <contour>
        <pt x="353" y="944" on="1"/>
        <pt x="221" y="829" on="1"/>
        <pt x="191" y="829" on="1"/>
        <pt x="57" y="944" on="1"/>
        <pt x="99" y="944" on="1"/>
        <pt x="205" y="853" on="1"/>
        <pt x="312" y="944" on="1"/>
      </contour>
    </TTGlyph>
    <TTGlyph name="Dcroat" xMin="15" yMin="0" xMax="481" yMax="750">
      <contour>
        <pt x="75" y="750" on="1"/>
        <pt x="107" y="750" on="1"/>
        <pt x="275" y="750" on="0"/>
        <pt x="481" y="529" on="0"/>
        <pt x="481" y="220" on="0"/>
        <pt x="276" y="0" on="0"/>
        <pt x="107" y="0" on="1"/>
        <pt x="75" y="0" on="1"/>
        <pt x="75" y="361" on="1"/>
        <pt x="15" y="361" on="1"/>
        <pt x="15" y="390" on="1"/>
        <pt x="75" y="390" on="1"/>
      </contour>
      <contour>
        <pt x="115" y="720" on="1"/>
        <pt x="107" y="720" on="1"/>
        <pt x="107" y="390" on="1"/>
        <pt x="231" y="390" on="1"/>
        <pt x="231" y="361" on="1"/>
        <pt x="107" y="361" on="1"/>
        <pt x="107" y="31" on="1"/>
        <pt x="115" y="31" on="1"/>
        <pt x="261" y="31" on="0"/>
        <pt x="448" y="233" on="0"/>
        <pt x="448" y="516" on="0"/>
        <pt x="261" y="720" on="0"/>
      </contour>
    </TTGlyph>
    <TTGlyph name="E" xMin="75" yMin="0" xMax="344" yMax="750">
      <contour>
        <pt x="75" y="750" on="1"/>
        <pt x="344" y="750" on="1"/>
        <pt x="344" y="721" on="1"/>
        <pt x="108" y="721" on="1"/>
        <pt x="108" y="313" on="1"/>
        <pt x="305" y="313" on="1"/>
        <pt x="305" y="284" on="1"/>
        <pt x="108" y="284" on="1"/>
        <pt x="108" y="29" on="1"/>
        <pt x="344" y="29" on="1"/>
        <pt x="344" y="0" on="1"/>
        <pt x="75" y="0" on="1"/>
      </contour>
    </TTGlyph>
    <TTGlyph name="Eacute" xMin="85" yMin="0" xMax="354" yMax="944">
      <contour>
        <pt x="85" y="750" on="1"/>
        <pt x="354" y="750" on="1"/>
        <pt x="354" y="721" on="1"/>
        <pt x="118" y="721" on="1"/>
        <pt x="118" y="313" on="1"/>
        <pt x="315" y="313" on="1"/>
        <pt x="315" y="284" on="1"/>
        <pt x="118" y="284" on="1"/>
        <pt x="118" y="29" on="1"/>
        <pt x="354" y="29" on="1"/>
        <pt x="354" y="0" on="1"/>
        <pt x="85" y="0" on="1"/>
      </contour>
      <contour>
        <pt x="270" y="944" on="1"/>
        <pt x="311" y="944" on="1"/>
        <pt x="172" y="829" on="1"/>
        <pt x="130" y="829" on="1"/>
      </contour>
    </TTGlyph>
    <TTGlyph name="Ebreve" xMin="75" yMin="0" xMax="344" yMax="944">
      <contour>
        <pt x="75" y="750" on="1"/>
        <pt x="344" y="750" on="1"/>
        <pt x="344" y="721" on="1"/>
        <pt x="108" y="721" on="1"/>
        <pt x="108" y="313" on="1"/>
        <pt x="305" y="313" on="1"/>
        <pt x="305" y="284" on="1"/>
        <pt x="108" y="284" on="1"/>
        <pt x="108" y="29" on="1"/>
        <pt x="344" y="29" on="1"/>
        <pt x="344" y="0" on="1"/>
        <pt x="75" y="0" on="1"/>
      </contour>
      <contour>
        <pt x="116" y="908" on="0"/>
        <pt x="174" y="853" on="0"/>
        <pt x="245" y="853" on="0"/>
        <pt x="302" y="908" on="0"/>
        <pt x="306" y="944" on="1"/>
        <pt x="335" y="944" on="1"/>
        <pt x="333" y="897" on="0"/>
        <pt x="262" y="828" on="0"/>
        <pt x="214" y="828" on="1"/>
        <pt x="206" y="828" on="1"/>
        <pt x="158" y="828" on="0"/>
        <pt x="88" y="896" on="0"/>
        <pt x="86" y="944" on="1"/>
        <pt x="114" y="944" on="1"/>
      </contour>
    </TTGlyph>
    <TTGlyph name="Ecaron" xMin="63" yMin="0" xMax="359" yMax="944">
      <contour>
        <pt x="75" y="750" on="1"/>
        <pt x="344" y="750" on="1"/>
        <pt x="344" y="721" on="1"/>
        <pt x="108" y="721" on="1"/>
        <pt x="108" y="313" on="1"/>
        <pt x="305" y="313" on="1"/>
        <pt x="305" y="284" on="1"/>
        <pt x="108" y="284" on="1"/>
        <pt x="108" y="29" on="1"/>
        <pt x="344" y="29" on="1"/>
        <pt x="344" y="0" on="1"/>
        <pt x="75" y="0" on="1"/>
      </contour>
      <contour>
        <pt x="359" y="944" on="1"/>
        <pt x="227" y="829" on="1"/>
        <pt x="197" y="829" on="1"/>
        <pt x="63" y="944" on="1"/>
        <pt x="105" y="944" on="1"/>
        <pt x="211" y="853" on="1"/>
        <pt x="318" y="944" on="1"/>
      </contour>
    </TTGlyph>
    <TTGlyph name="Ecircumflex" xMin="74" yMin="0" xMax="370" yMax="944">
      <contour>
        <pt x="85" y="750" on="1"/>
        <pt x="354" y="750" on="1"/>
        <pt x="354" y="721" on="1"/>
        <pt x="118" y="721" on="1"/>
        <pt x="118" y="313" on="1"/>
        <pt x="315" y="313" on="1"/>
        <pt x="315" y="284" on="1"/>
        <pt x="118" y="284" on="1"/>
        <pt x="118" y="29" on="1"/>
        <pt x="354" y="29" on="1"/>
        <pt x="354" y="0" on="1"/>
        <pt x="85" y="0" on="1"/>
      </contour>
      <contour>
        <pt x="238" y="944" on="1"/>
        <pt x="370" y="829" on="1"/>
        <pt x="329" y="829" on="1"/>
        <pt x="222" y="920" on="1"/>
        <pt x="116" y="829" on="1"/>
        <pt x="74" y="829" on="1"/>
        <pt x="208" y="944" on="1"/>
      </contour>
    </TTGlyph>
    <TTGlyph name="Edieresis" xMin="85" yMin="0" xMax="354" yMax="912">
      <contour>
        <pt x="85" y="750" on="1"/>
        <pt x="354" y="750" on="1"/>
        <pt x="354" y="721" on="1"/>
        <pt x="118" y="721" on="1"/>
        <pt x="118" y="313" on="1"/>
        <pt x="315" y="313" on="1"/>
        <pt x="315" y="284" on="1"/>
        <pt x="118" y="284" on="1"/>
        <pt x="118" y="29" on="1"/>
        <pt x="354" y="29" on="1"/>
        <pt x="354" y="0" on="1"/>
        <pt x="85" y="0" on="1"/>
      </contour>
      <contour>
        <pt x="137" y="858" on="0"/>
        <pt x="137" y="912" on="0"/>
        <pt x="195" y="912" on="0"/>
        <pt x="195" y="858" on="0"/>
      </contour>
      <contour>
        <pt x="244" y="858" on="0"/>
        <pt x="244" y="912" on="0"/>
        <pt x="299" y="912" on="0"/>
        <pt x="299" y="858" on="0"/>
      </contour>
    </TTGlyph>
    <TTGlyph name="Edotaccent" xMin="75" yMin="0" xMax="344" yMax="913">
      <contour>
        <pt x="75" y="750" on="1"/>
        <pt x="344" y="750" on="1"/>
        <pt x="344" y="721" on="1"/>
        <pt x="108" y="721" on="1"/>
        <pt x="108" y="313" on="1"/>
        <pt x="305" y="313" on="1"/>
        <pt x="305" y="284" on="1"/>
        <pt x="108" y="284" on="1"/>
        <pt x="108" y="29" on="1"/>
        <pt x="344" y="29" on="1"/>
        <pt x="344" y="0" on="1"/>
        <pt x="75" y="0" on="1"/>
      </contour>
      <contour>
        <pt x="184" y="859" on="0"/>
        <pt x="184" y="913" on="0"/>
        <pt x="242" y="913" on="0"/>
        <pt x="242" y="859" on="0"/>
      </contour>
    </TTGlyph>
    <TTGlyph name="Egrave" xMin="85" yMin="0" xMax="354" yMax="944">
      <contour>
        <pt x="85" y="750" on="1"/>
        <pt x="354" y="750" on="1"/>
        <pt x="354" y="721" on="1"/>
        <pt x="118" y="721" on="1"/>
        <pt x="118" y="313" on="1"/>
        <pt x="315" y="313" on="1"/>
        <pt x="315" y="284" on="1"/>
        <pt x="118" y="284" on="1"/>
        <pt x="118" y="29" on="1"/>
        <pt x="354" y="29" on="1"/>
        <pt x="354" y="0" on="1"/>
        <pt x="85" y="0" on="1"/>
      </contour>
      <contour>
        <pt x="131" y="944" on="1"/>
        <pt x="172" y="944" on="1"/>
        <pt x="312" y="829" on="1"/>
        <pt x="270" y="829" on="1"/>
      </contour>
    </TTGlyph>
    <TTGlyph name="Emacron" xMin="75" yMin="0" xMax="344" yMax="750">
      <contour>
        <pt x="75" y="750" on="1"/>
        <pt x="344" y="750" on="1"/>
        <pt x="344" y="721" on="1"/>
        <pt x="108" y="721" on="1"/>
        <pt x="108" y="313" on="1"/>
        <pt x="305" y="313" on="1"/>
        <pt x="305" y="284" on="1"/>
        <pt x="108" y="284" on="1"/>
        <pt x="108" y="29" on="1"/>
        <pt x="344" y="29" on="1"/>
        <pt x="344" y="0" on="1"/>
        <pt x="75" y="0" on="1"/>
      </contour>
    </TTGlyph>
    <TTGlyph name="Eogonek" xMin="75" yMin="-200" xMax="344" yMax="750">
      <contour>
        <pt x="75" y="750" on="1"/>
        <pt x="344" y="750" on="1"/>
        <pt x="344" y="721" on="1"/>
        <pt x="108" y="721" on="1"/>
        <pt x="108" y="313" on="1"/>
        <pt x="305" y="313" on="1"/>
        <pt x="305" y="284" on="1"/>
        <pt x="108" y="284" on="1"/>
        <pt x="108" y="29" on="1"/>
        <pt x="343" y="29" on="1"/>
        <pt x="343" y="0" on="1"/>
        <pt x="256" y="-125" on="1"/>
        <pt x="256" y="-146" on="0"/>
        <pt x="283" y="-175" on="0"/>
        <pt x="306" y="-175" on="1"/>
        <pt x="344" y="-175" on="1"/>
        <pt x="344" y="-200" on="1"/>
        <pt x="304" y="-200" on="1"/>
        <pt x="271" y="-200" on="0"/>
        <pt x="229" y="-160" on="0"/>
        <pt x="229" y="-130" on="1"/>
        <pt x="229" y="-123" on="1"/>
        <pt x="315" y="0" on="1"/>
        <pt x="75" y="0" on="1"/>
      </contour>
    </TTGlyph>
    <TTGlyph name="Eth" xMin="15" yMin="0" xMax="481" yMax="750">
      <contour>
        <pt x="75" y="750" on="1"/>
        <pt x="107" y="750" on="1"/>
        <pt x="275" y="750" on="0"/>
        <pt x="481" y="529" on="0"/>
        <pt x="481" y="220" on="0"/>
        <pt x="276" y="0" on="0"/>
        <pt x="107" y="0" on="1"/>
        <pt x="75" y="0" on="1"/>
        <pt x="75" y="361" on="1"/>
        <pt x="15" y="361" on="1"/>
        <pt x="15" y="390" on="1"/>
        <pt x="75" y="390" on="1"/>
      </contour>
      <contour>
        <pt x="115" y="720" on="1"/>
        <pt x="107" y="720" on="1"/>
        <pt x="107" y="390" on="1"/>
        <pt x="231" y="390" on="1"/>
        <pt x="231" y="361" on="1"/>
        <pt x="107" y="361" on="1"/>
        <pt x="107" y="31" on="1"/>
        <pt x="115" y="31" on="1"/>
        <pt x="261" y="31" on="0"/>
        <pt x="448" y="233" on="0"/>
        <pt x="448" y="516" on="0"/>
        <pt x="261" y="720" on="0"/>
      </contour>
    </TTGlyph>
    <TTGlyph name="Euro" xMin="75" yMin="-13" xMax="666" yMax="761">
      <contour>
        <pt x="463" y="761" on="1"/>
        <pt x="569" y="761" on="0"/>
        <pt x="666" y="703" on="1"/>
        <pt x="654" y="673" on="1"/>
        <pt x="569" y="732" on="0"/>
        <pt x="345" y="732" on="0"/>
        <pt x="147" y="566" on="0"/>
        <pt x="114" y="450" on="1"/>
        <pt x="558" y="450" on="1"/>
        <pt x="547" y="421" on="1"/>
        <pt x="109" y="421" on="1"/>
        <pt x="106" y="398" on="0"/>
        <pt x="106" y="347" on="0"/>
        <pt x="111" y="315" on="1"/>
        <pt x="501" y="315" on="1"/>
        <pt x="490" y="286" on="1"/>
        <pt x="117" y="286" on="1"/>
        <pt x="150" y="171" on="0"/>
        <pt x="343" y="16" on="0"/>
        <pt x="570" y="16" on="0"/>
        <pt x="664" y="80" on="1"/>
        <pt x="664" y="43" on="1"/>
        <pt x="573" y="-13" on="0"/>
        <pt x="470" y="-13" on="1"/>
        <pt x="455" y="-13" on="1"/>
        <pt x="300" y="-13" on="0"/>
        <pt x="75" y="219" on="0"/>
        <pt x="75" y="532" on="0"/>
        <pt x="303" y="761" on="0"/>
      </contour>
    </TTGlyph>
    <TTGlyph name="F" xMin="75" yMin="0" xMax="342" yMax="750">
      <contour>
        <pt x="75" y="750" on="1"/>
        <pt x="342" y="750" on="1"/>
        <pt x="342" y="721" on="1"/>
        <pt x="108" y="721" on="1"/>
        <pt x="108" y="315" on="1"/>
        <pt x="303" y="315" on="1"/>
        <pt x="303" y="286" on="1"/>
        <pt x="108" y="286" on="1"/>
        <pt x="108" y="0" on="1"/>
        <pt x="75" y="0" on="1"/>
      </contour>
    </TTGlyph>
    <TTGlyph name="G" xMin="45" yMin="-11" xMax="638" yMax="765">
      <contour>
        <pt x="357" y="286" on="1"/>
        <pt x="357" y="315" on="1"/>
        <pt x="638" y="315" on="1"/>
        <pt x="638" y="44" on="1"/>
        <pt x="550" y="-11" on="0"/>
        <pt x="440" y="-11" on="1"/>
        <pt x="429" y="-11" on="1"/>
        <pt x="326" y="-11" on="0"/>
        <pt x="148" y="97" on="0"/>
        <pt x="45" y="276" on="0"/>
        <pt x="45" y="377" on="1"/>
        <pt x="45" y="536" on="0"/>
        <pt x="275" y="765" on="0"/>
        <pt x="435" y="765" on="1"/>
        <pt x="542" y="765" on="0"/>
        <pt x="638" y="709" on="1"/>
        <pt x="638" y="672" on="1"/>
        <pt x="544" y="736" on="0"/>
        <pt x="435" y="736" on="1"/>
        <pt x="288" y="736" on="0"/>
        <pt x="78" y="525" on="0"/>
        <pt x="78" y="230" on="0"/>
        <pt x="288" y="18" on="0"/>
        <pt x="435" y="18" on="1"/>
        <pt x="517" y="18" on="0"/>
        <pt x="605" y="60" on="1"/>
        <pt x="605" y="286" on="1"/>
      </contour>
    </TTGlyph>
    <TTGlyph name="Gbreve" xMin="45" yMin="-11" xMax="638" yMax="944">
      <contour>
        <pt x="357" y="286" on="1"/>
        <pt x="357" y="315" on="1"/>
        <pt x="638" y="315" on="1"/>
        <pt x="638" y="44" on="1"/>
        <pt x="550" y="-11" on="0"/>
        <pt x="440" y="-11" on="1"/>
        <pt x="429" y="-11" on="1"/>
        <pt x="326" y="-11" on="0"/>
        <pt x="148" y="97" on="0"/>
        <pt x="45" y="276" on="0"/>
        <pt x="45" y="377" on="1"/>
        <pt x="45" y="536" on="0"/>
        <pt x="275" y="765" on="0"/>
        <pt x="435" y="765" on="1"/>
        <pt x="542" y="765" on="0"/>
        <pt x="638" y="709" on="1"/>
        <pt x="638" y="672" on="1"/>
        <pt x="544" y="736" on="0"/>
        <pt x="435" y="736" on="1"/>
        <pt x="288" y="736" on="0"/>
        <pt x="78" y="525" on="0"/>
        <pt x="78" y="230" on="0"/>
        <pt x="288" y="18" on="0"/>
        <pt x="435" y="18" on="1"/>
        <pt x="517" y="18" on="0"/>
        <pt x="605" y="60" on="1"/>
        <pt x="605" y="286" on="1"/>
      </contour>
      <contour>
        <pt x="343" y="908" on="0"/>
        <pt x="401" y="853" on="0"/>
        <pt x="472" y="853" on="0"/>
        <pt x="529" y="908" on="0"/>
        <pt x="533" y="944" on="1"/>
        <pt x="562" y="944" on="1"/>
        <pt x="560" y="897" on="0"/>
        <pt x="489" y="828" on="0"/>
        <pt x="441" y="828" on="1"/>
        <pt x="433" y="828" on="1"/>
        <pt x="385" y="828" on="0"/>
        <pt x="315" y="896" on="0"/>
        <pt x="313" y="944" on="1"/>
        <pt x="341" y="944" on="1"/>
      </contour>
    </TTGlyph>
    <TTGlyph name="Gcircumflex" xMin="45" yMin="-11" xMax="638" yMax="944">
      <contour>
        <pt x="357" y="286" on="1"/>
        <pt x="357" y="315" on="1"/>
        <pt x="638" y="315" on="1"/>
        <pt x="638" y="44" on="1"/>
        <pt x="550" y="-11" on="0"/>
        <pt x="440" y="-11" on="1"/>
        <pt x="429" y="-11" on="1"/>
        <pt x="326" y="-11" on="0"/>
        <pt x="148" y="97" on="0"/>
        <pt x="45" y="276" on="0"/>
        <pt x="45" y="377" on="1"/>
        <pt x="45" y="536" on="0"/>
        <pt x="275" y="765" on="0"/>
        <pt x="435" y="765" on="1"/>
        <pt x="542" y="765" on="0"/>
        <pt x="638" y="709" on="1"/>
        <pt x="638" y="672" on="1"/>
        <pt x="544" y="736" on="0"/>
        <pt x="435" y="736" on="1"/>
        <pt x="288" y="736" on="0"/>
        <pt x="78" y="525" on="0"/>
        <pt x="78" y="230" on="0"/>
        <pt x="288" y="18" on="0"/>
        <pt x="435" y="18" on="1"/>
        <pt x="517" y="18" on="0"/>
        <pt x="605" y="60" on="1"/>
        <pt x="605" y="286" on="1"/>
      </contour>
      <contour>
        <pt x="450" y="944" on="1"/>
        <pt x="582" y="829" on="1"/>
        <pt x="541" y="829" on="1"/>
        <pt x="434" y="920" on="1"/>
        <pt x="328" y="829" on="1"/>
        <pt x="286" y="829" on="1"/>
        <pt x="420" y="944" on="1"/>
      </contour>
    </TTGlyph>
    <TTGlyph name="Gdotaccent" xMin="45" yMin="-11" xMax="638" yMax="913">
      <contour>
        <pt x="357" y="286" on="1"/>
        <pt x="357" y="315" on="1"/>
        <pt x="638" y="315" on="1"/>
        <pt x="638" y="44" on="1"/>
        <pt x="550" y="-11" on="0"/>
        <pt x="440" y="-11" on="1"/>
        <pt x="429" y="-11" on="1"/>
        <pt x="326" y="-11" on="0"/>
        <pt x="148" y="97" on="0"/>
        <pt x="45" y="276" on="0"/>
        <pt x="45" y="377" on="1"/>
        <pt x="45" y="536" on="0"/>
        <pt x="275" y="765" on="0"/>
        <pt x="435" y="765" on="1"/>
        <pt x="542" y="765" on="0"/>
        <pt x="638" y="709" on="1"/>
        <pt x="638" y="672" on="1"/>
        <pt x="544" y="736" on="0"/>
        <pt x="435" y="736" on="1"/>
        <pt x="288" y="736" on="0"/>
        <pt x="78" y="525" on="0"/>
        <pt x="78" y="230" on="0"/>
        <pt x="288" y="18" on="0"/>
        <pt x="435" y="18" on="1"/>
        <pt x="517" y="18" on="0"/>
        <pt x="605" y="60" on="1"/>
        <pt x="605" y="286" on="1"/>
      </contour>
      <contour>
        <pt x="406" y="859" on="0"/>
        <pt x="406" y="913" on="0"/>
        <pt x="464" y="913" on="0"/>
        <pt x="464" y="859" on="0"/>
      </contour>
    </TTGlyph>
    <TTGlyph name="H" xMin="75" yMin="0" xMax="655" yMax="750">
      <contour>
        <pt x="622" y="750" on="1"/>
        <pt x="655" y="750" on="1"/>
        <pt x="655" y="0" on="1"/>
        <pt x="622" y="0" on="1"/>
        <pt x="622" y="286" on="1"/>
        <pt x="108" y="286" on="1"/>
        <pt x="108" y="0" on="1"/>
        <pt x="75" y="0" on="1"/>
        <pt x="75" y="750" on="1"/>
        <pt x="108" y="750" on="1"/>
        <pt x="108" y="315" on="1"/>
        <pt x="622" y="315" on="1"/>
      </contour>
    </TTGlyph>
    <TTGlyph name="Hbar" xMin="20" yMin="0" xMax="711" yMax="750">
      <contour>
        <pt x="622" y="750" on="1"/>
        <pt x="655" y="750" on="1"/>
        <pt x="655" y="558" on="1"/>
        <pt x="711" y="558" on="1"/>
        <pt x="711" y="529" on="1"/>
        <pt x="655" y="529" on="1"/>
        <pt x="655" y="0" on="1"/>
        <pt x="622" y="0" on="1"/>
        <pt x="622" y="286" on="1"/>
        <pt x="108" y="286" on="1"/>
        <pt x="108" y="0" on="1"/>
        <pt x="75" y="0" on="1"/>
        <pt x="75" y="529" on="1"/>
        <pt x="20" y="529" on="1"/>
        <pt x="20" y="558" on="1"/>
        <pt x="75" y="558" on="1"/>
        <pt x="75" y="750" on="1"/>
        <pt x="108" y="750" on="1"/>
        <pt x="108" y="558" on="1"/>
        <pt x="622" y="558" on="1"/>
      </contour>
      <contour>
        <pt x="108" y="315" on="1"/>
        <pt x="622" y="315" on="1"/>
        <pt x="622" y="529" on="1"/>
        <pt x="108" y="529" on="1"/>
      </contour>
    </TTGlyph>
    <TTGlyph name="Hcircumflex" xMin="75" yMin="0" xMax="655" yMax="944">
      <contour>
        <pt x="622" y="750" on="1"/>
        <pt x="655" y="750" on="1"/>
        <pt x="655" y="0" on="1"/>
        <pt x="622" y="0" on="1"/>
        <pt x="622" y="286" on="1"/>
        <pt x="108" y="286" on="1"/>
        <pt x="108" y="0" on="1"/>
        <pt x="75" y="0" on="1"/>
        <pt x="75" y="750" on="1"/>
        <pt x="108" y="750" on="1"/>
        <pt x="108" y="315" on="1"/>
        <pt x="622" y="315" on="1"/>
      </contour>
      <contour>
        <pt x="381" y="944" on="1"/>
        <pt x="513" y="829" on="1"/>
        <pt x="472" y="829" on="1"/>
        <pt x="365" y="920" on="1"/>
        <pt x="259" y="829" on="1"/>
        <pt x="217" y="829" on="1"/>
        <pt x="351" y="944" on="1"/>
      </contour>
    </TTGlyph>
    <TTGlyph name="I" xMin="80" yMin="0" xMax="113" yMax="750">
      <contour>
        <pt x="80" y="750" on="1"/>
        <pt x="113" y="750" on="1"/>
        <pt x="113" y="0" on="1"/>
        <pt x="80" y="0" on="1"/>
      </contour>
    </TTGlyph>
    <TTGlyph name="Iacute" xMin="16" yMin="0" xMax="197" yMax="944">
      <contour>
        <pt x="90" y="750" on="1"/>
        <pt x="123" y="750" on="1"/>
        <pt x="123" y="0" on="1"/>
        <pt x="90" y="0" on="1"/>
      </contour>
      <contour>
        <pt x="156" y="944" on="1"/>
        <pt x="197" y="944" on="1"/>
        <pt x="58" y="829" on="1"/>
        <pt x="16" y="829" on="1"/>
      </contour>
    </TTGlyph>
    <TTGlyph name="Ibreve" xMin="-28" yMin="0" xMax="221" yMax="944">
      <contour>
        <pt x="80" y="750" on="1"/>
        <pt x="113" y="750" on="1"/>
        <pt x="113" y="0" on="1"/>
        <pt x="80" y="0" on="1"/>
      </contour>
      <contour>
        <pt x="2" y="908" on="0"/>
        <pt x="60" y="853" on="0"/>
        <pt x="131" y="853" on="0"/>
        <pt x="188" y="908" on="0"/>
        <pt x="192" y="944" on="1"/>
        <pt x="221" y="944" on="1"/>
        <pt x="219" y="897" on="0"/>
        <pt x="148" y="828" on="0"/>
        <pt x="100" y="828" on="1"/>
        <pt x="92" y="828" on="1"/>
        <pt x="44" y="828" on="0"/>
        <pt x="-26" y="896" on="0"/>
        <pt x="-28" y="944" on="1"/>
        <pt x="0" y="944" on="1"/>
      </contour>
    </TTGlyph>
    <TTGlyph name="Icircumflex" xMin="-41" yMin="0" xMax="255" yMax="944">
      <contour>
        <pt x="90" y="750" on="1"/>
        <pt x="123" y="750" on="1"/>
        <pt x="123" y="0" on="1"/>
        <pt x="90" y="0" on="1"/>
      </contour>
      <contour>
        <pt x="123" y="944" on="1"/>
        <pt x="255" y="829" on="1"/>
        <pt x="214" y="829" on="1"/>
        <pt x="107" y="920" on="1"/>
        <pt x="1" y="829" on="1"/>
        <pt x="-41" y="829" on="1"/>
        <pt x="93" y="944" on="1"/>
      </contour>
    </TTGlyph>
    <TTGlyph name="Idieresis" xMin="25" yMin="0" xMax="187" yMax="912">
      <contour>
        <pt x="90" y="750" on="1"/>
        <pt x="123" y="750" on="1"/>
        <pt x="123" y="0" on="1"/>
        <pt x="90" y="0" on="1"/>
      </contour>
      <contour>
        <pt x="25" y="858" on="0"/>
        <pt x="25" y="912" on="0"/>
        <pt x="83" y="912" on="0"/>
        <pt x="83" y="858" on="0"/>
      </contour>
      <contour>
        <pt x="132" y="858" on="0"/>
        <pt x="132" y="912" on="0"/>
        <pt x="187" y="912" on="0"/>
        <pt x="187" y="858" on="0"/>
      </contour>
    </TTGlyph>
    <TTGlyph name="Idotaccent" xMin="67" yMin="0" xMax="125" yMax="913">
      <contour>
        <pt x="80" y="750" on="1"/>
        <pt x="113" y="750" on="1"/>
        <pt x="113" y="0" on="1"/>
        <pt x="80" y="0" on="1"/>
      </contour>
      <contour>
        <pt x="67" y="859" on="0"/>
        <pt x="67" y="913" on="0"/>
        <pt x="125" y="913" on="0"/>
        <pt x="125" y="859" on="0"/>
      </contour>
    </TTGlyph>
    <TTGlyph name="Igrave" xMin="16" yMin="0" xMax="197" yMax="944">
      <contour>
        <pt x="90" y="750" on="1"/>
        <pt x="123" y="750" on="1"/>
        <pt x="123" y="0" on="1"/>
        <pt x="90" y="0" on="1"/>
      </contour>
      <contour>
        <pt x="16" y="944" on="1"/>
        <pt x="57" y="944" on="1"/>
        <pt x="197" y="829" on="1"/>
        <pt x="155" y="829" on="1"/>
      </contour>
    </TTGlyph>
    <TTGlyph name="Imacron" xMin="0" yMin="0" xMax="197" yMax="894">
      <contour>
        <pt x="80" y="750" on="1"/>
        <pt x="113" y="750" on="1"/>
        <pt x="113" y="0" on="1"/>
        <pt x="80" y="0" on="1"/>
      </contour>
      <contour>
        <pt x="197" y="866" on="1"/>
        <pt x="0" y="866" on="1"/>
        <pt x="0" y="894" on="1"/>
        <pt x="197" y="894" on="1"/>
      </contour>
    </TTGlyph>
    <TTGlyph name="Iogonek" xMin="-2" yMin="-200" xMax="113" yMax="750">
      <contour>
        <pt x="80" y="750" on="1"/>
        <pt x="113" y="750" on="1"/>
        <pt x="113" y="0" on="1"/>
        <pt x="112" y="0" on="1"/>
        <pt x="25" y="-125" on="1"/>
        <pt x="25" y="-146" on="0"/>
        <pt x="52" y="-175" on="0"/>
        <pt x="75" y="-175" on="1"/>
        <pt x="113" y="-175" on="1"/>
        <pt x="113" y="-200" on="1"/>
        <pt x="73" y="-200" on="1"/>
        <pt x="40" y="-200" on="0"/>
        <pt x="-2" y="-160" on="0"/>
        <pt x="-2" y="-130" on="1"/>
        <pt x="-2" y="-123" on="1"/>
        <pt x="84" y="0" on="1"/>
        <pt x="80" y="0" on="1"/>
      </contour>
    </TTGlyph>
    <TTGlyph name="Itilde" xMin="-74" yMin="0" xMax="267" yMax="928">
      <contour>
        <pt x="80" y="750" on="1"/>
        <pt x="113" y="750" on="1"/>
        <pt x="113" y="0" on="1"/>
        <pt x="80" y="0" on="1"/>
      </contour>
      <contour>
        <pt x="177" y="847" on="1"/>
        <pt x="148" y="847" on="0"/>
        <pt x="49" y="902" on="0"/>
        <pt x="-11" y="901" on="0"/>
        <pt x="-43" y="848" on="1"/>
        <pt x="-74" y="848" on="1"/>
        <pt x="-35" y="928" on="0"/>
        <pt x="21" y="928" on="1"/>
        <pt x="30" y="928" on="1"/>
        <pt x="60" y="928" on="0"/>
        <pt x="150" y="875" on="0"/>
        <pt x="205" y="875" on="0"/>
        <pt x="236" y="924" on="1"/>
        <pt x="267" y="924" on="1"/>
        <pt x="220" y="847" on="0"/>
      </contour>
    </TTGlyph>
    <TTGlyph name="J" xMin="20" yMin="-15" xMax="392" yMax="750">
      <contour>
        <pt x="174" y="721" on="1"/>
        <pt x="174" y="750" on="1"/>
        <pt x="392" y="750" on="1"/>
        <pt x="392" y="230" on="1"/>
        <pt x="392" y="121" on="0"/>
        <pt x="273" y="-15" on="0"/>
        <pt x="177" y="-15" on="1"/>
        <pt x="167" y="-15" on="1"/>
        <pt x="87" y="-15" on="0"/>
        <pt x="20" y="42" on="1"/>
        <pt x="20" y="83" on="1"/>
        <pt x="83" y="14" on="0"/>
        <pt x="259" y="14" on="0"/>
        <pt x="359" y="133" on="0"/>
        <pt x="359" y="226" on="1"/>
        <pt x="359" y="721" on="1"/>
      </contour>
    </TTGlyph>
    <TTGlyph name="Jcircumflex" xMin="20" yMin="-15" xMax="434" yMax="944">
      <contour>
        <pt x="174" y="721" on="1"/>
        <pt x="174" y="750" on="1"/>
        <pt x="392" y="750" on="1"/>
        <pt x="392" y="230" on="1"/>
        <pt x="392" y="121" on="0"/>
        <pt x="273" y="-15" on="0"/>
        <pt x="177" y="-15" on="1"/>
        <pt x="167" y="-15" on="1"/>
        <pt x="87" y="-15" on="0"/>
        <pt x="20" y="42" on="1"/>
        <pt x="20" y="83" on="1"/>
        <pt x="83" y="14" on="0"/>
        <pt x="259" y="14" on="0"/>
        <pt x="359" y="133" on="0"/>
        <pt x="359" y="226" on="1"/>
        <pt x="359" y="721" on="1"/>
      </contour>
      <contour>
        <pt x="302" y="944" on="1"/>
        <pt x="434" y="829" on="1"/>
        <pt x="393" y="829" on="1"/>
        <pt x="286" y="920" on="1"/>
        <pt x="180" y="829" on="1"/>
        <pt x="138" y="829" on="1"/>
        <pt x="272" y="944" on="1"/>
      </contour>
    </TTGlyph>
    <TTGlyph name="K" xMin="75" yMin="0" xMax="552" yMax="750">
      <contour>
        <pt x="75" y="750" on="1"/>
        <pt x="107" y="750" on="1"/>
        <pt x="107" y="475" on="1"/>
        <pt x="424" y="750" on="1"/>
        <pt x="464" y="750" on="1"/>
        <pt x="121" y="451" on="1"/>
        <pt x="552" y="0" on="1"/>
        <pt x="508" y="0" on="1"/>
        <pt x="108" y="417" on="1"/>
        <pt x="108" y="0" on="1"/>
        <pt x="75" y="0" on="1"/>
      </contour>
    </TTGlyph>
    <TTGlyph name="L" xMin="75" yMin="0" xMax="340" yMax="750">
      <contour>
        <pt x="108" y="750" on="1"/>
        <pt x="108" y="29" on="1"/>
        <pt x="340" y="29" on="1"/>
        <pt x="340" y="0" on="1"/>
        <pt x="75" y="0" on="1"/>
        <pt x="75" y="750" on="1"/>
      </contour>
    </TTGlyph>
    <TTGlyph name="Lacute" xMin="19" yMin="0" xMax="340" yMax="944">
      <contour>
        <pt x="108" y="750" on="1"/>
        <pt x="108" y="29" on="1"/>
        <pt x="340" y="29" on="1"/>
        <pt x="340" y="0" on="1"/>
        <pt x="75" y="0" on="1"/>
        <pt x="75" y="750" on="1"/>
      </contour>
      <contour>
        <pt x="159" y="944" on="1"/>
        <pt x="200" y="944" on="1"/>
        <pt x="61" y="829" on="1"/>
        <pt x="19" y="829" on="1"/>
      </contour>
    </TTGlyph>
    <TTGlyph name="Lcaron" xMin="75" yMin="0" xMax="340" yMax="750">
      <contour>
        <pt x="108" y="750" on="1"/>
        <pt x="108" y="29" on="1"/>
        <pt x="340" y="29" on="1"/>
        <pt x="340" y="0" on="1"/>
        <pt x="75" y="0" on="1"/>
        <pt x="75" y="750" on="1"/>
      </contour>
      <contour>
        <pt x="252" y="631" on="1"/>
        <pt x="252" y="687" on="1"/>
        <pt x="221" y="687" on="0"/>
        <pt x="221" y="749" on="0"/>
        <pt x="290" y="749" on="0"/>
        <pt x="290" y="718" on="1"/>
        <pt x="290" y="711" on="0"/>
        <pt x="287" y="702" on="1"/>
        <pt x="256" y="631" on="1"/>
      </contour>
    </TTGlyph>
    <TTGlyph name="Ldot" xMin="75" yMin="0" xMax="340" yMax="750">
      <contour>
        <pt x="108" y="750" on="1"/>
        <pt x="108" y="29" on="1"/>
        <pt x="340" y="29" on="1"/>
        <pt x="340" y="0" on="1"/>
        <pt x="75" y="0" on="1"/>
        <pt x="75" y="750" on="1"/>
      </contour>
      <contour>
        <pt x="253" y="367" on="0"/>
        <pt x="253" y="429" on="0"/>
        <pt x="315" y="429" on="0"/>
        <pt x="315" y="367" on="0"/>
      </contour>
    </TTGlyph>
    <TTGlyph name="Lslash" xMin="8" yMin="0" xMax="340" yMax="750">
      <contour>
        <pt x="108" y="750" on="1"/>
        <pt x="108" y="321" on="1"/>
        <pt x="228" y="441" on="1"/>
        <pt x="248" y="421" on="1"/>
        <pt x="108" y="281" on="1"/>
        <pt x="108" y="29" on="1"/>
        <pt x="340" y="29" on="1"/>
        <pt x="340" y="0" on="1"/>
        <pt x="75" y="0" on="1"/>
        <pt x="75" y="248" on="1"/>
        <pt x="28" y="201" on="1"/>
        <pt x="8" y="221" on="1"/>
        <pt x="75" y="288" on="1"/>
        <pt x="75" y="750" on="1"/>
      </contour>
    </TTGlyph>
    <TTGlyph name="M" xMin="75" yMin="-14" xMax="844" yMax="750">
      <contour>
        <pt x="844" y="750" on="1"/>
        <pt x="844" y="0" on="1"/>
        <pt x="811" y="0" on="1"/>
        <pt x="811" y="711" on="1"/>
        <pt x="457" y="-14" on="1"/>
        <pt x="105" y="711" on="1"/>
        <pt x="105" y="0" on="1"/>
        <pt x="75" y="0" on="1"/>
        <pt x="75" y="750" on="1"/>
        <pt x="123" y="750" on="1"/>
        <pt x="460" y="58" on="1"/>
        <pt x="798" y="750" on="1"/>
      </contour>
    </TTGlyph>
    <TTGlyph name="N" xMin="75" yMin="-11" xMax="656" yMax="761">
      <contour>
        <pt x="627" y="750" on="1"/>
        <pt x="656" y="750" on="1"/>
        <pt x="656" y="-11" on="1"/>
        <pt x="104" y="668" on="1"/>
        <pt x="104" y="0" on="1"/>
        <pt x="75" y="0" on="1"/>
        <pt x="75" y="761" on="1"/>
        <pt x="627" y="83" on="1"/>
      </contour>
    </TTGlyph>
    <TTGlyph name="Nacute" xMin="75" yMin="-11" xMax="656" yMax="944">
      <contour>
        <pt x="627" y="750" on="1"/>
        <pt x="656" y="750" on="1"/>
        <pt x="656" y="-11" on="1"/>
        <pt x="104" y="668" on="1"/>
        <pt x="104" y="0" on="1"/>
        <pt x="75" y="0" on="1"/>
        <pt x="75" y="761" on="1"/>
        <pt x="627" y="83" on="1"/>
      </contour>
      <contour>
        <pt x="415" y="944" on="1"/>
        <pt x="456" y="944" on="1"/>
        <pt x="317" y="829" on="1"/>
        <pt x="275" y="829" on="1"/>
      </contour>
    </TTGlyph>
    <TTGlyph name="Ncaron" xMin="75" yMin="-11" xMax="656" yMax="944">
      <contour>
        <pt x="627" y="750" on="1"/>
        <pt x="656" y="750" on="1"/>
        <pt x="656" y="-11" on="1"/>
        <pt x="104" y="668" on="1"/>
        <pt x="104" y="0" on="1"/>
        <pt x="75" y="0" on="1"/>
        <pt x="75" y="761" on="1"/>
        <pt x="627" y="83" on="1"/>
      </contour>
      <contour>
        <pt x="513" y="944" on="1"/>
        <pt x="381" y="829" on="1"/>
        <pt x="351" y="829" on="1"/>
        <pt x="217" y="944" on="1"/>
        <pt x="259" y="944" on="1"/>
        <pt x="365" y="853" on="1"/>
        <pt x="472" y="944" on="1"/>
      </contour>
    </TTGlyph>
    <TTGlyph name="Ntilde" xMin="85" yMin="-11" xMax="666" yMax="928">
      <contour>
        <pt x="637" y="750" on="1"/>
        <pt x="666" y="750" on="1"/>
        <pt x="666" y="-11" on="1"/>
        <pt x="114" y="668" on="1"/>
        <pt x="114" y="0" on="1"/>
        <pt x="85" y="0" on="1"/>
        <pt x="85" y="761" on="1"/>
        <pt x="637" y="83" on="1"/>
      </contour>
      <contour>
        <pt x="456" y="847" on="1"/>
        <pt x="427" y="847" on="0"/>
        <pt x="328" y="902" on="0"/>
        <pt x="268" y="901" on="0"/>
        <pt x="236" y="848" on="1"/>
        <pt x="205" y="848" on="1"/>
        <pt x="244" y="928" on="0"/>
        <pt x="300" y="928" on="1"/>
        <pt x="309" y="928" on="1"/>
        <pt x="339" y="928" on="0"/>
        <pt x="429" y="875" on="0"/>
        <pt x="484" y="875" on="0"/>
        <pt x="515" y="924" on="1"/>
        <pt x="546" y="924" on="1"/>
        <pt x="499" y="847" on="0"/>
      </contour>
    </TTGlyph>
    <TTGlyph name="O" xMin="45" yMin="-13" xMax="825" yMax="763">
      <contour>
        <pt x="272" y="-13" on="0"/>
        <pt x="45" y="221" on="0"/>
        <pt x="45" y="534" on="0"/>
        <pt x="275" y="763" on="0"/>
        <pt x="597" y="763" on="0"/>
        <pt x="825" y="535" on="0"/>
        <pt x="825" y="220" on="0"/>
        <pt x="599" y="-13" on="0"/>
        <pt x="442" y="-13" on="1"/>
        <pt x="427" y="-13" on="1"/>
      </contour>
      <contour>
        <pt x="792" y="523" on="0"/>
        <pt x="583" y="734" on="0"/>
        <pt x="288" y="734" on="0"/>
        <pt x="78" y="523" on="0"/>
        <pt x="78" y="228" on="0"/>
        <pt x="288" y="16" on="0"/>
        <pt x="582" y="16" on="0"/>
        <pt x="792" y="228" on="0"/>
      </contour>
    </TTGlyph>
    <TTGlyph name="OE" xMin="50" yMin="0" xMax="724" yMax="750">
      <contour>
        <pt x="724" y="721" on="1"/>
        <pt x="488" y="721" on="1"/>
        <pt x="488" y="313" on="1"/>
        <pt x="685" y="313" on="1"/>
        <pt x="685" y="284" on="1"/>
        <pt x="488" y="284" on="1"/>
        <pt x="488" y="29" on="1"/>
        <pt x="724" y="29" on="1"/>
        <pt x="724" y="0" on="1"/>
        <pt x="427" y="0" on="1"/>
        <pt x="271" y="0" on="0"/>
        <pt x="50" y="223" on="0"/>
        <pt x="50" y="535" on="0"/>
        <pt x="274" y="750" on="0"/>
        <pt x="435" y="750" on="1"/>
        <pt x="724" y="750" on="1"/>
      </contour>
      <contour>
        <pt x="435" y="29" on="1"/>
        <pt x="455" y="29" on="1"/>
        <pt x="455" y="721" on="1"/>
        <pt x="435" y="721" on="1"/>
        <pt x="287" y="721" on="0"/>
        <pt x="83" y="524" on="0"/>
        <pt x="83" y="230" on="0"/>
        <pt x="288" y="29" on="0"/>
      </contour>
    </TTGlyph>
    <TTGlyph name="Oacute" xMin="55" yMin="-13" xMax="835" yMax="944">
      <contour>
        <pt x="282" y="-13" on="0"/>
        <pt x="55" y="221" on="0"/>
        <pt x="55" y="534" on="0"/>
        <pt x="285" y="763" on="0"/>
        <pt x="607" y="763" on="0"/>
        <pt x="835" y="535" on="0"/>
        <pt x="835" y="220" on="0"/>
        <pt x="609" y="-13" on="0"/>
        <pt x="452" y="-13" on="1"/>
        <pt x="437" y="-13" on="1"/>
      </contour>
      <contour>
        <pt x="802" y="523" on="0"/>
        <pt x="593" y="734" on="0"/>
        <pt x="298" y="734" on="0"/>
        <pt x="88" y="523" on="0"/>
        <pt x="88" y="228" on="0"/>
        <pt x="298" y="16" on="0"/>
        <pt x="592" y="16" on="0"/>
        <pt x="802" y="228" on="0"/>
      </contour>
      <contour>
        <pt x="494" y="944" on="1"/>
        <pt x="535" y="944" on="1"/>
        <pt x="396" y="829" on="1"/>
        <pt x="354" y="829" on="1"/>
      </contour>
    </TTGlyph>
    <TTGlyph name="Obreve" xMin="45" yMin="-13" xMax="825" yMax="944">
      <contour>
        <pt x="272" y="-13" on="0"/>
        <pt x="45" y="221" on="0"/>
        <pt x="45" y="534" on="0"/>
        <pt x="275" y="763" on="0"/>
        <pt x="597" y="763" on="0"/>
        <pt x="825" y="535" on="0"/>
        <pt x="825" y="220" on="0"/>
        <pt x="599" y="-13" on="0"/>
        <pt x="442" y="-13" on="1"/>
        <pt x="427" y="-13" on="1"/>
      </contour>
      <contour>
        <pt x="792" y="523" on="0"/>
        <pt x="583" y="734" on="0"/>
        <pt x="288" y="734" on="0"/>
        <pt x="78" y="523" on="0"/>
        <pt x="78" y="228" on="0"/>
        <pt x="288" y="16" on="0"/>
        <pt x="582" y="16" on="0"/>
        <pt x="792" y="228" on="0"/>
      </contour>
      <contour>
        <pt x="340" y="908" on="0"/>
        <pt x="398" y="853" on="0"/>
        <pt x="469" y="853" on="0"/>
        <pt x="526" y="908" on="0"/>
        <pt x="530" y="944" on="1"/>
        <pt x="559" y="944" on="1"/>
        <pt x="557" y="897" on="0"/>
        <pt x="486" y="828" on="0"/>
        <pt x="438" y="828" on="1"/>
        <pt x="430" y="828" on="1"/>
        <pt x="382" y="828" on="0"/>
        <pt x="312" y="896" on="0"/>
        <pt x="310" y="944" on="1"/>
        <pt x="338" y="944" on="1"/>
      </contour>
    </TTGlyph>
    <TTGlyph name="Ocircumflex" xMin="55" yMin="-13" xMax="835" yMax="944">
      <contour>
        <pt x="282" y="-13" on="0"/>
        <pt x="55" y="221" on="0"/>
        <pt x="55" y="534" on="0"/>
        <pt x="285" y="763" on="0"/>
        <pt x="607" y="763" on="0"/>
        <pt x="835" y="535" on="0"/>
        <pt x="835" y="220" on="0"/>
        <pt x="609" y="-13" on="0"/>
        <pt x="452" y="-13" on="1"/>
        <pt x="437" y="-13" on="1"/>
      </contour>
      <contour>
        <pt x="802" y="523" on="0"/>
        <pt x="593" y="734" on="0"/>
        <pt x="298" y="734" on="0"/>
        <pt x="88" y="523" on="0"/>
        <pt x="88" y="228" on="0"/>
        <pt x="298" y="16" on="0"/>
        <pt x="592" y="16" on="0"/>
        <pt x="802" y="228" on="0"/>
      </contour>
      <contour>
        <pt x="461" y="944" on="1"/>
        <pt x="593" y="829" on="1"/>
        <pt x="552" y="829" on="1"/>
        <pt x="445" y="920" on="1"/>
        <pt x="339" y="829" on="1"/>
        <pt x="297" y="829" on="1"/>
        <pt x="431" y="944" on="1"/>
      </contour>
    </TTGlyph>
    <TTGlyph name="Odieresis" xMin="55" yMin="-13" xMax="835" yMax="912">
      <contour>
        <pt x="282" y="-13" on="0"/>
        <pt x="55" y="221" on="0"/>
        <pt x="55" y="534" on="0"/>
        <pt x="285" y="763" on="0"/>
        <pt x="607" y="763" on="0"/>
        <pt x="835" y="535" on="0"/>
        <pt x="835" y="220" on="0"/>
        <pt x="609" y="-13" on="0"/>
        <pt x="452" y="-13" on="1"/>
        <pt x="437" y="-13" on="1"/>
      </contour>
      <contour>
        <pt x="802" y="523" on="0"/>
        <pt x="593" y="734" on="0"/>
        <pt x="298" y="734" on="0"/>
        <pt x="88" y="523" on="0"/>
        <pt x="88" y="228" on="0"/>
        <pt x="298" y="16" on="0"/>
        <pt x="592" y="16" on="0"/>
        <pt x="802" y="228" on="0"/>
      </contour>
      <contour>
        <pt x="364" y="858" on="0"/>
        <pt x="364" y="912" on="0"/>
        <pt x="422" y="912" on="0"/>
        <pt x="422" y="858" on="0"/>
      </contour>
      <contour>
        <pt x="471" y="858" on="0"/>
        <pt x="471" y="912" on="0"/>
        <pt x="526" y="912" on="0"/>
        <pt x="526" y="858" on="0"/>
      </contour>
    </TTGlyph>
    <TTGlyph name="Ograve" xMin="55" yMin="-13" xMax="835" yMax="944">
      <contour>
        <pt x="282" y="-13" on="0"/>
        <pt x="55" y="221" on="0"/>
        <pt x="55" y="534" on="0"/>
        <pt x="285" y="763" on="0"/>
        <pt x="607" y="763" on="0"/>
        <pt x="835" y="535" on="0"/>
        <pt x="835" y="220" on="0"/>
        <pt x="609" y="-13" on="0"/>
        <pt x="452" y="-13" on="1"/>
        <pt x="437" y="-13" on="1"/>
      </contour>
      <contour>
        <pt x="802" y="523" on="0"/>
        <pt x="593" y="734" on="0"/>
        <pt x="298" y="734" on="0"/>
        <pt x="88" y="523" on="0"/>
        <pt x="88" y="228" on="0"/>
        <pt x="298" y="16" on="0"/>
        <pt x="592" y="16" on="0"/>
        <pt x="802" y="228" on="0"/>
      </contour>
      <contour>
        <pt x="354" y="944" on="1"/>
        <pt x="395" y="944" on="1"/>
        <pt x="535" y="829" on="1"/>
        <pt x="493" y="829" on="1"/>
      </contour>
    </TTGlyph>
    <TTGlyph name="Ohungarumlaut" xMin="45" yMin="-13" xMax="825" yMax="944">
      <contour>
        <pt x="272" y="-13" on="0"/>
        <pt x="45" y="221" on="0"/>
        <pt x="45" y="534" on="0"/>
        <pt x="275" y="763" on="0"/>
        <pt x="597" y="763" on="0"/>
        <pt x="825" y="535" on="0"/>
        <pt x="825" y="220" on="0"/>
        <pt x="599" y="-13" on="0"/>
        <pt x="442" y="-13" on="1"/>
        <pt x="427" y="-13" on="1"/>
      </contour>
      <contour>
        <pt x="792" y="523" on="0"/>
        <pt x="583" y="734" on="0"/>
        <pt x="288" y="734" on="0"/>
        <pt x="78" y="523" on="0"/>
        <pt x="78" y="228" on="0"/>
        <pt x="288" y="16" on="0"/>
        <pt x="582" y="16" on="0"/>
        <pt x="792" y="228" on="0"/>
      </contour>
      <contour>
        <pt x="423" y="944" on="1"/>
        <pt x="464" y="944" on="1"/>
        <pt x="325" y="829" on="1"/>
        <pt x="283" y="829" on="1"/>
      </contour>
      <contour>
        <pt x="545" y="944" on="1"/>
        <pt x="586" y="944" on="1"/>
        <pt x="447" y="829" on="1"/>
        <pt x="405" y="829" on="1"/>
      </contour>
    </TTGlyph>
    <TTGlyph name="Omacron" xMin="45" yMin="-13" xMax="825" yMax="894">
      <contour>
        <pt x="272" y="-13" on="0"/>
        <pt x="45" y="221" on="0"/>
        <pt x="45" y="534" on="0"/>
        <pt x="275" y="763" on="0"/>
        <pt x="597" y="763" on="0"/>
        <pt x="825" y="535" on="0"/>
        <pt x="825" y="220" on="0"/>
        <pt x="599" y="-13" on="0"/>
        <pt x="442" y="-13" on="1"/>
        <pt x="427" y="-13" on="1"/>
      </contour>
      <contour>
        <pt x="792" y="523" on="0"/>
        <pt x="583" y="734" on="0"/>
        <pt x="288" y="734" on="0"/>
        <pt x="78" y="523" on="0"/>
        <pt x="78" y="228" on="0"/>
        <pt x="288" y="16" on="0"/>
        <pt x="582" y="16" on="0"/>
        <pt x="792" y="228" on="0"/>
      </contour>
      <contour>
        <pt x="533" y="866" on="1"/>
        <pt x="336" y="866" on="1"/>
        <pt x="336" y="894" on="1"/>
        <pt x="533" y="894" on="1"/>
      </contour>
    </TTGlyph>
    <TTGlyph name="Oslash" xMin="50" yMin="-13" xMax="830" yMax="763">
      <contour>
        <pt x="830" y="375" on="1"/>
        <pt x="830" y="220" on="0"/>
        <pt x="604" y="-13" on="0"/>
        <pt x="447" y="-13" on="1"/>
        <pt x="432" y="-13" on="1"/>
        <pt x="316" y="-13" on="0"/>
        <pt x="221" y="54" on="1"/>
        <pt x="181" y="0" on="1"/>
        <pt x="144" y="0" on="1"/>
        <pt x="198" y="72" on="1"/>
        <pt x="129" y="128" on="0"/>
        <pt x="50" y="286" on="0"/>
        <pt x="50" y="375" on="1"/>
        <pt x="50" y="534" on="0"/>
        <pt x="280" y="763" on="0"/>
        <pt x="440" y="763" on="1"/>
        <pt x="561" y="763" on="0"/>
        <pt x="661" y="694" on="1"/>
        <pt x="701" y="748" on="1"/>
        <pt x="740" y="748" on="1"/>
        <pt x="685" y="675" on="1"/>
        <pt x="753" y="620" on="0"/>
        <pt x="830" y="464" on="0"/>
      </contour>
      <contour>
        <pt x="440" y="734" on="1"/>
        <pt x="293" y="734" on="0"/>
        <pt x="83" y="523" on="0"/>
        <pt x="83" y="375" on="1"/>
        <pt x="83" y="292" on="0"/>
        <pt x="154" y="147" on="0"/>
        <pt x="216" y="96" on="1"/>
        <pt x="643" y="670" on="1"/>
        <pt x="549" y="734" on="0"/>
      </contour>
      <contour>
        <pt x="797" y="375" on="1"/>
        <pt x="797" y="457" on="0"/>
        <pt x="728" y="600" on="0"/>
        <pt x="667" y="651" on="1"/>
        <pt x="239" y="79" on="1"/>
        <pt x="332" y="16" on="0"/>
        <pt x="440" y="16" on="1"/>
        <pt x="587" y="16" on="0"/>
        <pt x="797" y="228" on="0"/>
      </contour>
    </TTGlyph>
    <TTGlyph name="Oslashacute" xMin="45" yMin="-13" xMax="825" yMax="944">
      <contour>
        <pt x="825" y="375" on="1"/>
        <pt x="825" y="220" on="0"/>
        <pt x="599" y="-13" on="0"/>
        <pt x="442" y="-13" on="1"/>
        <pt x="427" y="-13" on="1"/>
        <pt x="311" y="-13" on="0"/>
        <pt x="215" y="55" on="1"/>
        <pt x="174" y="0" on="1"/>
        <pt x="137" y="0" on="1"/>
        <pt x="191" y="73" on="1"/>
        <pt x="123" y="129" on="0"/>
        <pt x="45" y="287" on="0"/>
        <pt x="45" y="375" on="1"/>
        <pt x="45" y="534" on="0"/>
        <pt x="275" y="763" on="0"/>
        <pt x="435" y="763" on="1"/>
        <pt x="554" y="763" on="0"/>
        <pt x="654" y="695" on="1"/>
        <pt x="694" y="748" on="1"/>
        <pt x="733" y="748" on="1"/>
        <pt x="679" y="676" on="1"/>
        <pt x="747" y="621" on="0"/>
        <pt x="825" y="464" on="0"/>
      </contour>
      <contour>
        <pt x="435" y="734" on="1"/>
        <pt x="288" y="734" on="0"/>
        <pt x="78" y="523" on="0"/>
        <pt x="78" y="375" on="1"/>
        <pt x="78" y="293" on="0"/>
        <pt x="148" y="148" on="0"/>
        <pt x="210" y="97" on="1"/>
        <pt x="636" y="671" on="1"/>
        <pt x="544" y="734" on="0"/>
      </contour>
      <contour>
        <pt x="792" y="375" on="1"/>
        <pt x="792" y="542" on="0"/>
        <pt x="661" y="652" on="1"/>
        <pt x="233" y="79" on="1"/>
        <pt x="326" y="16" on="0"/>
        <pt x="435" y="16" on="1"/>
        <pt x="582" y="16" on="0"/>
        <pt x="792" y="228" on="0"/>
      </contour>
      <contour>
        <pt x="484" y="944" on="1"/>
        <pt x="525" y="944" on="1"/>
        <pt x="386" y="829" on="1"/>
        <pt x="344" y="829" on="1"/>
      </contour>
    </TTGlyph>
    <TTGlyph name="Otilde" xMin="55" yMin="-13" xMax="835" yMax="928">
      <contour>
        <pt x="282" y="-13" on="0"/>
        <pt x="55" y="221" on="0"/>
        <pt x="55" y="534" on="0"/>
        <pt x="285" y="763" on="0"/>
        <pt x="607" y="763" on="0"/>
        <pt x="835" y="535" on="0"/>
        <pt x="835" y="220" on="0"/>
        <pt x="609" y="-13" on="0"/>
        <pt x="452" y="-13" on="1"/>
        <pt x="437" y="-13" on="1"/>
      </contour>
      <contour>
        <pt x="802" y="523" on="0"/>
        <pt x="593" y="734" on="0"/>
        <pt x="298" y="734" on="0"/>
        <pt x="88" y="523" on="0"/>
        <pt x="88" y="228" on="0"/>
        <pt x="298" y="16" on="0"/>
        <pt x="592" y="16" on="0"/>
        <pt x="802" y="228" on="0"/>
      </contour>
      <contour>
        <pt x="525" y="847" on="1"/>
        <pt x="496" y="847" on="0"/>
        <pt x="397" y="902" on="0"/>
        <pt x="337" y="901" on="0"/>
        <pt x="305" y="848" on="1"/>
        <pt x="274" y="848" on="1"/>
        <pt x="313" y="928" on="0"/>
        <pt x="369" y="928" on="1"/>
        <pt x="378" y="928" on="1"/>
        <pt x="408" y="928" on="0"/>
        <pt x="498" y="875" on="0"/>
        <pt x="553" y="875" on="0"/>
        <pt x="584" y="924" on="1"/>
        <pt x="615" y="924" on="1"/>
        <pt x="568" y="847" on="0"/>
      </contour>
    </TTGlyph>
    <TTGlyph name="P" xMin="74" yMin="0" xMax="357" yMax="750">
      <contour>
        <pt x="74" y="750" on="1"/>
        <pt x="107" y="750" on="1"/>
        <pt x="211" y="750" on="0"/>
        <pt x="357" y="607" on="0"/>
        <pt x="357" y="413" on="0"/>
        <pt x="206" y="273" on="0"/>
        <pt x="115" y="273" on="1"/>
        <pt x="107" y="273" on="1"/>
        <pt x="107" y="0" on="1"/>
        <pt x="74" y="0" on="1"/>
      </contour>
      <contour>
        <pt x="107" y="301" on="1"/>
        <pt x="115" y="301" on="1"/>
        <pt x="199" y="301" on="0"/>
        <pt x="324" y="425" on="0"/>
        <pt x="324" y="595" on="0"/>
        <pt x="197" y="721" on="0"/>
        <pt x="115" y="721" on="1"/>
        <pt x="107" y="721" on="1"/>
      </contour>
    </TTGlyph>
    <TTGlyph name="Q" xMin="45" yMin="-12" xMax="825" yMax="764">
      <contour>
        <pt x="825" y="376" on="1"/>
        <pt x="825" y="287" on="0"/>
        <pt x="742" y="124" on="0"/>
        <pt x="673" y="69" on="1"/>
        <pt x="754" y="-12" on="1"/>
        <pt x="710" y="-12" on="1"/>
        <pt x="648" y="50" on="1"/>
        <pt x="553" y="-12" on="0"/>
        <pt x="440" y="-12" on="1"/>
        <pt x="429" y="-12" on="1"/>
        <pt x="326" y="-12" on="0"/>
        <pt x="148" y="96" on="0"/>
        <pt x="45" y="275" on="0"/>
        <pt x="45" y="376" on="1"/>
        <pt x="45" y="535" on="0"/>
        <pt x="275" y="764" on="0"/>
        <pt x="597" y="764" on="0"/>
        <pt x="825" y="536" on="0"/>
      </contour>
      <contour>
        <pt x="435" y="17" on="1"/>
        <pt x="536" y="17" on="0"/>
        <pt x="626" y="72" on="1"/>
        <pt x="453" y="243" on="1"/>
        <pt x="496" y="243" on="1"/>
        <pt x="650" y="91" on="1"/>
        <pt x="714" y="142" on="0"/>
        <pt x="792" y="294" on="0"/>
        <pt x="792" y="376" on="1"/>
        <pt x="792" y="524" on="0"/>
        <pt x="583" y="735" on="0"/>
        <pt x="288" y="735" on="0"/>
        <pt x="78" y="524" on="0"/>
        <pt x="78" y="229" on="0"/>
        <pt x="288" y="17" on="0"/>
      </contour>
    </TTGlyph>
    <TTGlyph name="R" xMin="75" yMin="0" xMax="377" yMax="750">
      <contour>
        <pt x="75" y="750" on="1"/>
        <pt x="118" y="750" on="1"/>
        <pt x="215" y="750" on="0"/>
        <pt x="362" y="607" on="0"/>
        <pt x="362" y="414" on="0"/>
        <pt x="212" y="272" on="0"/>
        <pt x="126" y="272" on="1"/>
        <pt x="119" y="272" on="1"/>
        <pt x="377" y="0" on="1"/>
        <pt x="334" y="0" on="1"/>
        <pt x="107" y="238" on="1"/>
        <pt x="107" y="0" on="1"/>
        <pt x="75" y="0" on="1"/>
      </contour>
      <contour>
        <pt x="107" y="301" on="1"/>
        <pt x="125" y="301" on="1"/>
        <pt x="206" y="301" on="0"/>
        <pt x="330" y="425" on="0"/>
        <pt x="330" y="595" on="0"/>
        <pt x="202" y="721" on="0"/>
        <pt x="120" y="721" on="1"/>
        <pt x="107" y="721" on="1"/>
      </contour>
    </TTGlyph>
    <TTGlyph name="Racute" xMin="75" yMin="0" xMax="377" yMax="944">
      <contour>
        <pt x="75" y="750" on="1"/>
        <pt x="118" y="750" on="1"/>
        <pt x="215" y="750" on="0"/>
        <pt x="362" y="607" on="0"/>
        <pt x="362" y="414" on="0"/>
        <pt x="212" y="272" on="0"/>
        <pt x="126" y="272" on="1"/>
        <pt x="119" y="272" on="1"/>
        <pt x="377" y="0" on="1"/>
        <pt x="334" y="0" on="1"/>
        <pt x="107" y="238" on="1"/>
        <pt x="107" y="0" on="1"/>
        <pt x="75" y="0" on="1"/>
      </contour>
      <contour>
        <pt x="107" y="301" on="1"/>
        <pt x="125" y="301" on="1"/>
        <pt x="206" y="301" on="0"/>
        <pt x="330" y="425" on="0"/>
        <pt x="330" y="595" on="0"/>
        <pt x="202" y="721" on="0"/>
        <pt x="120" y="721" on="1"/>
        <pt x="107" y="721" on="1"/>
      </contour>
      <contour>
        <pt x="225" y="944" on="1"/>
        <pt x="266" y="944" on="1"/>
        <pt x="127" y="829" on="1"/>
        <pt x="85" y="829" on="1"/>
      </contour>
    </TTGlyph>
    <TTGlyph name="Rcaron" xMin="39" yMin="0" xMax="377" yMax="944">
      <contour>
        <pt x="75" y="750" on="1"/>
        <pt x="118" y="750" on="1"/>
        <pt x="215" y="750" on="0"/>
        <pt x="362" y="607" on="0"/>
        <pt x="362" y="414" on="0"/>
        <pt x="212" y="272" on="0"/>
        <pt x="126" y="272" on="1"/>
        <pt x="119" y="272" on="1"/>
        <pt x="377" y="0" on="1"/>
        <pt x="334" y="0" on="1"/>
        <pt x="107" y="238" on="1"/>
        <pt x="107" y="0" on="1"/>
        <pt x="75" y="0" on="1"/>
      </contour>
      <contour>
        <pt x="107" y="301" on="1"/>
        <pt x="125" y="301" on="1"/>
        <pt x="206" y="301" on="0"/>
        <pt x="330" y="425" on="0"/>
        <pt x="330" y="595" on="0"/>
        <pt x="202" y="721" on="0"/>
        <pt x="120" y="721" on="1"/>
        <pt x="107" y="721" on="1"/>
      </contour>
      <contour>
        <pt x="335" y="944" on="1"/>
        <pt x="203" y="829" on="1"/>
        <pt x="173" y="829" on="1"/>
        <pt x="39" y="944" on="1"/>
        <pt x="81" y="944" on="1"/>
        <pt x="187" y="853" on="1"/>
        <pt x="294" y="944" on="1"/>
      </contour>
    </TTGlyph>
    <TTGlyph name="S" xMin="40" yMin="-14" xMax="458" yMax="763">
      <contour>
        <pt x="354" y="686" on="0"/>
        <pt x="275" y="734" on="0"/>
        <pt x="177" y="734" on="0"/>
        <pt x="108" y="673" on="0"/>
        <pt x="108" y="620" on="1"/>
        <pt x="108" y="615" on="1"/>
        <pt x="108" y="552" on="0"/>
        <pt x="178" y="500" on="1"/>
        <pt x="208" y="478" on="0"/>
        <pt x="283" y="435" on="0"/>
        <pt x="358" y="386" on="0"/>
        <pt x="419" y="331" on="0"/>
        <pt x="458" y="251" on="0"/>
        <pt x="458" y="203" on="1"/>
        <pt x="458" y="193" on="1"/>
        <pt x="458" y="98" on="0"/>
        <pt x="329" y="-14" on="0"/>
        <pt x="234" y="-14" on="1"/>
        <pt x="109" y="-14" on="0"/>
        <pt x="40" y="89" on="1"/>
        <pt x="40" y="143" on="1"/>
        <pt x="66" y="86" on="0"/>
        <pt x="167" y="15" on="0"/>
        <pt x="317" y="15" on="0"/>
        <pt x="427" y="111" on="0"/>
        <pt x="427" y="191" on="1"/>
        <pt x="427" y="197" on="1"/>
        <pt x="427" y="247" on="0"/>
        <pt x="375" y="330" on="0"/>
        <pt x="297" y="383" on="0"/>
        <pt x="205" y="441" on="0"/>
        <pt x="127" y="491" on="0"/>
        <pt x="75" y="567" on="0"/>
        <pt x="75" y="612" on="1"/>
        <pt x="75" y="619" on="1"/>
        <pt x="75" y="689" on="0"/>
        <pt x="165" y="763" on="0"/>
        <pt x="231" y="763" on="1"/>
        <pt x="323" y="763" on="0"/>
        <pt x="377" y="695" on="1"/>
        <pt x="377" y="644" on="1"/>
      </contour>
    </TTGlyph>
    <TTGlyph name="Sacute" xMin="40" yMin="-14" xMax="458" yMax="944">
      <contour>
        <pt x="354" y="686" on="0"/>
        <pt x="275" y="734" on="0"/>
        <pt x="177" y="734" on="0"/>
        <pt x="108" y="673" on="0"/>
        <pt x="108" y="620" on="1"/>
        <pt x="108" y="615" on="1"/>
        <pt x="108" y="552" on="0"/>
        <pt x="178" y="500" on="1"/>
        <pt x="208" y="478" on="0"/>
        <pt x="283" y="435" on="0"/>
        <pt x="358" y="386" on="0"/>
        <pt x="419" y="331" on="0"/>
        <pt x="458" y="251" on="0"/>
        <pt x="458" y="203" on="1"/>
        <pt x="458" y="193" on="1"/>
        <pt x="458" y="98" on="0"/>
        <pt x="329" y="-14" on="0"/>
        <pt x="234" y="-14" on="1"/>
        <pt x="109" y="-14" on="0"/>
        <pt x="40" y="89" on="1"/>
        <pt x="40" y="143" on="1"/>
        <pt x="66" y="86" on="0"/>
        <pt x="167" y="15" on="0"/>
        <pt x="317" y="15" on="0"/>
        <pt x="427" y="111" on="0"/>
        <pt x="427" y="191" on="1"/>
        <pt x="427" y="197" on="1"/>
        <pt x="427" y="247" on="0"/>
        <pt x="375" y="330" on="0"/>
        <pt x="297" y="383" on="0"/>
        <pt x="205" y="441" on="0"/>
        <pt x="127" y="491" on="0"/>
        <pt x="75" y="567" on="0"/>
        <pt x="75" y="612" on="1"/>
        <pt x="75" y="619" on="1"/>
        <pt x="75" y="689" on="0"/>
        <pt x="165" y="763" on="0"/>
        <pt x="231" y="763" on="1"/>
        <pt x="323" y="763" on="0"/>
        <pt x="377" y="695" on="1"/>
        <pt x="377" y="644" on="1"/>
      </contour>
      <contour>
        <pt x="298" y="944" on="1"/>
        <pt x="339" y="944" on="1"/>
        <pt x="200" y="829" on="1"/>
        <pt x="158" y="829" on="1"/>
      </contour>
    </TTGlyph>
    <TTGlyph name="Scaron" xMin="50" yMin="-14" xMax="468" yMax="944">
      <contour>
        <pt x="364" y="686" on="0"/>
        <pt x="285" y="734" on="0"/>
        <pt x="187" y="734" on="0"/>
        <pt x="118" y="673" on="0"/>
        <pt x="118" y="620" on="1"/>
        <pt x="118" y="615" on="1"/>
        <pt x="118" y="552" on="0"/>
        <pt x="188" y="500" on="1"/>
        <pt x="218" y="478" on="0"/>
        <pt x="293" y="435" on="0"/>
        <pt x="368" y="386" on="0"/>
        <pt x="429" y="331" on="0"/>
        <pt x="468" y="251" on="0"/>
        <pt x="468" y="203" on="1"/>
        <pt x="468" y="193" on="1"/>
        <pt x="468" y="98" on="0"/>
        <pt x="339" y="-14" on="0"/>
        <pt x="244" y="-14" on="1"/>
        <pt x="119" y="-14" on="0"/>
        <pt x="50" y="89" on="1"/>
        <pt x="50" y="143" on="1"/>
        <pt x="76" y="86" on="0"/>
        <pt x="177" y="15" on="0"/>
        <pt x="327" y="15" on="0"/>
        <pt x="437" y="111" on="0"/>
        <pt x="437" y="191" on="1"/>
        <pt x="437" y="197" on="1"/>
        <pt x="437" y="247" on="0"/>
        <pt x="385" y="330" on="0"/>
        <pt x="307" y="383" on="0"/>
        <pt x="215" y="441" on="0"/>
        <pt x="137" y="491" on="0"/>
        <pt x="85" y="567" on="0"/>
        <pt x="85" y="612" on="1"/>
        <pt x="85" y="619" on="1"/>
        <pt x="85" y="689" on="0"/>
        <pt x="175" y="763" on="0"/>
        <pt x="241" y="763" on="1"/>
        <pt x="333" y="763" on="0"/>
        <pt x="387" y="695" on="1"/>
        <pt x="387" y="644" on="1"/>
      </contour>
      <contour>
        <pt x="407" y="944" on="1"/>
        <pt x="275" y="829" on="1"/>
        <pt x="245" y="829" on="1"/>
        <pt x="111" y="944" on="1"/>
        <pt x="153" y="944" on="1"/>
        <pt x="259" y="853" on="1"/>
        <pt x="366" y="944" on="1"/>
      </contour>
    </TTGlyph>
    <TTGlyph name="Scedilla" xMin="40" yMin="-200" xMax="458" yMax="763">
      <contour>
        <pt x="209" y="-75" on="1"/>
        <pt x="209" y="-13" on="1"/>
        <pt x="99" y="-3" on="0"/>
        <pt x="40" y="89" on="1"/>
        <pt x="40" y="143" on="1"/>
        <pt x="66" y="86" on="0"/>
        <pt x="167" y="15" on="0"/>
        <pt x="317" y="15" on="0"/>
        <pt x="427" y="111" on="0"/>
        <pt x="427" y="191" on="1"/>
        <pt x="427" y="197" on="1"/>
        <pt x="427" y="247" on="0"/>
        <pt x="375" y="330" on="0"/>
        <pt x="297" y="383" on="0"/>
        <pt x="205" y="441" on="0"/>
        <pt x="127" y="491" on="0"/>
        <pt x="75" y="567" on="0"/>
        <pt x="75" y="612" on="1"/>
        <pt x="75" y="619" on="1"/>
        <pt x="75" y="689" on="0"/>
        <pt x="165" y="763" on="0"/>
        <pt x="231" y="763" on="1"/>
        <pt x="323" y="763" on="0"/>
        <pt x="377" y="695" on="1"/>
        <pt x="377" y="644" on="1"/>
        <pt x="354" y="686" on="0"/>
        <pt x="275" y="734" on="0"/>
        <pt x="177" y="734" on="0"/>
        <pt x="108" y="673" on="0"/>
        <pt x="108" y="620" on="1"/>
        <pt x="108" y="615" on="1"/>
        <pt x="108" y="552" on="0"/>
        <pt x="178" y="500" on="1"/>
        <pt x="208" y="478" on="0"/>
        <pt x="283" y="435" on="0"/>
        <pt x="358" y="386" on="0"/>
        <pt x="419" y="331" on="0"/>
        <pt x="458" y="251" on="0"/>
        <pt x="458" y="203" on="1"/>
        <pt x="458" y="193" on="1"/>
        <pt x="458" y="98" on="0"/>
        <pt x="329" y="-14" on="0"/>
        <pt x="234" y="-14" on="1"/>
        <pt x="234" y="-49" on="1"/>
        <pt x="244" y="-49" on="1"/>
        <pt x="276" y="-49" on="0"/>
        <pt x="321" y="-93" on="0"/>
        <pt x="321" y="-123" on="1"/>
        <pt x="321" y="-127" on="1"/>
        <pt x="321" y="-157" on="0"/>
        <pt x="277" y="-200" on="0"/>
        <pt x="244" y="-200" on="1"/>
        <pt x="209" y="-200" on="1"/>
        <pt x="209" y="-175" on="1"/>
        <pt x="244" y="-175" on="1"/>
        <pt x="267" y="-175" on="0"/>
        <pt x="297" y="-146" on="0"/>
        <pt x="297" y="-104" on="0"/>
        <pt x="267" y="-75" on="0"/>
        <pt x="244" y="-75" on="1"/>
      </contour>
    </TTGlyph>
    <TTGlyph name="Scircumflex" xMin="40" yMin="-14" xMax="458" yMax="944">
      <contour>
        <pt x="354" y="686" on="0"/>
        <pt x="275" y="734" on="0"/>
        <pt x="177" y="734" on="0"/>
        <pt x="108" y="673" on="0"/>
        <pt x="108" y="620" on="1"/>
        <pt x="108" y="615" on="1"/>
        <pt x="108" y="552" on="0"/>
        <pt x="178" y="500" on="1"/>
        <pt x="208" y="478" on="0"/>
        <pt x="283" y="435" on="0"/>
        <pt x="358" y="386" on="0"/>
        <pt x="419" y="331" on="0"/>
        <pt x="458" y="251" on="0"/>
        <pt x="458" y="203" on="1"/>
        <pt x="458" y="193" on="1"/>
        <pt x="458" y="98" on="0"/>
        <pt x="329" y="-14" on="0"/>
        <pt x="234" y="-14" on="1"/>
        <pt x="109" y="-14" on="0"/>
        <pt x="40" y="89" on="1"/>
        <pt x="40" y="143" on="1"/>
        <pt x="66" y="86" on="0"/>
        <pt x="167" y="15" on="0"/>
        <pt x="317" y="15" on="0"/>
        <pt x="427" y="111" on="0"/>
        <pt x="427" y="191" on="1"/>
        <pt x="427" y="197" on="1"/>
        <pt x="427" y="247" on="0"/>
        <pt x="375" y="330" on="0"/>
        <pt x="297" y="383" on="0"/>
        <pt x="205" y="441" on="0"/>
        <pt x="127" y="491" on="0"/>
        <pt x="75" y="567" on="0"/>
        <pt x="75" y="612" on="1"/>
        <pt x="75" y="619" on="1"/>
        <pt x="75" y="689" on="0"/>
        <pt x="165" y="763" on="0"/>
        <pt x="231" y="763" on="1"/>
        <pt x="323" y="763" on="0"/>
        <pt x="377" y="695" on="1"/>
        <pt x="377" y="644" on="1"/>
      </contour>
      <contour>
        <pt x="265" y="944" on="1"/>
        <pt x="397" y="829" on="1"/>
        <pt x="356" y="829" on="1"/>
        <pt x="249" y="920" on="1"/>
        <pt x="143" y="829" on="1"/>
        <pt x="101" y="829" on="1"/>
        <pt x="235" y="944" on="1"/>
      </contour>
    </TTGlyph>
    <TTGlyph name="T" xMin="20" yMin="0" xMax="397" yMax="750">
      <contour>
        <pt x="397" y="750" on="1"/>
        <pt x="397" y="721" on="1"/>
        <pt x="226" y="721" on="1"/>
        <pt x="226" y="0" on="1"/>
        <pt x="193" y="0" on="1"/>
        <pt x="193" y="721" on="1"/>
        <pt x="20" y="721" on="1"/>
        <pt x="20" y="750" on="1"/>
      </contour>
    </TTGlyph>
    <TTGlyph name="Tbar" xMin="20" yMin="0" xMax="397" yMax="750">
      <contour>
        <pt x="397" y="750" on="1"/>
        <pt x="397" y="721" on="1"/>
        <pt x="226" y="721" on="1"/>
        <pt x="226" y="304" on="1"/>
        <pt x="344" y="304" on="1"/>
        <pt x="344" y="275" on="1"/>
        <pt x="226" y="275" on="1"/>
        <pt x="226" y="0" on="1"/>
        <pt x="193" y="0" on="1"/>
        <pt x="193" y="275" on="1"/>
        <pt x="75" y="275" on="1"/>
        <pt x="75" y="304" on="1"/>
        <pt x="193" y="304" on="1"/>
        <pt x="193" y="721" on="1"/>
        <pt x="20" y="721" on="1"/>
        <pt x="20" y="750" on="1"/>
      </contour>
    </TTGlyph>
    <TTGlyph name="Tcaron" xMin="20" yMin="0" xMax="397" yMax="944">
      <contour>
        <pt x="397" y="750" on="1"/>
        <pt x="397" y="721" on="1"/>
        <pt x="226" y="721" on="1"/>
        <pt x="226" y="0" on="1"/>
        <pt x="193" y="0" on="1"/>
        <pt x="193" y="721" on="1"/>
        <pt x="20" y="721" on="1"/>
        <pt x="20" y="750" on="1"/>
      </contour>
      <contour>
        <pt x="356" y="944" on="1"/>
        <pt x="224" y="829" on="1"/>
        <pt x="194" y="829" on="1"/>
        <pt x="60" y="944" on="1"/>
        <pt x="102" y="944" on="1"/>
        <pt x="208" y="853" on="1"/>
        <pt x="315" y="944" on="1"/>
      </contour>
    </TTGlyph>
    <TTGlyph name="Thorn" xMin="75" yMin="0" xMax="360" yMax="749">
      <contour>
        <pt x="75" y="0" on="1"/>
        <pt x="75" y="749" on="1"/>
        <pt x="107" y="749" on="1"/>
        <pt x="107" y="631" on="1"/>
        <pt x="116" y="631" on="1"/>
        <pt x="213" y="631" on="0"/>
        <pt x="360" y="488" on="0"/>
        <pt x="360" y="294" on="0"/>
        <pt x="208" y="153" on="0"/>
        <pt x="116" y="153" on="1"/>
        <pt x="107" y="153" on="1"/>
        <pt x="107" y="0" on="1"/>
      </contour>
      <contour>
        <pt x="107" y="602" on="1"/>
        <pt x="107" y="182" on="1"/>
        <pt x="116" y="182" on="1"/>
        <pt x="200" y="182" on="0"/>
        <pt x="328" y="304" on="0"/>
        <pt x="328" y="476" on="0"/>
        <pt x="200" y="602" on="0"/>
        <pt x="116" y="602" on="1"/>
      </contour>
    </TTGlyph>
    <TTGlyph name="U" xMin="75" yMin="-14" xMax="522" yMax="750">
      <contour>
        <pt x="304" y="-14" on="1"/>
        <pt x="294" y="-14" on="1"/>
        <pt x="202" y="-14" on="0"/>
        <pt x="75" y="114" on="0"/>
        <pt x="75" y="211" on="1"/>
        <pt x="75" y="750" on="1"/>
        <pt x="108" y="750" on="1"/>
        <pt x="108" y="212" on="1"/>
        <pt x="108" y="127" on="0"/>
        <pt x="218" y="15" on="0"/>
        <pt x="380" y="15" on="0"/>
        <pt x="489" y="126" on="0"/>
        <pt x="489" y="212" on="1"/>
        <pt x="489" y="750" on="1"/>
        <pt x="522" y="750" on="1"/>
        <pt x="522" y="213" on="1"/>
        <pt x="522" y="115" on="0"/>
        <pt x="395" y="-14" on="0"/>
      </contour>
    </TTGlyph>
    <TTGlyph name="Uacute" xMin="85" yMin="-14" xMax="532" yMax="944">
      <contour>
        <pt x="314" y="-14" on="1"/>
        <pt x="304" y="-14" on="1"/>
        <pt x="212" y="-14" on="0"/>
        <pt x="85" y="114" on="0"/>
        <pt x="85" y="211" on="1"/>
        <pt x="85" y="750" on="1"/>
        <pt x="118" y="750" on="1"/>
        <pt x="118" y="212" on="1"/>
        <pt x="118" y="127" on="0"/>
        <pt x="228" y="15" on="0"/>
        <pt x="390" y="15" on="0"/>
        <pt x="499" y="126" on="0"/>
        <pt x="499" y="212" on="1"/>
        <pt x="499" y="750" on="1"/>
        <pt x="532" y="750" on="1"/>
        <pt x="532" y="213" on="1"/>
        <pt x="532" y="115" on="0"/>
        <pt x="405" y="-14" on="0"/>
      </contour>
      <contour>
        <pt x="358" y="944" on="1"/>
        <pt x="399" y="944" on="1"/>
        <pt x="260" y="829" on="1"/>
        <pt x="218" y="829" on="1"/>
      </contour>
    </TTGlyph>
    <TTGlyph name="Ubreve" xMin="75" yMin="-14" xMax="522" yMax="944">
      <contour>
        <pt x="304" y="-14" on="1"/>
        <pt x="294" y="-14" on="1"/>
        <pt x="202" y="-14" on="0"/>
        <pt x="75" y="114" on="0"/>
        <pt x="75" y="211" on="1"/>
        <pt x="75" y="750" on="1"/>
        <pt x="108" y="750" on="1"/>
        <pt x="108" y="212" on="1"/>
        <pt x="108" y="127" on="0"/>
        <pt x="218" y="15" on="0"/>
        <pt x="380" y="15" on="0"/>
        <pt x="489" y="126" on="0"/>
        <pt x="489" y="212" on="1"/>
        <pt x="489" y="750" on="1"/>
        <pt x="522" y="750" on="1"/>
        <pt x="522" y="213" on="1"/>
        <pt x="522" y="115" on="0"/>
        <pt x="395" y="-14" on="0"/>
      </contour>
      <contour>
        <pt x="204" y="908" on="0"/>
        <pt x="262" y="853" on="0"/>
        <pt x="333" y="853" on="0"/>
        <pt x="390" y="908" on="0"/>
        <pt x="394" y="944" on="1"/>
        <pt x="423" y="944" on="1"/>
        <pt x="421" y="897" on="0"/>
        <pt x="350" y="828" on="0"/>
        <pt x="302" y="828" on="1"/>
        <pt x="294" y="828" on="1"/>
        <pt x="246" y="828" on="0"/>
        <pt x="176" y="896" on="0"/>
        <pt x="174" y="944" on="1"/>
        <pt x="202" y="944" on="1"/>
      </contour>
    </TTGlyph>
    <TTGlyph name="Ucircumflex" xMin="85" yMin="-14" xMax="532" yMax="944">
      <contour>
        <pt x="314" y="-14" on="1"/>
        <pt x="304" y="-14" on="1"/>
        <pt x="212" y="-14" on="0"/>
        <pt x="85" y="114" on="0"/>
        <pt x="85" y="211" on="1"/>
        <pt x="85" y="750" on="1"/>
        <pt x="118" y="750" on="1"/>
        <pt x="118" y="212" on="1"/>
        <pt x="118" y="127" on="0"/>
        <pt x="228" y="15" on="0"/>
        <pt x="390" y="15" on="0"/>
        <pt x="499" y="126" on="0"/>
        <pt x="499" y="212" on="1"/>
        <pt x="499" y="750" on="1"/>
        <pt x="532" y="750" on="1"/>
        <pt x="532" y="213" on="1"/>
        <pt x="532" y="115" on="0"/>
        <pt x="405" y="-14" on="0"/>
      </contour>
      <contour>
        <pt x="324" y="944" on="1"/>
        <pt x="456" y="829" on="1"/>
        <pt x="415" y="829" on="1"/>
        <pt x="308" y="920" on="1"/>
        <pt x="202" y="829" on="1"/>
        <pt x="160" y="829" on="1"/>
        <pt x="294" y="944" on="1"/>
      </contour>
    </TTGlyph>
    <TTGlyph name="Udieresis" xMin="85" yMin="-14" xMax="532" yMax="912">
      <contour>
        <pt x="314" y="-14" on="1"/>
        <pt x="304" y="-14" on="1"/>
        <pt x="212" y="-14" on="0"/>
        <pt x="85" y="114" on="0"/>
        <pt x="85" y="211" on="1"/>
        <pt x="85" y="750" on="1"/>
        <pt x="118" y="750" on="1"/>
        <pt x="118" y="212" on="1"/>
        <pt x="118" y="127" on="0"/>
        <pt x="228" y="15" on="0"/>
        <pt x="390" y="15" on="0"/>
        <pt x="499" y="126" on="0"/>
        <pt x="499" y="212" on="1"/>
        <pt x="499" y="750" on="1"/>
        <pt x="532" y="750" on="1"/>
        <pt x="532" y="213" on="1"/>
        <pt x="532" y="115" on="0"/>
        <pt x="405" y="-14" on="0"/>
      </contour>
      <contour>
        <pt x="227" y="858" on="0"/>
        <pt x="227" y="912" on="0"/>
        <pt x="285" y="912" on="0"/>
        <pt x="285" y="858" on="0"/>
      </contour>
      <contour>
        <pt x="334" y="858" on="0"/>
        <pt x="334" y="912" on="0"/>
        <pt x="389" y="912" on="0"/>
        <pt x="389" y="858" on="0"/>
      </contour>
    </TTGlyph>
    <TTGlyph name="Ugrave" xMin="85" yMin="-14" xMax="532" yMax="944">
      <contour>
        <pt x="314" y="-14" on="1"/>
        <pt x="304" y="-14" on="1"/>
        <pt x="212" y="-14" on="0"/>
        <pt x="85" y="114" on="0"/>
        <pt x="85" y="211" on="1"/>
        <pt x="85" y="750" on="1"/>
        <pt x="118" y="750" on="1"/>
        <pt x="118" y="212" on="1"/>
        <pt x="118" y="127" on="0"/>
        <pt x="228" y="15" on="0"/>
        <pt x="390" y="15" on="0"/>
        <pt x="499" y="126" on="0"/>
        <pt x="499" y="212" on="1"/>
        <pt x="499" y="750" on="1"/>
        <pt x="532" y="750" on="1"/>
        <pt x="532" y="213" on="1"/>
        <pt x="532" y="115" on="0"/>
        <pt x="405" y="-14" on="0"/>
      </contour>
      <contour>
        <pt x="218" y="944" on="1"/>
        <pt x="259" y="944" on="1"/>
        <pt x="399" y="829" on="1"/>
        <pt x="357" y="829" on="1"/>
      </contour>
    </TTGlyph>
    <TTGlyph name="Uhungarumlaut" xMin="75" yMin="-14" xMax="522" yMax="944">
      <contour>
        <pt x="304" y="-14" on="1"/>
        <pt x="294" y="-14" on="1"/>
        <pt x="202" y="-14" on="0"/>
        <pt x="75" y="114" on="0"/>
        <pt x="75" y="211" on="1"/>
        <pt x="75" y="750" on="1"/>
        <pt x="108" y="750" on="1"/>
        <pt x="108" y="212" on="1"/>
        <pt x="108" y="127" on="0"/>
        <pt x="218" y="15" on="0"/>
        <pt x="380" y="15" on="0"/>
        <pt x="489" y="126" on="0"/>
        <pt x="489" y="212" on="1"/>
        <pt x="489" y="750" on="1"/>
        <pt x="522" y="750" on="1"/>
        <pt x="522" y="213" on="1"/>
        <pt x="522" y="115" on="0"/>
        <pt x="395" y="-14" on="0"/>
      </contour>
      <contour>
        <pt x="287" y="944" on="1"/>
        <pt x="328" y="944" on="1"/>
        <pt x="189" y="829" on="1"/>
        <pt x="147" y="829" on="1"/>
      </contour>
      <contour>
        <pt x="409" y="944" on="1"/>
        <pt x="450" y="944" on="1"/>
        <pt x="311" y="829" on="1"/>
        <pt x="269" y="829" on="1"/>
      </contour>
    </TTGlyph>
    <TTGlyph name="Umacron" xMin="75" yMin="-14" xMax="522" yMax="894">
      <contour>
        <pt x="304" y="-14" on="1"/>
        <pt x="294" y="-14" on="1"/>
        <pt x="202" y="-14" on="0"/>
        <pt x="75" y="114" on="0"/>
        <pt x="75" y="211" on="1"/>
        <pt x="75" y="750" on="1"/>
        <pt x="108" y="750" on="1"/>
        <pt x="108" y="212" on="1"/>
        <pt x="108" y="127" on="0"/>
        <pt x="218" y="15" on="0"/>
        <pt x="380" y="15" on="0"/>
        <pt x="489" y="126" on="0"/>
        <pt x="489" y="212" on="1"/>
        <pt x="489" y="750" on="1"/>
        <pt x="522" y="750" on="1"/>
        <pt x="522" y="213" on="1"/>
        <pt x="522" y="115" on="0"/>
        <pt x="395" y="-14" on="0"/>
      </contour>
      <contour>
        <pt x="397" y="866" on="1"/>
        <pt x="200" y="866" on="1"/>
        <pt x="200" y="894" on="1"/>
        <pt x="397" y="894" on="1"/>
      </contour>
    </TTGlyph>
    <TTGlyph name="Uogonek" xMin="75" yMin="-200" xMax="522" yMax="750">
      <contour>
        <pt x="522" y="750" on="1"/>
        <pt x="522" y="213" on="1"/>
        <pt x="522" y="122" on="0"/>
        <pt x="410" y="-5" on="0"/>
        <pt x="327" y="-13" on="1"/>
        <pt x="249" y="-125" on="1"/>
        <pt x="249" y="-146" on="0"/>
        <pt x="276" y="-175" on="0"/>
        <pt x="299" y="-175" on="1"/>
        <pt x="337" y="-175" on="1"/>
        <pt x="337" y="-200" on="1"/>
        <pt x="297" y="-200" on="1"/>
        <pt x="264" y="-200" on="0"/>
        <pt x="222" y="-160" on="0"/>
        <pt x="222" y="-130" on="1"/>
        <pt x="222" y="-123" on="1"/>
        <pt x="298" y="-14" on="1"/>
        <pt x="294" y="-14" on="1"/>
        <pt x="202" y="-14" on="0"/>
        <pt x="75" y="114" on="0"/>
        <pt x="75" y="211" on="1"/>
        <pt x="75" y="750" on="1"/>
        <pt x="108" y="750" on="1"/>
        <pt x="108" y="212" on="1"/>
        <pt x="108" y="127" on="0"/>
        <pt x="218" y="15" on="0"/>
        <pt x="380" y="15" on="0"/>
        <pt x="489" y="126" on="0"/>
        <pt x="489" y="212" on="1"/>
        <pt x="489" y="750" on="1"/>
      </contour>
    </TTGlyph>
    <TTGlyph name="Uring" xMin="75" yMin="-14" xMax="522" yMax="962">
      <contour>
        <pt x="304" y="-14" on="1"/>
        <pt x="294" y="-14" on="1"/>
        <pt x="202" y="-14" on="0"/>
        <pt x="75" y="114" on="0"/>
        <pt x="75" y="211" on="1"/>
        <pt x="75" y="750" on="1"/>
        <pt x="108" y="750" on="1"/>
        <pt x="108" y="212" on="1"/>
        <pt x="108" y="127" on="0"/>
        <pt x="218" y="15" on="0"/>
        <pt x="380" y="15" on="0"/>
        <pt x="489" y="126" on="0"/>
        <pt x="489" y="212" on="1"/>
        <pt x="489" y="750" on="1"/>
        <pt x="522" y="750" on="1"/>
        <pt x="522" y="213" on="1"/>
        <pt x="522" y="115" on="0"/>
        <pt x="395" y="-14" on="0"/>
      </contour>
      <contour>
        <pt x="300" y="812" on="1"/>
        <pt x="296" y="812" on="1"/>
        <pt x="266" y="812" on="0"/>
        <pt x="223" y="857" on="0"/>
        <pt x="223" y="918" on="0"/>
        <pt x="267" y="962" on="0"/>
        <pt x="330" y="962" on="0"/>
        <pt x="374" y="918" on="0"/>
        <pt x="374" y="857" on="0"/>
        <pt x="330" y="812" on="0"/>
      </contour>
      <contour>
        <pt x="348" y="908" on="0"/>
        <pt x="319" y="938" on="0"/>
        <pt x="278" y="938" on="0"/>
        <pt x="248" y="907" on="0"/>
        <pt x="248" y="867" on="0"/>
        <pt x="278" y="836" on="0"/>
        <pt x="319" y="836" on="0"/>
        <pt x="348" y="866" on="0"/>
      </contour>
    </TTGlyph>
    <TTGlyph name="Utilde" xMin="75" yMin="-14" xMax="522" yMax="928">
      <contour>
        <pt x="304" y="-14" on="1"/>
        <pt x="294" y="-14" on="1"/>
        <pt x="202" y="-14" on="0"/>
        <pt x="75" y="114" on="0"/>
        <pt x="75" y="211" on="1"/>
        <pt x="75" y="750" on="1"/>
        <pt x="108" y="750" on="1"/>
        <pt x="108" y="212" on="1"/>
        <pt x="108" y="127" on="0"/>
        <pt x="218" y="15" on="0"/>
        <pt x="380" y="15" on="0"/>
        <pt x="489" y="126" on="0"/>
        <pt x="489" y="212" on="1"/>
        <pt x="489" y="750" on="1"/>
        <pt x="522" y="750" on="1"/>
        <pt x="522" y="213" on="1"/>
        <pt x="522" y="115" on="0"/>
        <pt x="395" y="-14" on="0"/>
      </contour>
      <contour>
        <pt x="379" y="847" on="1"/>
        <pt x="350" y="847" on="0"/>
        <pt x="251" y="902" on="0"/>
        <pt x="191" y="901" on="0"/>
        <pt x="159" y="848" on="1"/>
        <pt x="128" y="848" on="1"/>
        <pt x="167" y="928" on="0"/>
        <pt x="223" y="928" on="1"/>
        <pt x="232" y="928" on="1"/>
        <pt x="262" y="928" on="0"/>
        <pt x="352" y="875" on="0"/>
        <pt x="407" y="875" on="0"/>
        <pt x="438" y="924" on="1"/>
        <pt x="469" y="924" on="1"/>
        <pt x="422" y="847" on="0"/>
      </contour>
    </TTGlyph>
    <TTGlyph name="V" xMin="20" yMin="-17" xMax="766" yMax="750">
      <contour>
        <pt x="393" y="-17" on="1"/>
        <pt x="20" y="750" on="1"/>
        <pt x="56" y="750" on="1"/>
        <pt x="396" y="55" on="1"/>
        <pt x="734" y="750" on="1"/>
        <pt x="766" y="750" on="1"/>
      </contour>
    </TTGlyph>
    <TTGlyph name="W" xMin="20" yMin="-13" xMax="1000" yMax="750">
      <contour>
        <pt x="349" y="-13" on="1"/>
        <pt x="20" y="750" on="1"/>
        <pt x="57" y="750" on="1"/>
        <pt x="354" y="63" on="1"/>
        <pt x="493" y="388" on="1"/>
        <pt x="338" y="750" on="1"/>
        <pt x="374" y="750" on="1"/>
        <pt x="513" y="421" on="1"/>
        <pt x="656" y="750" on="1"/>
        <pt x="684" y="750" on="1"/>
        <pt x="528" y="389" on="1"/>
        <pt x="670" y="60" on="1"/>
        <pt x="973" y="750" on="1"/>
        <pt x="1000" y="750" on="1"/>
        <pt x="667" y="-13" on="1"/>
        <pt x="508" y="353" on="1"/>
      </contour>
    </TTGlyph>
    <TTGlyph name="Wacute" xMin="20" yMin="-13" xMax="1000" yMax="944">
      <contour>
        <pt x="349" y="-13" on="1"/>
        <pt x="20" y="750" on="1"/>
        <pt x="57" y="750" on="1"/>
        <pt x="354" y="63" on="1"/>
        <pt x="493" y="388" on="1"/>
        <pt x="338" y="750" on="1"/>
        <pt x="374" y="750" on="1"/>
        <pt x="513" y="421" on="1"/>
        <pt x="656" y="750" on="1"/>
        <pt x="684" y="750" on="1"/>
        <pt x="528" y="389" on="1"/>
        <pt x="670" y="60" on="1"/>
        <pt x="973" y="750" on="1"/>
        <pt x="1000" y="750" on="1"/>
        <pt x="667" y="-13" on="1"/>
        <pt x="508" y="353" on="1"/>
      </contour>
      <contour>
        <pt x="561" y="944" on="1"/>
        <pt x="602" y="944" on="1"/>
        <pt x="463" y="829" on="1"/>
        <pt x="421" y="829" on="1"/>
      </contour>
    </TTGlyph>
    <TTGlyph name="Wcircumflex" xMin="20" yMin="-13" xMax="1000" yMax="944">
      <contour>
        <pt x="349" y="-13" on="1"/>
        <pt x="20" y="750" on="1"/>
        <pt x="57" y="750" on="1"/>
        <pt x="354" y="63" on="1"/>
        <pt x="493" y="388" on="1"/>
        <pt x="338" y="750" on="1"/>
        <pt x="374" y="750" on="1"/>
        <pt x="513" y="421" on="1"/>
        <pt x="656" y="750" on="1"/>
        <pt x="684" y="750" on="1"/>
        <pt x="528" y="389" on="1"/>
        <pt x="670" y="60" on="1"/>
        <pt x="973" y="750" on="1"/>
        <pt x="1000" y="750" on="1"/>
        <pt x="667" y="-13" on="1"/>
        <pt x="508" y="353" on="1"/>
      </contour>
      <contour>
        <pt x="527" y="944" on="1"/>
        <pt x="659" y="829" on="1"/>
        <pt x="618" y="829" on="1"/>
        <pt x="511" y="920" on="1"/>
        <pt x="405" y="829" on="1"/>
        <pt x="363" y="829" on="1"/>
        <pt x="497" y="944" on="1"/>
      </contour>
    </TTGlyph>
    <TTGlyph name="Wdieresis" xMin="20" yMin="-13" xMax="1000" yMax="912">
      <contour>
        <pt x="349" y="-13" on="1"/>
        <pt x="20" y="750" on="1"/>
        <pt x="57" y="750" on="1"/>
        <pt x="354" y="63" on="1"/>
        <pt x="493" y="388" on="1"/>
        <pt x="338" y="750" on="1"/>
        <pt x="374" y="750" on="1"/>
        <pt x="513" y="421" on="1"/>
        <pt x="656" y="750" on="1"/>
        <pt x="684" y="750" on="1"/>
        <pt x="528" y="389" on="1"/>
        <pt x="670" y="60" on="1"/>
        <pt x="973" y="750" on="1"/>
        <pt x="1000" y="750" on="1"/>
        <pt x="667" y="-13" on="1"/>
        <pt x="508" y="353" on="1"/>
      </contour>
      <contour>
        <pt x="430" y="858" on="0"/>
        <pt x="430" y="912" on="0"/>
        <pt x="488" y="912" on="0"/>
        <pt x="488" y="858" on="0"/>
      </contour>
      <contour>
        <pt x="537" y="858" on="0"/>
        <pt x="537" y="912" on="0"/>
        <pt x="592" y="912" on="0"/>
        <pt x="592" y="858" on="0"/>
      </contour>
    </TTGlyph>
    <TTGlyph name="Wgrave" xMin="20" yMin="-13" xMax="1000" yMax="944">
      <contour>
        <pt x="349" y="-13" on="1"/>
        <pt x="20" y="750" on="1"/>
        <pt x="57" y="750" on="1"/>
        <pt x="354" y="63" on="1"/>
        <pt x="493" y="388" on="1"/>
        <pt x="338" y="750" on="1"/>
        <pt x="374" y="750" on="1"/>
        <pt x="513" y="421" on="1"/>
        <pt x="656" y="750" on="1"/>
        <pt x="684" y="750" on="1"/>
        <pt x="528" y="389" on="1"/>
        <pt x="670" y="60" on="1"/>
        <pt x="973" y="750" on="1"/>
        <pt x="1000" y="750" on="1"/>
        <pt x="667" y="-13" on="1"/>
        <pt x="508" y="353" on="1"/>
      </contour>
      <contour>
        <pt x="421" y="944" on="1"/>
        <pt x="462" y="944" on="1"/>
        <pt x="602" y="829" on="1"/>
        <pt x="560" y="829" on="1"/>
      </contour>
    </TTGlyph>
    <TTGlyph name="X" xMin="20" yMin="0" xMax="463" yMax="750">
      <contour>
        <pt x="419" y="750" on="1"/>
        <pt x="258" y="420" on="1"/>
        <pt x="463" y="0" on="1"/>
        <pt x="426" y="0" on="1"/>
        <pt x="239" y="385" on="1"/>
        <pt x="51" y="0" on="1"/>
        <pt x="20" y="0" on="1"/>
        <pt x="223" y="419" on="1"/>
        <pt x="58" y="750" on="1"/>
        <pt x="96" y="750" on="1"/>
        <pt x="242" y="453" on="1"/>
        <pt x="387" y="750" on="1"/>
      </contour>
    </TTGlyph>
    <TTGlyph name="Y" xMin="20" yMin="0" xMax="504" yMax="750">
      <contour>
        <pt x="281" y="0" on="1"/>
        <pt x="248" y="0" on="1"/>
        <pt x="248" y="300" on="1"/>
        <pt x="20" y="750" on="1"/>
        <pt x="56" y="750" on="1"/>
        <pt x="267" y="335" on="1"/>
        <pt x="474" y="750" on="1"/>
        <pt x="504" y="750" on="1"/>
        <pt x="281" y="300" on="1"/>
      </contour>
    </TTGlyph>
    <TTGlyph name="Yacute" xMin="30" yMin="0" xMax="514" yMax="944">
      <contour>
        <pt x="291" y="0" on="1"/>
        <pt x="258" y="0" on="1"/>
        <pt x="258" y="300" on="1"/>
        <pt x="30" y="750" on="1"/>
        <pt x="66" y="750" on="1"/>
        <pt x="277" y="335" on="1"/>
        <pt x="484" y="750" on="1"/>
        <pt x="514" y="750" on="1"/>
        <pt x="291" y="300" on="1"/>
      </contour>
      <contour>
        <pt x="321" y="944" on="1"/>
        <pt x="362" y="944" on="1"/>
        <pt x="223" y="829" on="1"/>
        <pt x="181" y="829" on="1"/>
      </contour>
    </TTGlyph>
    <TTGlyph name="Ycircumflex" xMin="20" yMin="0" xMax="504" yMax="944">
      <contour>
        <pt x="281" y="0" on="1"/>
        <pt x="248" y="0" on="1"/>
        <pt x="248" y="300" on="1"/>
        <pt x="20" y="750" on="1"/>
        <pt x="56" y="750" on="1"/>
        <pt x="267" y="335" on="1"/>
        <pt x="474" y="750" on="1"/>
        <pt x="504" y="750" on="1"/>
        <pt x="281" y="300" on="1"/>
      </contour>
      <contour>
        <pt x="278" y="944" on="1"/>
        <pt x="410" y="829" on="1"/>
        <pt x="369" y="829" on="1"/>
        <pt x="262" y="920" on="1"/>
        <pt x="156" y="829" on="1"/>
        <pt x="114" y="829" on="1"/>
        <pt x="248" y="944" on="1"/>
      </contour>
    </TTGlyph>
    <TTGlyph name="Ydieresis" xMin="30" yMin="0" xMax="514" yMax="912">
      <contour>
        <pt x="291" y="0" on="1"/>
        <pt x="258" y="0" on="1"/>
        <pt x="258" y="300" on="1"/>
        <pt x="30" y="750" on="1"/>
        <pt x="66" y="750" on="1"/>
        <pt x="277" y="335" on="1"/>
        <pt x="484" y="750" on="1"/>
        <pt x="514" y="750" on="1"/>
        <pt x="291" y="300" on="1"/>
      </contour>
      <contour>
        <pt x="191" y="858" on="0"/>
        <pt x="191" y="912" on="0"/>
        <pt x="249" y="912" on="0"/>
        <pt x="249" y="858" on="0"/>
      </contour>
      <contour>
        <pt x="298" y="858" on="0"/>
        <pt x="298" y="912" on="0"/>
        <pt x="353" y="912" on="0"/>
        <pt x="353" y="858" on="0"/>
      </contour>
    </TTGlyph>
    <TTGlyph name="Ygrave" xMin="20" yMin="0" xMax="504" yMax="944">
      <contour>
        <pt x="281" y="0" on="1"/>
        <pt x="248" y="0" on="1"/>
        <pt x="248" y="300" on="1"/>
        <pt x="20" y="750" on="1"/>
        <pt x="56" y="750" on="1"/>
        <pt x="267" y="335" on="1"/>
        <pt x="474" y="750" on="1"/>
        <pt x="504" y="750" on="1"/>
        <pt x="281" y="300" on="1"/>
      </contour>
      <contour>
        <pt x="171" y="944" on="1"/>
        <pt x="212" y="944" on="1"/>
        <pt x="352" y="829" on="1"/>
        <pt x="310" y="829" on="1"/>
      </contour>
    </TTGlyph>
    <TTGlyph name="Z" xMin="25" yMin="0" xMax="405" yMax="750">
      <contour>
        <pt x="402" y="29" on="1"/>
        <pt x="402" y="0" on="1"/>
        <pt x="25" y="0" on="1"/>
        <pt x="355" y="721" on="1"/>
        <pt x="25" y="721" on="1"/>
        <pt x="25" y="750" on="1"/>
        <pt x="405" y="750" on="1"/>
        <pt x="74" y="29" on="1"/>
      </contour>
    </TTGlyph>
    <TTGlyph name="Zacute" xMin="25" yMin="0" xMax="405" yMax="944">
      <contour>
        <pt x="402" y="29" on="1"/>
        <pt x="402" y="0" on="1"/>
        <pt x="25" y="0" on="1"/>
        <pt x="355" y="721" on="1"/>
        <pt x="25" y="721" on="1"/>
        <pt x="25" y="750" on="1"/>
        <pt x="405" y="750" on="1"/>
        <pt x="74" y="29" on="1"/>
      </contour>
      <contour>
        <pt x="263" y="944" on="1"/>
        <pt x="304" y="944" on="1"/>
        <pt x="165" y="829" on="1"/>
        <pt x="123" y="829" on="1"/>
      </contour>
    </TTGlyph>
    <TTGlyph name="Zcaron" xMin="35" yMin="0" xMax="415" yMax="944">
      <contour>
        <pt x="412" y="29" on="1"/>
        <pt x="412" y="0" on="1"/>
        <pt x="35" y="0" on="1"/>
        <pt x="365" y="721" on="1"/>
        <pt x="35" y="721" on="1"/>
        <pt x="35" y="750" on="1"/>
        <pt x="415" y="750" on="1"/>
        <pt x="84" y="29" on="1"/>
      </contour>
      <contour>
        <pt x="371" y="944" on="1"/>
        <pt x="239" y="829" on="1"/>
        <pt x="209" y="829" on="1"/>
        <pt x="75" y="944" on="1"/>
        <pt x="117" y="944" on="1"/>
        <pt x="223" y="853" on="1"/>
        <pt x="330" y="944" on="1"/>
      </contour>
    </TTGlyph>
    <TTGlyph name="Zdotaccent" xMin="25" yMin="0" xMax="405" yMax="913">
      <contour>
        <pt x="402" y="29" on="1"/>
        <pt x="402" y="0" on="1"/>
        <pt x="25" y="0" on="1"/>
        <pt x="355" y="721" on="1"/>
        <pt x="25" y="721" on="1"/>
        <pt x="25" y="750" on="1"/>
        <pt x="405" y="750" on="1"/>
        <pt x="74" y="29" on="1"/>
      </contour>
      <contour>
        <pt x="184" y="859" on="0"/>
        <pt x="184" y="913" on="0"/>
        <pt x="242" y="913" on="0"/>
        <pt x="242" y="859" on="0"/>
      </contour>
    </TTGlyph>
    <TTGlyph name="_1" xMin="15" yMin="-195" xMax="84" yMax="-77">
      <contour>
        <pt x="46" y="-195" on="1"/>
        <pt x="46" y="-139" on="1"/>
        <pt x="15" y="-139" on="0"/>
        <pt x="15" y="-77" on="0"/>
        <pt x="84" y="-77" on="0"/>
        <pt x="84" y="-108" on="1"/>
        <pt x="84" y="-115" on="0"/>
        <pt x="81" y="-124" on="1"/>
        <pt x="50" y="-195" on="1"/>
      </contour>
    </TTGlyph>
    <TTGlyph name="a" xMin="35" yMin="-11" xMax="509" yMax="461">
      <contour>
        <pt x="509" y="450" on="1"/>
        <pt x="509" y="0" on="1"/>
        <pt x="477" y="0" on="1"/>
        <pt x="477" y="112" on="1"/>
        <pt x="449" y="55" on="0"/>
        <pt x="337" y="-11" on="0"/>
        <pt x="273" y="-11" on="1"/>
        <pt x="175" y="-11" on="0"/>
        <pt x="35" y="128" on="0"/>
        <pt x="35" y="322" on="0"/>
        <pt x="175" y="461" on="0"/>
        <pt x="273" y="461" on="1"/>
        <pt x="337" y="461" on="0"/>
        <pt x="454" y="393" on="0"/>
        <pt x="477" y="337" on="1"/>
        <pt x="477" y="450" on="1"/>
      </contour>
      <contour>
        <pt x="67" y="140" on="0"/>
        <pt x="190" y="17" on="0"/>
        <pt x="359" y="17" on="0"/>
        <pt x="479" y="140" on="0"/>
        <pt x="479" y="309" on="0"/>
        <pt x="358" y="433" on="0"/>
        <pt x="190" y="433" on="0"/>
        <pt x="67" y="308" on="0"/>
      </contour>
    </TTGlyph>
    <TTGlyph name="aacute" xMin="45" yMin="-11" xMax="519" yMax="644">
      <contour>
        <pt x="519" y="450" on="1"/>
        <pt x="519" y="0" on="1"/>
        <pt x="487" y="0" on="1"/>
        <pt x="487" y="112" on="1"/>
        <pt x="459" y="55" on="0"/>
        <pt x="347" y="-11" on="0"/>
        <pt x="283" y="-11" on="1"/>
        <pt x="185" y="-11" on="0"/>
        <pt x="45" y="128" on="0"/>
        <pt x="45" y="322" on="0"/>
        <pt x="185" y="461" on="0"/>
        <pt x="283" y="461" on="1"/>
        <pt x="347" y="461" on="0"/>
        <pt x="464" y="393" on="0"/>
        <pt x="487" y="337" on="1"/>
        <pt x="487" y="450" on="1"/>
      </contour>
      <contour>
        <pt x="77" y="140" on="0"/>
        <pt x="200" y="17" on="0"/>
        <pt x="369" y="17" on="0"/>
        <pt x="489" y="140" on="0"/>
        <pt x="489" y="309" on="0"/>
        <pt x="368" y="433" on="0"/>
        <pt x="200" y="433" on="0"/>
        <pt x="77" y="308" on="0"/>
      </contour>
      <contour>
        <pt x="344" y="644" on="1"/>
        <pt x="385" y="644" on="1"/>
        <pt x="246" y="529" on="1"/>
        <pt x="204" y="529" on="1"/>
      </contour>
    </TTGlyph>
    <TTGlyph name="abreve" xMin="35" yMin="-11" xMax="509" yMax="644">
      <contour>
        <pt x="509" y="450" on="1"/>
        <pt x="509" y="0" on="1"/>
        <pt x="477" y="0" on="1"/>
        <pt x="477" y="112" on="1"/>
        <pt x="449" y="55" on="0"/>
        <pt x="337" y="-11" on="0"/>
        <pt x="273" y="-11" on="1"/>
        <pt x="175" y="-11" on="0"/>
        <pt x="35" y="128" on="0"/>
        <pt x="35" y="322" on="0"/>
        <pt x="175" y="461" on="0"/>
        <pt x="273" y="461" on="1"/>
        <pt x="337" y="461" on="0"/>
        <pt x="454" y="393" on="0"/>
        <pt x="477" y="337" on="1"/>
        <pt x="477" y="450" on="1"/>
      </contour>
      <contour>
        <pt x="67" y="140" on="0"/>
        <pt x="190" y="17" on="0"/>
        <pt x="359" y="17" on="0"/>
        <pt x="479" y="140" on="0"/>
        <pt x="479" y="309" on="0"/>
        <pt x="358" y="433" on="0"/>
        <pt x="190" y="433" on="0"/>
        <pt x="67" y="308" on="0"/>
      </contour>
      <contour>
        <pt x="190" y="608" on="0"/>
        <pt x="248" y="553" on="0"/>
        <pt x="319" y="553" on="0"/>
        <pt x="376" y="608" on="0"/>
        <pt x="380" y="644" on="1"/>
        <pt x="409" y="644" on="1"/>
        <pt x="407" y="597" on="0"/>
        <pt x="336" y="528" on="0"/>
        <pt x="288" y="528" on="1"/>
        <pt x="280" y="528" on="1"/>
        <pt x="232" y="528" on="0"/>
        <pt x="162" y="596" on="0"/>
        <pt x="160" y="644" on="1"/>
        <pt x="188" y="644" on="1"/>
      </contour>
    </TTGlyph>
    <TTGlyph name="acircumflex" xMin="45" yMin="-11" xMax="519" yMax="644">
      <contour>
        <pt x="519" y="450" on="1"/>
        <pt x="519" y="0" on="1"/>
        <pt x="487" y="0" on="1"/>
        <pt x="487" y="112" on="1"/>
        <pt x="459" y="55" on="0"/>
        <pt x="347" y="-11" on="0"/>
        <pt x="283" y="-11" on="1"/>
        <pt x="185" y="-11" on="0"/>
        <pt x="45" y="128" on="0"/>
        <pt x="45" y="322" on="0"/>
        <pt x="185" y="461" on="0"/>
        <pt x="283" y="461" on="1"/>
        <pt x="347" y="461" on="0"/>
        <pt x="464" y="393" on="0"/>
        <pt x="487" y="337" on="1"/>
        <pt x="487" y="450" on="1"/>
      </contour>
      <contour>
        <pt x="77" y="140" on="0"/>
        <pt x="200" y="17" on="0"/>
        <pt x="369" y="17" on="0"/>
        <pt x="489" y="140" on="0"/>
        <pt x="489" y="309" on="0"/>
        <pt x="368" y="433" on="0"/>
        <pt x="200" y="433" on="0"/>
        <pt x="77" y="308" on="0"/>
      </contour>
      <contour>
        <pt x="310" y="644" on="1"/>
        <pt x="442" y="529" on="1"/>
        <pt x="401" y="529" on="1"/>
        <pt x="294" y="620" on="1"/>
        <pt x="188" y="529" on="1"/>
        <pt x="146" y="529" on="1"/>
        <pt x="280" y="644" on="1"/>
      </contour>
    </TTGlyph>
    <TTGlyph name="acute" xMin="15" yMin="529" xMax="196" yMax="644">
      <contour>
        <pt x="155" y="644" on="1"/>
        <pt x="196" y="644" on="1"/>
        <pt x="57" y="529" on="1"/>
        <pt x="15" y="529" on="1"/>
      </contour>
    </TTGlyph>
    <TTGlyph name="adieresis" xMin="45" yMin="-11" xMax="519" yMax="612">
      <contour>
        <pt x="519" y="450" on="1"/>
        <pt x="519" y="0" on="1"/>
        <pt x="487" y="0" on="1"/>
        <pt x="487" y="112" on="1"/>
        <pt x="459" y="55" on="0"/>
        <pt x="347" y="-11" on="0"/>
        <pt x="283" y="-11" on="1"/>
        <pt x="185" y="-11" on="0"/>
        <pt x="45" y="128" on="0"/>
        <pt x="45" y="322" on="0"/>
        <pt x="185" y="461" on="0"/>
        <pt x="283" y="461" on="1"/>
        <pt x="347" y="461" on="0"/>
        <pt x="464" y="393" on="0"/>
        <pt x="487" y="337" on="1"/>
        <pt x="487" y="450" on="1"/>
      </contour>
      <contour>
        <pt x="77" y="140" on="0"/>
        <pt x="200" y="17" on="0"/>
        <pt x="369" y="17" on="0"/>
        <pt x="489" y="140" on="0"/>
        <pt x="489" y="309" on="0"/>
        <pt x="368" y="433" on="0"/>
        <pt x="200" y="433" on="0"/>
        <pt x="77" y="308" on="0"/>
      </contour>
      <contour>
        <pt x="213" y="558" on="0"/>
        <pt x="213" y="612" on="0"/>
        <pt x="271" y="612" on="0"/>
        <pt x="271" y="558" on="0"/>
      </contour>
      <contour>
        <pt x="320" y="558" on="0"/>
        <pt x="320" y="612" on="0"/>
        <pt x="375" y="612" on="0"/>
        <pt x="375" y="558" on="0"/>
      </contour>
    </TTGlyph>
    <TTGlyph name="ae" xMin="40" yMin="-11" xMax="897" yMax="461">
      <contour>
        <pt x="722" y="-11" on="1"/>
        <pt x="707" y="-11" on="1"/>
        <pt x="645" y="-11" on="0"/>
        <pt x="539" y="57" on="0"/>
        <pt x="508" y="112" on="1"/>
        <pt x="508" y="0" on="1"/>
        <pt x="482" y="0" on="1"/>
        <pt x="482" y="105" on="1"/>
        <pt x="450" y="51" on="0"/>
        <pt x="340" y="-11" on="0"/>
        <pt x="278" y="-11" on="1"/>
        <pt x="180" y="-11" on="0"/>
        <pt x="40" y="128" on="0"/>
        <pt x="40" y="322" on="0"/>
        <pt x="180" y="461" on="0"/>
        <pt x="278" y="461" on="1"/>
        <pt x="340" y="461" on="0"/>
        <pt x="450" y="399" on="0"/>
        <pt x="482" y="345" on="1"/>
        <pt x="482" y="450" on="1"/>
        <pt x="508" y="450" on="1"/>
        <pt x="508" y="339" on="1"/>
        <pt x="539" y="394" on="0"/>
        <pt x="649" y="461" on="0"/>
        <pt x="715" y="461" on="1"/>
        <pt x="823" y="461" on="0"/>
        <pt x="897" y="379" on="1"/>
        <pt x="583" y="69" on="1"/>
        <pt x="648" y="17" on="0"/>
        <pt x="768" y="17" on="0"/>
        <pt x="863" y="72" on="0"/>
        <pt x="894" y="118" on="1"/>
        <pt x="894" y="67" on="1"/>
        <pt x="823" y="-11" on="0"/>
      </contour>
      <contour>
        <pt x="72" y="140" on="0"/>
        <pt x="195" y="17" on="0"/>
        <pt x="364" y="17" on="0"/>
        <pt x="484" y="140" on="0"/>
        <pt x="484" y="309" on="0"/>
        <pt x="363" y="433" on="0"/>
        <pt x="195" y="433" on="0"/>
        <pt x="72" y="308" on="0"/>
      </contour>
      <contour>
        <pt x="631" y="433" on="0"/>
        <pt x="508" y="310" on="0"/>
        <pt x="508" y="151" on="0"/>
        <pt x="562" y="90" on="1"/>
        <pt x="853" y="379" on="1"/>
        <pt x="791" y="433" on="0"/>
      </contour>
    </TTGlyph>
    <TTGlyph name="aeacute" xMin="40" yMin="-11" xMax="897" yMax="644">
      <contour>
        <pt x="722" y="-11" on="1"/>
        <pt x="707" y="-11" on="1"/>
        <pt x="645" y="-11" on="0"/>
        <pt x="539" y="57" on="0"/>
        <pt x="508" y="112" on="1"/>
        <pt x="508" y="0" on="1"/>
        <pt x="482" y="0" on="1"/>
        <pt x="482" y="105" on="1"/>
        <pt x="450" y="51" on="0"/>
        <pt x="340" y="-11" on="0"/>
        <pt x="278" y="-11" on="1"/>
        <pt x="180" y="-11" on="0"/>
        <pt x="40" y="128" on="0"/>
        <pt x="40" y="322" on="0"/>
        <pt x="180" y="461" on="0"/>
        <pt x="278" y="461" on="1"/>
        <pt x="340" y="461" on="0"/>
        <pt x="450" y="399" on="0"/>
        <pt x="482" y="345" on="1"/>
        <pt x="482" y="450" on="1"/>
        <pt x="508" y="450" on="1"/>
        <pt x="508" y="339" on="1"/>
        <pt x="539" y="394" on="0"/>
        <pt x="649" y="461" on="0"/>
        <pt x="715" y="461" on="1"/>
        <pt x="823" y="461" on="0"/>
        <pt x="897" y="379" on="1"/>
        <pt x="583" y="69" on="1"/>
        <pt x="648" y="17" on="0"/>
        <pt x="768" y="17" on="0"/>
        <pt x="863" y="72" on="0"/>
        <pt x="894" y="118" on="1"/>
        <pt x="894" y="67" on="1"/>
        <pt x="823" y="-11" on="0"/>
      </contour>
      <contour>
        <pt x="72" y="140" on="0"/>
        <pt x="195" y="17" on="0"/>
        <pt x="364" y="17" on="0"/>
        <pt x="484" y="140" on="0"/>
        <pt x="484" y="309" on="0"/>
        <pt x="363" y="433" on="0"/>
        <pt x="195" y="433" on="0"/>
        <pt x="72" y="308" on="0"/>
      </contour>
      <contour>
        <pt x="631" y="433" on="0"/>
        <pt x="508" y="310" on="0"/>
        <pt x="508" y="151" on="0"/>
        <pt x="562" y="90" on="1"/>
        <pt x="853" y="379" on="1"/>
        <pt x="791" y="433" on="0"/>
      </contour>
      <contour>
        <pt x="515" y="644" on="1"/>
        <pt x="556" y="644" on="1"/>
        <pt x="417" y="529" on="1"/>
        <pt x="375" y="529" on="1"/>
      </contour>
    </TTGlyph>
    <TTGlyph name="agrave" xMin="45" yMin="-11" xMax="519" yMax="644">
      <contour>
        <pt x="519" y="450" on="1"/>
        <pt x="519" y="0" on="1"/>
        <pt x="487" y="0" on="1"/>
        <pt x="487" y="112" on="1"/>
        <pt x="459" y="55" on="0"/>
        <pt x="347" y="-11" on="0"/>
        <pt x="283" y="-11" on="1"/>
        <pt x="185" y="-11" on="0"/>
        <pt x="45" y="128" on="0"/>
        <pt x="45" y="322" on="0"/>
        <pt x="185" y="461" on="0"/>
        <pt x="283" y="461" on="1"/>
        <pt x="347" y="461" on="0"/>
        <pt x="464" y="393" on="0"/>
        <pt x="487" y="337" on="1"/>
        <pt x="487" y="450" on="1"/>
      </contour>
      <contour>
        <pt x="77" y="140" on="0"/>
        <pt x="200" y="17" on="0"/>
        <pt x="369" y="17" on="0"/>
        <pt x="489" y="140" on="0"/>
        <pt x="489" y="309" on="0"/>
        <pt x="368" y="433" on="0"/>
        <pt x="200" y="433" on="0"/>
        <pt x="77" y="308" on="0"/>
      </contour>
      <contour>
        <pt x="204" y="644" on="1"/>
        <pt x="245" y="644" on="1"/>
        <pt x="385" y="529" on="1"/>
        <pt x="343" y="529" on="1"/>
      </contour>
    </TTGlyph>
    <TTGlyph name="amacron" xMin="35" yMin="-11" xMax="509" yMax="594">
      <contour>
        <pt x="509" y="450" on="1"/>
        <pt x="509" y="0" on="1"/>
        <pt x="477" y="0" on="1"/>
        <pt x="477" y="112" on="1"/>
        <pt x="449" y="55" on="0"/>
        <pt x="337" y="-11" on="0"/>
        <pt x="273" y="-11" on="1"/>
        <pt x="175" y="-11" on="0"/>
        <pt x="35" y="128" on="0"/>
        <pt x="35" y="322" on="0"/>
        <pt x="175" y="461" on="0"/>
        <pt x="273" y="461" on="1"/>
        <pt x="337" y="461" on="0"/>
        <pt x="454" y="393" on="0"/>
        <pt x="477" y="337" on="1"/>
        <pt x="477" y="450" on="1"/>
      </contour>
      <contour>
        <pt x="67" y="140" on="0"/>
        <pt x="190" y="17" on="0"/>
        <pt x="359" y="17" on="0"/>
        <pt x="479" y="140" on="0"/>
        <pt x="479" y="309" on="0"/>
        <pt x="358" y="433" on="0"/>
        <pt x="190" y="433" on="0"/>
        <pt x="67" y="308" on="0"/>
      </contour>
      <contour>
        <pt x="383" y="566" on="1"/>
        <pt x="186" y="566" on="1"/>
        <pt x="186" y="594" on="1"/>
        <pt x="383" y="594" on="1"/>
      </contour>
    </TTGlyph>
    <TTGlyph name="ampersand" xMin="35" yMin="-14" xMax="681" yMax="760">
      <contour>
        <pt x="35" y="238" on="1"/>
        <pt x="35" y="318" on="0"/>
        <pt x="134" y="452" on="0"/>
        <pt x="213" y="476" on="1"/>
        <pt x="176" y="494" on="0"/>
        <pt x="128" y="568" on="0"/>
        <pt x="128" y="609" on="1"/>
        <pt x="128" y="672" on="0"/>
        <pt x="218" y="760" on="0"/>
        <pt x="354" y="760" on="0"/>
        <pt x="400" y="708" on="1"/>
        <pt x="400" y="655" on="1"/>
        <pt x="386" y="688" on="0"/>
        <pt x="320" y="732" on="0"/>
        <pt x="233" y="732" on="0"/>
        <pt x="160" y="659" on="0"/>
        <pt x="160" y="561" on="0"/>
        <pt x="233" y="488" on="0"/>
        <pt x="283" y="488" on="1"/>
        <pt x="297" y="488" on="1"/>
        <pt x="297" y="460" on="1"/>
        <pt x="289" y="460" on="1"/>
        <pt x="199" y="460" on="0"/>
        <pt x="66" y="327" on="0"/>
        <pt x="66" y="146" on="0"/>
        <pt x="198" y="15" on="0"/>
        <pt x="380" y="15" on="0"/>
        <pt x="512" y="145" on="0"/>
        <pt x="512" y="237" on="1"/>
        <pt x="512" y="460" on="1"/>
        <pt x="373" y="460" on="1"/>
        <pt x="373" y="488" on="1"/>
        <pt x="681" y="488" on="1"/>
        <pt x="681" y="460" on="1"/>
        <pt x="542" y="460" on="1"/>
        <pt x="542" y="0" on="1"/>
        <pt x="512" y="0" on="1"/>
        <pt x="512" y="128" on="1"/>
        <pt x="490" y="68" on="0"/>
        <pt x="363" y="-14" on="0"/>
        <pt x="289" y="-14" on="1"/>
        <pt x="184" y="-14" on="0"/>
        <pt x="35" y="135" on="0"/>
      </contour>
    </TTGlyph>
    <TTGlyph name="aogonek" xMin="35" yMin="-200" xMax="509" yMax="461">
      <contour>
        <pt x="509" y="450" on="1"/>
        <pt x="509" y="0" on="1"/>
        <pt x="508" y="0" on="1"/>
        <pt x="421" y="-125" on="1"/>
        <pt x="421" y="-146" on="0"/>
        <pt x="448" y="-175" on="0"/>
        <pt x="471" y="-175" on="1"/>
        <pt x="509" y="-175" on="1"/>
        <pt x="509" y="-200" on="1"/>
        <pt x="469" y="-200" on="1"/>
        <pt x="436" y="-200" on="0"/>
        <pt x="394" y="-160" on="0"/>
        <pt x="394" y="-130" on="1"/>
        <pt x="394" y="-123" on="1"/>
        <pt x="480" y="0" on="1"/>
        <pt x="477" y="0" on="1"/>
        <pt x="477" y="112" on="1"/>
        <pt x="449" y="55" on="0"/>
        <pt x="337" y="-11" on="0"/>
        <pt x="273" y="-11" on="1"/>
        <pt x="175" y="-11" on="0"/>
        <pt x="35" y="128" on="0"/>
        <pt x="35" y="322" on="0"/>
        <pt x="175" y="461" on="0"/>
        <pt x="273" y="461" on="1"/>
        <pt x="337" y="461" on="0"/>
        <pt x="454" y="393" on="0"/>
        <pt x="477" y="337" on="1"/>
        <pt x="477" y="450" on="1"/>
      </contour>
      <contour>
        <pt x="67" y="140" on="0"/>
        <pt x="190" y="17" on="0"/>
        <pt x="359" y="17" on="0"/>
        <pt x="479" y="140" on="0"/>
        <pt x="479" y="309" on="0"/>
        <pt x="358" y="433" on="0"/>
        <pt x="190" y="433" on="0"/>
        <pt x="67" y="308" on="0"/>
      </contour>
    </TTGlyph>
    <TTGlyph name="approxequal" xMin="75" yMin="191" xMax="458" yMax="420">
      <contour>
        <pt x="458" y="237" on="1"/>
        <pt x="418" y="191" on="0"/>
        <pt x="337" y="191" on="0"/>
        <pt x="202" y="263" on="0"/>
        <pt x="164" y="263" on="1"/>
        <pt x="115" y="259" on="0"/>
        <pt x="75" y="193" on="1"/>
        <pt x="75" y="246" on="1"/>
        <pt x="114" y="290" on="0"/>
        <pt x="163" y="294" on="1"/>
        <pt x="210" y="294" on="0"/>
        <pt x="341" y="222" on="0"/>
        <pt x="417" y="222" on="0"/>
        <pt x="458" y="287" on="1"/>
      </contour>
      <contour>
        <pt x="210" y="420" on="0"/>
        <pt x="341" y="348" on="0"/>
        <pt x="417" y="348" on="0"/>
        <pt x="458" y="413" on="1"/>
        <pt x="458" y="363" on="1"/>
        <pt x="418" y="317" on="0"/>
        <pt x="337" y="317" on="0"/>
        <pt x="202" y="389" on="0"/>
        <pt x="164" y="389" on="1"/>
        <pt x="115" y="385" on="0"/>
        <pt x="75" y="319" on="1"/>
        <pt x="75" y="372" on="1"/>
        <pt x="114" y="416" on="0"/>
        <pt x="163" y="420" on="1"/>
      </contour>
    </TTGlyph>
    <TTGlyph name="aring" xMin="45" yMin="-11" xMax="519" yMax="662">
      <contour>
        <pt x="519" y="450" on="1"/>
        <pt x="519" y="0" on="1"/>
        <pt x="487" y="0" on="1"/>
        <pt x="487" y="112" on="1"/>
        <pt x="459" y="55" on="0"/>
        <pt x="347" y="-11" on="0"/>
        <pt x="283" y="-11" on="1"/>
        <pt x="185" y="-11" on="0"/>
        <pt x="45" y="128" on="0"/>
        <pt x="45" y="322" on="0"/>
        <pt x="185" y="461" on="0"/>
        <pt x="283" y="461" on="1"/>
        <pt x="347" y="461" on="0"/>
        <pt x="464" y="393" on="0"/>
        <pt x="487" y="337" on="1"/>
        <pt x="487" y="450" on="1"/>
      </contour>
      <contour>
        <pt x="77" y="140" on="0"/>
        <pt x="200" y="17" on="0"/>
        <pt x="369" y="17" on="0"/>
        <pt x="489" y="140" on="0"/>
        <pt x="489" y="309" on="0"/>
        <pt x="368" y="433" on="0"/>
        <pt x="200" y="433" on="0"/>
        <pt x="77" y="308" on="0"/>
      </contour>
      <contour>
        <pt x="296" y="512" on="1"/>
        <pt x="292" y="512" on="1"/>
        <pt x="262" y="512" on="0"/>
        <pt x="219" y="557" on="0"/>
        <pt x="219" y="618" on="0"/>
        <pt x="263" y="662" on="0"/>
        <pt x="326" y="662" on="0"/>
        <pt x="370" y="618" on="0"/>
        <pt x="370" y="557" on="0"/>
        <pt x="326" y="512" on="0"/>
      </contour>
      <contour>
        <pt x="344" y="608" on="0"/>
        <pt x="315" y="638" on="0"/>
        <pt x="274" y="638" on="0"/>
        <pt x="244" y="607" on="0"/>
        <pt x="244" y="567" on="0"/>
        <pt x="274" y="536" on="0"/>
        <pt x="315" y="536" on="0"/>
        <pt x="344" y="566" on="0"/>
      </contour>
    </TTGlyph>
    <TTGlyph name="asciicircum" xMin="15" yMin="540" xMax="315" yMax="679">
      <contour>
        <pt x="177" y="679" on="1"/>
        <pt x="315" y="540" on="1"/>
        <pt x="274" y="540" on="1"/>
        <pt x="166" y="648" on="1"/>
        <pt x="57" y="540" on="1"/>
        <pt x="15" y="540" on="1"/>
        <pt x="155" y="679" on="1"/>
      </contour>
    </TTGlyph>
    <TTGlyph name="asciitilde" xMin="75" yMin="314" xMax="458" yMax="415">
      <contour>
        <pt x="458" y="360" on="1"/>
        <pt x="418" y="314" on="0"/>
        <pt x="337" y="314" on="0"/>
        <pt x="202" y="386" on="0"/>
        <pt x="164" y="386" on="1"/>
        <pt x="115" y="382" on="0"/>
        <pt x="75" y="316" on="1"/>
        <pt x="75" y="367" on="1"/>
        <pt x="114" y="411" on="0"/>
        <pt x="163" y="415" on="1"/>
        <pt x="210" y="415" on="0"/>
        <pt x="341" y="343" on="0"/>
        <pt x="417" y="343" on="0"/>
        <pt x="458" y="408" on="1"/>
      </contour>
    </TTGlyph>
    <TTGlyph name="asterisk" xMin="35" yMin="501" xMax="278" yMax="745">
      <contour>
        <pt x="146" y="745" on="1"/>
        <pt x="171" y="745" on="1"/>
        <pt x="171" y="654" on="1"/>
        <pt x="240" y="725" on="1"/>
        <pt x="261" y="705" on="1"/>
        <pt x="191" y="635" on="1"/>
        <pt x="278" y="635" on="1"/>
        <pt x="278" y="609" on="1"/>
        <pt x="191" y="609" on="1"/>
        <pt x="260" y="542" on="1"/>
        <pt x="238" y="521" on="1"/>
        <pt x="171" y="590" on="1"/>
        <pt x="171" y="501" on="1"/>
        <pt x="146" y="501" on="1"/>
        <pt x="146" y="591" on="1"/>
        <pt x="77" y="521" on="1"/>
        <pt x="56" y="542" on="1"/>
        <pt x="125" y="609" on="1"/>
        <pt x="35" y="609" on="1"/>
        <pt x="35" y="635" on="1"/>
        <pt x="126" y="635" on="1"/>
        <pt x="55" y="705" on="1"/>
        <pt x="75" y="725" on="1"/>
        <pt x="146" y="654" on="1"/>
      </contour>
    </TTGlyph>
    <TTGlyph name="at" xMin="50" yMin="-13" xMax="830" yMax="763">
      <contour>
        <pt x="447" y="-13" on="1"/>
        <pt x="432" y="-13" on="1"/>
        <pt x="277" y="-13" on="0"/>
        <pt x="50" y="221" on="0"/>
        <pt x="50" y="534" on="0"/>
        <pt x="280" y="763" on="0"/>
        <pt x="602" y="763" on="0"/>
        <pt x="830" y="535" on="0"/>
        <pt x="830" y="220" on="0"/>
        <pt x="604" y="-13" on="0"/>
      </contour>
      <contour>
        <pt x="797" y="523" on="0"/>
        <pt x="588" y="734" on="0"/>
        <pt x="293" y="734" on="0"/>
        <pt x="83" y="523" on="0"/>
        <pt x="83" y="228" on="0"/>
        <pt x="293" y="16" on="0"/>
        <pt x="587" y="16" on="0"/>
        <pt x="797" y="228" on="0"/>
      </contour>
      <contour>
        <pt x="676" y="600" on="1"/>
        <pt x="676" y="150" on="1"/>
        <pt x="644" y="150" on="1"/>
        <pt x="644" y="255" on="1"/>
        <pt x="612" y="201" on="0"/>
        <pt x="502" y="139" on="0"/>
        <pt x="440" y="139" on="1"/>
        <pt x="342" y="139" on="0"/>
        <pt x="202" y="278" on="0"/>
        <pt x="202" y="472" on="0"/>
        <pt x="342" y="611" on="0"/>
        <pt x="440" y="611" on="1"/>
        <pt x="502" y="611" on="0"/>
        <pt x="612" y="549" on="0"/>
        <pt x="644" y="495" on="1"/>
        <pt x="644" y="600" on="1"/>
      </contour>
      <contour>
        <pt x="234" y="290" on="0"/>
        <pt x="357" y="167" on="0"/>
        <pt x="526" y="167" on="0"/>
        <pt x="646" y="290" on="0"/>
        <pt x="646" y="459" on="0"/>
        <pt x="525" y="583" on="0"/>
        <pt x="357" y="583" on="0"/>
        <pt x="234" y="458" on="0"/>
      </contour>
    </TTGlyph>
    <TTGlyph name="atilde" xMin="45" yMin="-11" xMax="519" yMax="628">
      <contour>
        <pt x="519" y="450" on="1"/>
        <pt x="519" y="0" on="1"/>
        <pt x="487" y="0" on="1"/>
        <pt x="487" y="112" on="1"/>
        <pt x="459" y="55" on="0"/>
        <pt x="347" y="-11" on="0"/>
        <pt x="283" y="-11" on="1"/>
        <pt x="185" y="-11" on="0"/>
        <pt x="45" y="128" on="0"/>
        <pt x="45" y="322" on="0"/>
        <pt x="185" y="461" on="0"/>
        <pt x="283" y="461" on="1"/>
        <pt x="347" y="461" on="0"/>
        <pt x="464" y="393" on="0"/>
        <pt x="487" y="337" on="1"/>
        <pt x="487" y="450" on="1"/>
      </contour>
      <contour>
        <pt x="77" y="140" on="0"/>
        <pt x="200" y="17" on="0"/>
        <pt x="369" y="17" on="0"/>
        <pt x="489" y="140" on="0"/>
        <pt x="489" y="309" on="0"/>
        <pt x="368" y="433" on="0"/>
        <pt x="200" y="433" on="0"/>
        <pt x="77" y="308" on="0"/>
      </contour>
      <contour>
        <pt x="375" y="547" on="1"/>
        <pt x="346" y="547" on="0"/>
        <pt x="247" y="602" on="0"/>
        <pt x="187" y="601" on="0"/>
        <pt x="155" y="548" on="1"/>
        <pt x="124" y="548" on="1"/>
        <pt x="163" y="628" on="0"/>
        <pt x="219" y="628" on="1"/>
        <pt x="228" y="628" on="1"/>
        <pt x="258" y="628" on="0"/>
        <pt x="348" y="575" on="0"/>
        <pt x="403" y="575" on="0"/>
        <pt x="434" y="624" on="1"/>
        <pt x="465" y="624" on="1"/>
        <pt x="418" y="547" on="0"/>
      </contour>
    </TTGlyph>
    <TTGlyph name="b" xMin="60" yMin="-11" xMax="534" yMax="750">
      <contour>
        <pt x="60" y="0" on="1"/>
        <pt x="60" y="750" on="1"/>
        <pt x="92" y="750" on="1"/>
        <pt x="92" y="340" on="1"/>
        <pt x="119" y="395" on="0"/>
        <pt x="234" y="461" on="0"/>
        <pt x="296" y="461" on="1"/>
        <pt x="395" y="461" on="0"/>
        <pt x="534" y="322" on="0"/>
        <pt x="534" y="128" on="0"/>
        <pt x="395" y="-11" on="0"/>
        <pt x="296" y="-11" on="1"/>
        <pt x="236" y="-11" on="0"/>
        <pt x="122" y="54" on="0"/>
        <pt x="92" y="109" on="1"/>
        <pt x="92" y="0" on="1"/>
      </contour>
      <contour>
        <pt x="90" y="140" on="0"/>
        <pt x="213" y="17" on="0"/>
        <pt x="382" y="17" on="0"/>
        <pt x="502" y="140" on="0"/>
        <pt x="502" y="309" on="0"/>
        <pt x="381" y="433" on="0"/>
        <pt x="213" y="433" on="0"/>
        <pt x="90" y="308" on="0"/>
      </contour>
    </TTGlyph>
    <TTGlyph name="backslash" xMin="25" yMin="0" xMax="621" yMax="748">
      <contour>
        <pt x="25" y="748" on="1"/>
        <pt x="63" y="748" on="1"/>
        <pt x="621" y="0" on="1"/>
        <pt x="583" y="0" on="1"/>
      </contour>
    </TTGlyph>
    <TTGlyph name="bar" xMin="75" yMin="0" xMax="108" yMax="748">
      <contour>
        <pt x="75" y="0" on="1"/>
        <pt x="75" y="748" on="1"/>
        <pt x="108" y="748" on="1"/>
        <pt x="108" y="0" on="1"/>
      </contour>
    </TTGlyph>
    <TTGlyph name="braceleft" xMin="34" yMin="-75" xMax="237" yMax="817">
      <contour>
        <pt x="167" y="667" on="1"/>
        <pt x="167" y="506" on="1"/>
        <pt x="167" y="467" on="0"/>
        <pt x="132" y="396" on="0"/>
        <pt x="100" y="375" on="1"/>
        <pt x="167" y="331" on="0"/>
        <pt x="167" y="246" on="1"/>
        <pt x="167" y="77" on="1"/>
        <pt x="167" y="37" on="0"/>
        <pt x="205" y="-27" on="0"/>
        <pt x="237" y="-45" on="1"/>
        <pt x="237" y="-75" on="1"/>
        <pt x="192" y="-54" on="0"/>
        <pt x="134" y="30" on="0"/>
        <pt x="134" y="77" on="1"/>
        <pt x="134" y="246" on="1"/>
        <pt x="134" y="290" on="0"/>
        <pt x="76" y="363" on="0"/>
        <pt x="34" y="375" on="1"/>
        <pt x="76" y="387" on="0"/>
        <pt x="134" y="462" on="0"/>
        <pt x="134" y="506" on="1"/>
        <pt x="134" y="667" on="1"/>
        <pt x="134" y="714" on="0"/>
        <pt x="192" y="795" on="0"/>
        <pt x="237" y="817" on="1"/>
        <pt x="237" y="787" on="1"/>
        <pt x="205" y="771" on="0"/>
        <pt x="167" y="707" on="0"/>
      </contour>
    </TTGlyph>
    <TTGlyph name="braceright" xMin="20" yMin="-75" xMax="223" yMax="817">
      <contour>
        <pt x="125" y="667" on="1"/>
        <pt x="125" y="506" on="1"/>
        <pt x="125" y="463" on="0"/>
        <pt x="183" y="387" on="0"/>
        <pt x="223" y="375" on="1"/>
        <pt x="183" y="363" on="0"/>
        <pt x="125" y="290" on="0"/>
        <pt x="125" y="246" on="1"/>
        <pt x="125" y="77" on="1"/>
        <pt x="125" y="31" on="0"/>
        <pt x="65" y="-55" on="0"/>
        <pt x="20" y="-75" on="1"/>
        <pt x="20" y="-45" on="1"/>
        <pt x="92" y="-6" on="0"/>
        <pt x="92" y="77" on="1"/>
        <pt x="92" y="246" on="1"/>
        <pt x="92" y="332" on="0"/>
        <pt x="158" y="375" on="1"/>
        <pt x="127" y="395" on="0"/>
        <pt x="92" y="467" on="0"/>
        <pt x="92" y="506" on="1"/>
        <pt x="92" y="667" on="1"/>
        <pt x="92" y="707" on="0"/>
        <pt x="53" y="771" on="0"/>
        <pt x="20" y="787" on="1"/>
        <pt x="20" y="817" on="1"/>
        <pt x="66" y="795" on="0"/>
        <pt x="125" y="714" on="0"/>
      </contour>
    </TTGlyph>
    <TTGlyph name="bracketleft" xMin="72" yMin="-83" xMax="200" yMax="816">
      <contour>
        <pt x="105" y="787" on="1"/>
        <pt x="105" y="-54" on="1"/>
        <pt x="200" y="-54" on="1"/>
        <pt x="200" y="-83" on="1"/>
        <pt x="72" y="-83" on="1"/>
        <pt x="72" y="816" on="1"/>
        <pt x="200" y="816" on="1"/>
        <pt x="200" y="787" on="1"/>
      </contour>
    </TTGlyph>
    <TTGlyph name="bracketright" xMin="15" yMin="-83" xMax="145" yMax="816">
      <contour>
        <pt x="112" y="-54" on="1"/>
        <pt x="112" y="787" on="1"/>
        <pt x="15" y="787" on="1"/>
        <pt x="15" y="816" on="1"/>
        <pt x="145" y="816" on="1"/>
        <pt x="145" y="-83" on="1"/>
        <pt x="15" y="-83" on="1"/>
        <pt x="15" y="-54" on="1"/>
      </contour>
    </TTGlyph>
    <TTGlyph name="breve" xMin="15" yMin="528" xMax="264" yMax="644">
      <contour>
        <pt x="45" y="608" on="0"/>
        <pt x="103" y="553" on="0"/>
        <pt x="174" y="553" on="0"/>
        <pt x="231" y="608" on="0"/>
        <pt x="235" y="644" on="1"/>
        <pt x="264" y="644" on="1"/>
        <pt x="262" y="597" on="0"/>
        <pt x="191" y="528" on="0"/>
        <pt x="143" y="528" on="1"/>
        <pt x="135" y="528" on="1"/>
        <pt x="87" y="528" on="0"/>
        <pt x="17" y="596" on="0"/>
        <pt x="15" y="644" on="1"/>
        <pt x="43" y="644" on="1"/>
      </contour>
    </TTGlyph>
    <TTGlyph name="brokenbar" xMin="90" yMin="0" xMax="125" yMax="750">
      <contour>
        <pt x="125" y="0" on="1"/>
        <pt x="90" y="0" on="1"/>
        <pt x="90" y="283" on="1"/>
        <pt x="125" y="283" on="1"/>
      </contour>
      <contour>
        <pt x="125" y="466" on="1"/>
        <pt x="90" y="466" on="1"/>
        <pt x="90" y="750" on="1"/>
        <pt x="125" y="750" on="1"/>
      </contour>
    </TTGlyph>
    <TTGlyph name="bullet" xMin="110" yMin="239" xMax="205" yMax="333">
      <contour>
        <pt x="110" y="239" on="0"/>
        <pt x="110" y="333" on="0"/>
        <pt x="205" y="333" on="0"/>
        <pt x="205" y="286" on="1"/>
        <pt x="205" y="264" on="0"/>
        <pt x="179" y="239" on="0"/>
        <pt x="157" y="239" on="1"/>
      </contour>
    </TTGlyph>
    <TTGlyph name="c" xMin="35" yMin="-13" xMax="451" yMax="459">
      <contour>
        <pt x="278" y="-13" on="1"/>
        <pt x="269" y="-13" on="1"/>
        <pt x="173" y="-13" on="0"/>
        <pt x="35" y="129" on="0"/>
        <pt x="35" y="320" on="0"/>
        <pt x="175" y="459" on="0"/>
        <pt x="379" y="459" on="0"/>
        <pt x="451" y="382" on="1"/>
        <pt x="451" y="331" on="1"/>
        <pt x="420" y="377" on="0"/>
        <pt x="325" y="431" on="0"/>
        <pt x="273" y="431" on="1"/>
        <pt x="190" y="431" on="0"/>
        <pt x="67" y="308" on="0"/>
        <pt x="67" y="138" on="0"/>
        <pt x="190" y="15" on="0"/>
        <pt x="273" y="15" on="1"/>
        <pt x="325" y="15" on="0"/>
        <pt x="420" y="69" on="0"/>
        <pt x="451" y="116" on="1"/>
        <pt x="451" y="64" on="1"/>
        <pt x="381" y="-13" on="0"/>
      </contour>
    </TTGlyph>
    <TTGlyph name="cacute" xMin="35" yMin="-13" xMax="451" yMax="644">
      <contour>
        <pt x="278" y="-13" on="1"/>
        <pt x="269" y="-13" on="1"/>
        <pt x="173" y="-13" on="0"/>
        <pt x="35" y="129" on="0"/>
        <pt x="35" y="320" on="0"/>
        <pt x="175" y="459" on="0"/>
        <pt x="379" y="459" on="0"/>
        <pt x="451" y="382" on="1"/>
        <pt x="451" y="331" on="1"/>
        <pt x="420" y="377" on="0"/>
        <pt x="325" y="431" on="0"/>
        <pt x="273" y="431" on="1"/>
        <pt x="190" y="431" on="0"/>
        <pt x="67" y="308" on="0"/>
        <pt x="67" y="138" on="0"/>
        <pt x="190" y="15" on="0"/>
        <pt x="273" y="15" on="1"/>
        <pt x="325" y="15" on="0"/>
        <pt x="420" y="69" on="0"/>
        <pt x="451" y="116" on="1"/>
        <pt x="451" y="64" on="1"/>
        <pt x="381" y="-13" on="0"/>
      </contour>
      <contour>
        <pt x="287" y="644" on="1"/>
        <pt x="328" y="644" on="1"/>
        <pt x="189" y="529" on="1"/>
        <pt x="147" y="529" on="1"/>
      </contour>
    </TTGlyph>
    <TTGlyph name="caron" xMin="18" yMin="529" xMax="314" yMax="644">
      <contour>
        <pt x="314" y="644" on="1"/>
        <pt x="182" y="529" on="1"/>
        <pt x="152" y="529" on="1"/>
        <pt x="18" y="644" on="1"/>
        <pt x="60" y="644" on="1"/>
        <pt x="166" y="553" on="1"/>
        <pt x="273" y="644" on="1"/>
      </contour>
    </TTGlyph>
    <TTGlyph name="ccaron" xMin="35" yMin="-13" xMax="451" yMax="644">
      <contour>
        <pt x="278" y="-13" on="1"/>
        <pt x="269" y="-13" on="1"/>
        <pt x="173" y="-13" on="0"/>
        <pt x="35" y="129" on="0"/>
        <pt x="35" y="320" on="0"/>
        <pt x="175" y="459" on="0"/>
        <pt x="379" y="459" on="0"/>
        <pt x="451" y="382" on="1"/>
        <pt x="451" y="331" on="1"/>
        <pt x="420" y="377" on="0"/>
        <pt x="325" y="431" on="0"/>
        <pt x="273" y="431" on="1"/>
        <pt x="190" y="431" on="0"/>
        <pt x="67" y="308" on="0"/>
        <pt x="67" y="138" on="0"/>
        <pt x="190" y="15" on="0"/>
        <pt x="273" y="15" on="1"/>
        <pt x="325" y="15" on="0"/>
        <pt x="420" y="69" on="0"/>
        <pt x="451" y="116" on="1"/>
        <pt x="451" y="64" on="1"/>
        <pt x="381" y="-13" on="0"/>
      </contour>
      <contour>
        <pt x="425" y="644" on="1"/>
        <pt x="293" y="529" on="1"/>
        <pt x="263" y="529" on="1"/>
        <pt x="129" y="644" on="1"/>
        <pt x="171" y="644" on="1"/>
        <pt x="277" y="553" on="1"/>
        <pt x="384" y="644" on="1"/>
      </contour>
    </TTGlyph>
    <TTGlyph name="ccedilla" xMin="45" yMin="-200" xMax="461" yMax="459">
      <contour>
        <pt x="239" y="-75" on="1"/>
        <pt x="239" y="-9" on="1"/>
        <pt x="156" y="5" on="0"/>
        <pt x="45" y="141" on="0"/>
        <pt x="45" y="320" on="0"/>
        <pt x="185" y="459" on="0"/>
        <pt x="389" y="459" on="0"/>
        <pt x="461" y="382" on="1"/>
        <pt x="461" y="331" on="1"/>
        <pt x="430" y="377" on="0"/>
        <pt x="335" y="431" on="0"/>
        <pt x="283" y="431" on="1"/>
        <pt x="200" y="431" on="0"/>
        <pt x="77" y="308" on="0"/>
        <pt x="77" y="138" on="0"/>
        <pt x="200" y="15" on="0"/>
        <pt x="283" y="15" on="1"/>
        <pt x="335" y="15" on="0"/>
        <pt x="430" y="69" on="0"/>
        <pt x="461" y="116" on="1"/>
        <pt x="461" y="64" on="1"/>
        <pt x="391" y="-13" on="0"/>
        <pt x="288" y="-13" on="1"/>
        <pt x="279" y="-13" on="1"/>
        <pt x="267" y="-13" on="0"/>
        <pt x="264" y="-12" on="1"/>
        <pt x="264" y="-49" on="1"/>
        <pt x="274" y="-49" on="1"/>
        <pt x="306" y="-49" on="0"/>
        <pt x="351" y="-93" on="0"/>
        <pt x="351" y="-123" on="1"/>
        <pt x="351" y="-127" on="1"/>
        <pt x="351" y="-157" on="0"/>
        <pt x="307" y="-200" on="0"/>
        <pt x="274" y="-200" on="1"/>
        <pt x="239" y="-200" on="1"/>
        <pt x="239" y="-175" on="1"/>
        <pt x="274" y="-175" on="1"/>
        <pt x="297" y="-175" on="0"/>
        <pt x="327" y="-146" on="0"/>
        <pt x="327" y="-104" on="0"/>
        <pt x="297" y="-75" on="0"/>
        <pt x="274" y="-75" on="1"/>
      </contour>
    </TTGlyph>
    <TTGlyph name="ccircumflex" xMin="35" yMin="-13" xMax="451" yMax="644">
      <contour>
        <pt x="278" y="-13" on="1"/>
        <pt x="269" y="-13" on="1"/>
        <pt x="173" y="-13" on="0"/>
        <pt x="35" y="129" on="0"/>
        <pt x="35" y="320" on="0"/>
        <pt x="175" y="459" on="0"/>
        <pt x="379" y="459" on="0"/>
        <pt x="451" y="382" on="1"/>
        <pt x="451" y="331" on="1"/>
        <pt x="420" y="377" on="0"/>
        <pt x="325" y="431" on="0"/>
        <pt x="273" y="431" on="1"/>
        <pt x="190" y="431" on="0"/>
        <pt x="67" y="308" on="0"/>
        <pt x="67" y="138" on="0"/>
        <pt x="190" y="15" on="0"/>
        <pt x="273" y="15" on="1"/>
        <pt x="325" y="15" on="0"/>
        <pt x="420" y="69" on="0"/>
        <pt x="451" y="116" on="1"/>
        <pt x="451" y="64" on="1"/>
        <pt x="381" y="-13" on="0"/>
      </contour>
      <contour>
        <pt x="293" y="644" on="1"/>
        <pt x="425" y="529" on="1"/>
        <pt x="384" y="529" on="1"/>
        <pt x="277" y="620" on="1"/>
        <pt x="171" y="529" on="1"/>
        <pt x="129" y="529" on="1"/>
        <pt x="263" y="644" on="1"/>
      </contour>
    </TTGlyph>
    <TTGlyph name="cdotaccent" xMin="35" yMin="-13" xMax="451" yMax="613">
      <contour>
        <pt x="278" y="-13" on="1"/>
        <pt x="269" y="-13" on="1"/>
        <pt x="173" y="-13" on="0"/>
        <pt x="35" y="129" on="0"/>
        <pt x="35" y="320" on="0"/>
        <pt x="175" y="459" on="0"/>
        <pt x="379" y="459" on="0"/>
        <pt x="451" y="382" on="1"/>
        <pt x="451" y="331" on="1"/>
        <pt x="420" y="377" on="0"/>
        <pt x="325" y="431" on="0"/>
        <pt x="273" y="431" on="1"/>
        <pt x="190" y="431" on="0"/>
        <pt x="67" y="308" on="0"/>
        <pt x="67" y="138" on="0"/>
        <pt x="190" y="15" on="0"/>
        <pt x="273" y="15" on="1"/>
        <pt x="325" y="15" on="0"/>
        <pt x="420" y="69" on="0"/>
        <pt x="451" y="116" on="1"/>
        <pt x="451" y="64" on="1"/>
        <pt x="381" y="-13" on="0"/>
      </contour>
      <contour>
        <pt x="241" y="559" on="0"/>
        <pt x="241" y="613" on="0"/>
        <pt x="299" y="613" on="0"/>
        <pt x="299" y="559" on="0"/>
      </contour>
    </TTGlyph>
    <TTGlyph name="cedilla" xMin="15" yMin="-200" xMax="127" yMax="9">
      <contour>
        <pt x="15" y="-75" on="1"/>
        <pt x="15" y="9" on="1"/>
        <pt x="40" y="9" on="1"/>
        <pt x="40" y="-49" on="1"/>
        <pt x="50" y="-49" on="1"/>
        <pt x="82" y="-49" on="0"/>
        <pt x="127" y="-93" on="0"/>
        <pt x="127" y="-123" on="1"/>
        <pt x="127" y="-127" on="1"/>
        <pt x="127" y="-157" on="0"/>
        <pt x="83" y="-200" on="0"/>
        <pt x="50" y="-200" on="1"/>
        <pt x="15" y="-200" on="1"/>
        <pt x="15" y="-175" on="1"/>
        <pt x="50" y="-175" on="1"/>
        <pt x="73" y="-175" on="0"/>
        <pt x="103" y="-146" on="0"/>
        <pt x="103" y="-104" on="0"/>
        <pt x="73" y="-75" on="0"/>
        <pt x="50" y="-75" on="1"/>
      </contour>
    </TTGlyph>
    <TTGlyph name="cent" xMin="50" yMin="-155" xMax="506" yMax="564">
      <contour>
        <pt x="286" y="-155" on="1"/>
        <pt x="286" y="-9" on="1"/>
        <pt x="282" y="-9" on="1"/>
        <pt x="176" y="-9" on="0"/>
        <pt x="50" y="130" on="0"/>
        <pt x="50" y="319" on="0"/>
        <pt x="172" y="456" on="0"/>
        <pt x="281" y="456" on="1"/>
        <pt x="286" y="456" on="1"/>
        <pt x="286" y="564" on="1"/>
        <pt x="320" y="564" on="1"/>
        <pt x="320" y="456" on="1"/>
        <pt x="325" y="456" on="1"/>
        <pt x="437" y="456" on="0"/>
        <pt x="506" y="382" on="1"/>
        <pt x="506" y="331" on="1"/>
        <pt x="475" y="376" on="0"/>
        <pt x="378" y="428" on="0"/>
        <pt x="325" y="428" on="1"/>
        <pt x="320" y="428" on="1"/>
        <pt x="320" y="19" on="1"/>
        <pt x="325" y="19" on="1"/>
        <pt x="379" y="19" on="0"/>
        <pt x="475" y="71" on="0"/>
        <pt x="506" y="116" on="1"/>
        <pt x="506" y="64" on="1"/>
        <pt x="474" y="29" on="0"/>
        <pt x="377" y="-9" on="0"/>
        <pt x="324" y="-9" on="1"/>
        <pt x="320" y="-9" on="1"/>
        <pt x="320" y="-155" on="1"/>
      </contour>
      <contour>
        <pt x="286" y="428" on="1"/>
        <pt x="281" y="428" on="1"/>
        <pt x="187" y="428" on="0"/>
        <pt x="85" y="308" on="0"/>
        <pt x="85" y="138" on="0"/>
        <pt x="187" y="19" on="0"/>
        <pt x="281" y="19" on="1"/>
        <pt x="286" y="19" on="1"/>
      </contour>
    </TTGlyph>
    <TTGlyph name="circumflex" xMin="18" yMin="529" xMax="314" yMax="644">
      <contour>
        <pt x="182" y="644" on="1"/>
        <pt x="314" y="529" on="1"/>
        <pt x="273" y="529" on="1"/>
        <pt x="166" y="620" on="1"/>
        <pt x="60" y="529" on="1"/>
        <pt x="18" y="529" on="1"/>
        <pt x="152" y="644" on="1"/>
      </contour>
    </TTGlyph>
    <TTGlyph name="colon" xMin="85" yMin="-7" xMax="152" yMax="323">
      <contour>
        <pt x="85" y="-7" on="0"/>
        <pt x="85" y="55" on="0"/>
        <pt x="152" y="55" on="0"/>
        <pt x="152" y="-7" on="0"/>
      </contour>
      <contour>
        <pt x="85" y="261" on="0"/>
        <pt x="85" y="323" on="0"/>
        <pt x="152" y="323" on="0"/>
        <pt x="152" y="261" on="0"/>
      </contour>
    </TTGlyph>
    <TTGlyph name="comma" xMin="35" yMin="-63" xMax="104" yMax="55">
      <contour>
        <pt x="66" y="-63" on="1"/>
        <pt x="66" y="-7" on="1"/>
        <pt x="35" y="-7" on="0"/>
        <pt x="35" y="55" on="0"/>
        <pt x="104" y="55" on="0"/>
        <pt x="104" y="24" on="1"/>
        <pt x="104" y="17" on="0"/>
        <pt x="101" y="8" on="1"/>
        <pt x="70" y="-63" on="1"/>
      </contour>
    </TTGlyph>
    <TTGlyph name="copyright" xMin="55" yMin="-13" xMax="835" yMax="763">
      <contour>
        <pt x="452" y="-13" on="1"/>
        <pt x="437" y="-13" on="1"/>
        <pt x="282" y="-13" on="0"/>
        <pt x="55" y="221" on="0"/>
        <pt x="55" y="534" on="0"/>
        <pt x="285" y="763" on="0"/>
        <pt x="607" y="763" on="0"/>
        <pt x="835" y="535" on="0"/>
        <pt x="835" y="220" on="0"/>
        <pt x="609" y="-13" on="0"/>
      </contour>
      <contour>
        <pt x="802" y="523" on="0"/>
        <pt x="593" y="734" on="0"/>
        <pt x="298" y="734" on="0"/>
        <pt x="88" y="523" on="0"/>
        <pt x="88" y="228" on="0"/>
        <pt x="298" y="16" on="0"/>
        <pt x="592" y="16" on="0"/>
        <pt x="802" y="228" on="0"/>
      </contour>
      <contour>
        <pt x="453" y="140" on="1"/>
        <pt x="438" y="140" on="1"/>
        <pt x="345" y="140" on="0"/>
        <pt x="208" y="283" on="0"/>
        <pt x="208" y="473" on="0"/>
        <pt x="348" y="612" on="0"/>
        <pt x="552" y="612" on="0"/>
        <pt x="624" y="535" on="1"/>
        <pt x="624" y="484" on="1"/>
        <pt x="593" y="530" on="0"/>
        <pt x="498" y="584" on="0"/>
        <pt x="446" y="584" on="1"/>
        <pt x="363" y="584" on="0"/>
        <pt x="240" y="461" on="0"/>
        <pt x="240" y="291" on="0"/>
        <pt x="363" y="168" on="0"/>
        <pt x="446" y="168" on="1"/>
        <pt x="498" y="168" on="0"/>
        <pt x="593" y="222" on="0"/>
        <pt x="624" y="269" on="1"/>
        <pt x="624" y="217" on="1"/>
        <pt x="554" y="140" on="0"/>
      </contour>
    </TTGlyph>
    <TTGlyph name="currency" xMin="35" yMin="-12" xMax="808" yMax="761">
      <contour>
        <pt x="159" y="664" on="1"/>
        <pt x="268" y="761" on="0"/>
        <pt x="567" y="761" on="0"/>
        <pt x="682" y="658" on="1"/>
        <pt x="771" y="748" on="1"/>
        <pt x="793" y="722" on="1"/>
        <pt x="706" y="635" on="1"/>
        <pt x="808" y="518" on="0"/>
        <pt x="808" y="226" on="0"/>
        <pt x="708" y="113" on="1"/>
        <pt x="793" y="30" on="1"/>
        <pt x="769" y="5" on="1"/>
        <pt x="686" y="88" on="1"/>
        <pt x="569" y="-12" on="0"/>
        <pt x="267" y="-12" on="0"/>
        <pt x="161" y="88" on="1"/>
        <pt x="75" y="2" on="1"/>
        <pt x="51" y="27" on="1"/>
        <pt x="136" y="113" on="1"/>
        <pt x="35" y="221" on="0"/>
        <pt x="35" y="521" on="0"/>
        <pt x="135" y="640" on="1"/>
        <pt x="50" y="723" on="1"/>
        <pt x="75" y="749" on="1"/>
      </contour>
      <contour>
        <pt x="575" y="728" on="0"/>
        <pt x="275" y="728" on="0"/>
        <pt x="69" y="522" on="0"/>
        <pt x="69" y="220" on="0"/>
        <pt x="276" y="20" on="0"/>
        <pt x="561" y="20" on="0"/>
        <pt x="777" y="227" on="0"/>
        <pt x="777" y="527" on="0"/>
      </contour>
    </TTGlyph>
    <TTGlyph name="d" xMin="35" yMin="-11" xMax="509" yMax="750">
      <contour>
        <pt x="509" y="750" on="1"/>
        <pt x="509" y="0" on="1"/>
        <pt x="477" y="0" on="1"/>
        <pt x="477" y="109" on="1"/>
        <pt x="447" y="54" on="0"/>
        <pt x="333" y="-11" on="0"/>
        <pt x="273" y="-11" on="1"/>
        <pt x="174" y="-11" on="0"/>
        <pt x="35" y="128" on="0"/>
        <pt x="35" y="322" on="0"/>
        <pt x="174" y="461" on="0"/>
        <pt x="273" y="461" on="1"/>
        <pt x="335" y="461" on="0"/>
        <pt x="450" y="395" on="0"/>
        <pt x="477" y="340" on="1"/>
        <pt x="477" y="750" on="1"/>
      </contour>
      <contour>
        <pt x="67" y="140" on="0"/>
        <pt x="187" y="17" on="0"/>
        <pt x="356" y="17" on="0"/>
        <pt x="479" y="140" on="0"/>
        <pt x="479" y="308" on="0"/>
        <pt x="356" y="433" on="0"/>
        <pt x="188" y="433" on="0"/>
        <pt x="67" y="309" on="0"/>
      </contour>
    </TTGlyph>
    <TTGlyph name="dagger" xMin="75" yMin="0" xMax="386" yMax="748">
      <contour>
        <pt x="386" y="284" on="1"/>
        <pt x="247" y="284" on="1"/>
        <pt x="247" y="0" on="1"/>
        <pt x="214" y="0" on="1"/>
        <pt x="214" y="284" on="1"/>
        <pt x="75" y="284" on="1"/>
        <pt x="75" y="315" on="1"/>
        <pt x="214" y="315" on="1"/>
        <pt x="214" y="748" on="1"/>
        <pt x="247" y="748" on="1"/>
        <pt x="247" y="315" on="1"/>
        <pt x="386" y="315" on="1"/>
      </contour>
    </TTGlyph>
    <TTGlyph name="daggerdbl" xMin="75" yMin="0" xMax="386" yMax="748">
      <contour>
        <pt x="386" y="284" on="1"/>
        <pt x="247" y="284" on="1"/>
        <pt x="247" y="0" on="1"/>
        <pt x="214" y="0" on="1"/>
        <pt x="214" y="284" on="1"/>
        <pt x="75" y="284" on="1"/>
        <pt x="75" y="313" on="1"/>
        <pt x="214" y="313" on="1"/>
        <pt x="214" y="466" on="1"/>
        <pt x="75" y="466" on="1"/>
        <pt x="75" y="497" on="1"/>
        <pt x="214" y="497" on="1"/>
        <pt x="214" y="748" on="1"/>
        <pt x="247" y="748" on="1"/>
        <pt x="247" y="497" on="1"/>
        <pt x="386" y="497" on="1"/>
        <pt x="386" y="466" on="1"/>
        <pt x="247" y="466" on="1"/>
        <pt x="247" y="313" on="1"/>
        <pt x="386" y="313" on="1"/>
      </contour>
    </TTGlyph>
    <TTGlyph name="dcaron" xMin="35" yMin="-11" xMax="628" yMax="751">
      <contour>
        <pt x="509" y="750" on="1"/>
        <pt x="509" y="0" on="1"/>
        <pt x="477" y="0" on="1"/>
        <pt x="477" y="109" on="1"/>
        <pt x="447" y="54" on="0"/>
        <pt x="333" y="-11" on="0"/>
        <pt x="273" y="-11" on="1"/>
        <pt x="174" y="-11" on="0"/>
        <pt x="35" y="128" on="0"/>
        <pt x="35" y="322" on="0"/>
        <pt x="174" y="461" on="0"/>
        <pt x="273" y="461" on="1"/>
        <pt x="335" y="461" on="0"/>
        <pt x="450" y="395" on="0"/>
        <pt x="477" y="340" on="1"/>
        <pt x="477" y="750" on="1"/>
      </contour>
      <contour>
        <pt x="67" y="140" on="0"/>
        <pt x="187" y="17" on="0"/>
        <pt x="356" y="17" on="0"/>
        <pt x="479" y="140" on="0"/>
        <pt x="479" y="308" on="0"/>
        <pt x="356" y="433" on="0"/>
        <pt x="188" y="433" on="0"/>
        <pt x="67" y="309" on="0"/>
      </contour>
      <contour>
        <pt x="590" y="633" on="1"/>
        <pt x="590" y="689" on="1"/>
        <pt x="559" y="689" on="0"/>
        <pt x="559" y="751" on="0"/>
        <pt x="628" y="751" on="0"/>
        <pt x="628" y="720" on="1"/>
        <pt x="628" y="713" on="0"/>
        <pt x="625" y="704" on="1"/>
        <pt x="594" y="633" on="1"/>
      </contour>
    </TTGlyph>
    <TTGlyph name="dcroat" xMin="35" yMin="-11" xMax="576" yMax="750">
      <contour>
        <pt x="509" y="750" on="1"/>
        <pt x="509" y="595" on="1"/>
        <pt x="576" y="595" on="1"/>
        <pt x="576" y="566" on="1"/>
        <pt x="509" y="566" on="1"/>
        <pt x="509" y="0" on="1"/>
        <pt x="477" y="0" on="1"/>
        <pt x="477" y="109" on="1"/>
        <pt x="447" y="54" on="0"/>
        <pt x="333" y="-11" on="0"/>
        <pt x="273" y="-11" on="1"/>
        <pt x="174" y="-11" on="0"/>
        <pt x="35" y="128" on="0"/>
        <pt x="35" y="322" on="0"/>
        <pt x="174" y="461" on="0"/>
        <pt x="273" y="461" on="1"/>
        <pt x="335" y="461" on="0"/>
        <pt x="450" y="395" on="0"/>
        <pt x="477" y="340" on="1"/>
        <pt x="477" y="566" on="1"/>
        <pt x="360" y="566" on="1"/>
        <pt x="360" y="595" on="1"/>
        <pt x="477" y="595" on="1"/>
        <pt x="477" y="750" on="1"/>
      </contour>
      <contour>
        <pt x="67" y="140" on="0"/>
        <pt x="187" y="17" on="0"/>
        <pt x="356" y="17" on="0"/>
        <pt x="479" y="140" on="0"/>
        <pt x="479" y="308" on="0"/>
        <pt x="356" y="433" on="0"/>
        <pt x="188" y="433" on="0"/>
        <pt x="67" y="309" on="0"/>
      </contour>
    </TTGlyph>
    <TTGlyph name="degree" xMin="20" yMin="600" xMax="171" yMax="750">
      <contour>
        <pt x="97" y="600" on="1"/>
        <pt x="93" y="600" on="1"/>
        <pt x="63" y="600" on="0"/>
        <pt x="20" y="645" on="0"/>
        <pt x="20" y="706" on="0"/>
        <pt x="64" y="750" on="0"/>
        <pt x="127" y="750" on="0"/>
        <pt x="171" y="706" on="0"/>
        <pt x="171" y="645" on="0"/>
        <pt x="127" y="600" on="0"/>
      </contour>
      <contour>
        <pt x="145" y="696" on="0"/>
        <pt x="116" y="726" on="0"/>
        <pt x="75" y="726" on="0"/>
        <pt x="45" y="695" on="0"/>
        <pt x="45" y="655" on="0"/>
        <pt x="75" y="624" on="0"/>
        <pt x="116" y="624" on="0"/>
        <pt x="145" y="654" on="0"/>
      </contour>
    </TTGlyph>
    <TTGlyph name="dieresis" xMin="15" yMin="558" xMax="177" yMax="612">
      <contour>
        <pt x="15" y="558" on="0"/>
        <pt x="15" y="612" on="0"/>
        <pt x="73" y="612" on="0"/>
        <pt x="73" y="558" on="0"/>
      </contour>
      <contour>
        <pt x="122" y="558" on="0"/>
        <pt x="122" y="612" on="0"/>
        <pt x="177" y="612" on="0"/>
        <pt x="177" y="558" on="0"/>
      </contour>
    </TTGlyph>
    <TTGlyph name="divide" xMin="75" yMin="255" xMax="386" yMax="557">
      <contour>
        <pt x="386" y="387" on="1"/>
        <pt x="75" y="387" on="1"/>
        <pt x="75" y="418" on="1"/>
        <pt x="386" y="418" on="1"/>
      </contour>
      <contour>
        <pt x="199" y="255" on="0"/>
        <pt x="199" y="317" on="0"/>
        <pt x="268" y="317" on="0"/>
        <pt x="268" y="255" on="0"/>
      </contour>
      <contour>
        <pt x="199" y="495" on="0"/>
        <pt x="199" y="557" on="0"/>
        <pt x="268" y="557" on="0"/>
        <pt x="268" y="495" on="0"/>
      </contour>
    </TTGlyph>
    <TTGlyph name="dollar" xMin="35" yMin="-73" xMax="472" yMax="815">
      <contour>
        <pt x="159" y="455" on="0"/>
        <pt x="73" y="533" on="0"/>
        <pt x="73" y="667" on="0"/>
        <pt x="171" y="752" on="0"/>
        <pt x="234" y="759" on="1"/>
        <pt x="234" y="815" on="1"/>
        <pt x="265" y="815" on="1"/>
        <pt x="265" y="759" on="1"/>
        <pt x="348" y="753" on="0"/>
        <pt x="399" y="692" on="1"/>
        <pt x="399" y="644" on="1"/>
        <pt x="382" y="676" on="0"/>
        <pt x="305" y="724" on="0"/>
        <pt x="265" y="730" on="1"/>
        <pt x="265" y="444" on="1"/>
        <pt x="304" y="427" on="0"/>
        <pt x="348" y="406" on="0"/>
        <pt x="412" y="364" on="0"/>
        <pt x="429" y="344" on="1"/>
        <pt x="472" y="292" on="0"/>
        <pt x="472" y="221" on="1"/>
        <pt x="472" y="131" on="0"/>
        <pt x="352" y="0" on="0"/>
        <pt x="265" y="-12" on="1"/>
        <pt x="265" y="-73" on="1"/>
        <pt x="234" y="-73" on="1"/>
        <pt x="234" y="-14" on="1"/>
        <pt x="172" y="-12" on="0"/>
        <pt x="65" y="44" on="0"/>
        <pt x="35" y="89" on="1"/>
        <pt x="35" y="141" on="1"/>
        <pt x="61" y="88" on="0"/>
        <pt x="171" y="17" on="0"/>
        <pt x="234" y="15" on="1"/>
        <pt x="234" y="422" on="1"/>
      </contour>
      <contour>
        <pt x="384" y="342" on="1"/>
        <pt x="339" y="378" on="0"/>
        <pt x="265" y="410" on="1"/>
        <pt x="265" y="17" on="1"/>
        <pt x="339" y="29" on="0"/>
        <pt x="441" y="142" on="0"/>
        <pt x="441" y="296" on="0"/>
      </contour>
      <contour>
        <pt x="183" y="721" on="0"/>
        <pt x="106" y="648" on="0"/>
        <pt x="106" y="546" on="0"/>
        <pt x="172" y="485" on="0"/>
        <pt x="234" y="456" on="1"/>
        <pt x="234" y="730" on="1"/>
      </contour>
    </TTGlyph>
    <TTGlyph name="dotaccent" xMin="15" yMin="559" xMax="73" yMax="613">
      <contour>
        <pt x="15" y="559" on="0"/>
        <pt x="15" y="613" on="0"/>
        <pt x="73" y="613" on="0"/>
        <pt x="73" y="559" on="0"/>
      </contour>
    </TTGlyph>
    <TTGlyph name="dotlessi" xMin="73" yMin="0" xMax="105" yMax="449">
      <contour>
        <pt x="105" y="449" on="1"/>
        <pt x="105" y="0" on="1"/>
        <pt x="73" y="0" on="1"/>
        <pt x="73" y="449" on="1"/>
      </contour>
    </TTGlyph>
    <TTGlyph name="e" xMin="40" yMin="-12" xMax="460" yMax="460">
      <contour>
        <pt x="285" y="-12" on="1"/>
        <pt x="276" y="-12" on="1"/>
        <pt x="181" y="-12" on="0"/>
        <pt x="40" y="131" on="0"/>
        <pt x="40" y="321" on="0"/>
        <pt x="180" y="460" on="0"/>
        <pt x="386" y="460" on="0"/>
        <pt x="460" y="378" on="1"/>
        <pt x="146" y="68" on="1"/>
        <pt x="211" y="16" on="0"/>
        <pt x="331" y="16" on="0"/>
        <pt x="426" y="71" on="0"/>
        <pt x="457" y="117" on="1"/>
        <pt x="457" y="66" on="1"/>
        <pt x="386" y="-12" on="0"/>
      </contour>
      <contour>
        <pt x="195" y="432" on="0"/>
        <pt x="72" y="309" on="0"/>
        <pt x="72" y="149" on="0"/>
        <pt x="125" y="89" on="1"/>
        <pt x="416" y="378" on="1"/>
        <pt x="354" y="432" on="0"/>
      </contour>
    </TTGlyph>
    <TTGlyph name="eacute" xMin="50" yMin="-12" xMax="470" yMax="644">
      <contour>
        <pt x="295" y="-12" on="1"/>
        <pt x="286" y="-12" on="1"/>
        <pt x="191" y="-12" on="0"/>
        <pt x="50" y="131" on="0"/>
        <pt x="50" y="321" on="0"/>
        <pt x="190" y="460" on="0"/>
        <pt x="396" y="460" on="0"/>
        <pt x="470" y="378" on="1"/>
        <pt x="156" y="68" on="1"/>
        <pt x="221" y="16" on="0"/>
        <pt x="341" y="16" on="0"/>
        <pt x="436" y="71" on="0"/>
        <pt x="467" y="117" on="1"/>
        <pt x="467" y="66" on="1"/>
        <pt x="396" y="-12" on="0"/>
      </contour>
      <contour>
        <pt x="205" y="432" on="0"/>
        <pt x="82" y="309" on="0"/>
        <pt x="82" y="149" on="0"/>
        <pt x="135" y="89" on="1"/>
        <pt x="426" y="378" on="1"/>
        <pt x="364" y="432" on="0"/>
      </contour>
      <contour>
        <pt x="307" y="644" on="1"/>
        <pt x="348" y="644" on="1"/>
        <pt x="209" y="529" on="1"/>
        <pt x="167" y="529" on="1"/>
      </contour>
    </TTGlyph>
    <TTGlyph name="ebreve" xMin="40" yMin="-12" xMax="460" yMax="644">
      <contour>
        <pt x="285" y="-12" on="1"/>
        <pt x="276" y="-12" on="1"/>
        <pt x="181" y="-12" on="0"/>
        <pt x="40" y="131" on="0"/>
        <pt x="40" y="321" on="0"/>
        <pt x="180" y="460" on="0"/>
        <pt x="386" y="460" on="0"/>
        <pt x="460" y="378" on="1"/>
        <pt x="146" y="68" on="1"/>
        <pt x="211" y="16" on="0"/>
        <pt x="331" y="16" on="0"/>
        <pt x="426" y="71" on="0"/>
        <pt x="457" y="117" on="1"/>
        <pt x="457" y="66" on="1"/>
        <pt x="386" y="-12" on="0"/>
      </contour>
      <contour>
        <pt x="195" y="432" on="0"/>
        <pt x="72" y="309" on="0"/>
        <pt x="72" y="149" on="0"/>
        <pt x="125" y="89" on="1"/>
        <pt x="416" y="378" on="1"/>
        <pt x="354" y="432" on="0"/>
      </contour>
      <contour>
        <pt x="153" y="608" on="0"/>
        <pt x="211" y="553" on="0"/>
        <pt x="282" y="553" on="0"/>
        <pt x="339" y="608" on="0"/>
        <pt x="343" y="644" on="1"/>
        <pt x="372" y="644" on="1"/>
        <pt x="370" y="597" on="0"/>
        <pt x="299" y="528" on="0"/>
        <pt x="251" y="528" on="1"/>
        <pt x="243" y="528" on="1"/>
        <pt x="195" y="528" on="0"/>
        <pt x="125" y="596" on="0"/>
        <pt x="123" y="644" on="1"/>
        <pt x="151" y="644" on="1"/>
      </contour>
    </TTGlyph>
    <TTGlyph name="ecaron" xMin="40" yMin="-12" xMax="460" yMax="644">
      <contour>
        <pt x="285" y="-12" on="1"/>
        <pt x="276" y="-12" on="1"/>
        <pt x="181" y="-12" on="0"/>
        <pt x="40" y="131" on="0"/>
        <pt x="40" y="321" on="0"/>
        <pt x="180" y="460" on="0"/>
        <pt x="386" y="460" on="0"/>
        <pt x="460" y="378" on="1"/>
        <pt x="146" y="68" on="1"/>
        <pt x="211" y="16" on="0"/>
        <pt x="331" y="16" on="0"/>
        <pt x="426" y="71" on="0"/>
        <pt x="457" y="117" on="1"/>
        <pt x="457" y="66" on="1"/>
        <pt x="386" y="-12" on="0"/>
      </contour>
      <contour>
        <pt x="195" y="432" on="0"/>
        <pt x="72" y="309" on="0"/>
        <pt x="72" y="149" on="0"/>
        <pt x="125" y="89" on="1"/>
        <pt x="416" y="378" on="1"/>
        <pt x="354" y="432" on="0"/>
      </contour>
      <contour>
        <pt x="395" y="644" on="1"/>
        <pt x="263" y="529" on="1"/>
        <pt x="233" y="529" on="1"/>
        <pt x="99" y="644" on="1"/>
        <pt x="141" y="644" on="1"/>
        <pt x="247" y="553" on="1"/>
        <pt x="354" y="644" on="1"/>
      </contour>
    </TTGlyph>
    <TTGlyph name="ecircumflex" xMin="50" yMin="-12" xMax="470" yMax="644">
      <contour>
        <pt x="295" y="-12" on="1"/>
        <pt x="286" y="-12" on="1"/>
        <pt x="191" y="-12" on="0"/>
        <pt x="50" y="131" on="0"/>
        <pt x="50" y="321" on="0"/>
        <pt x="190" y="460" on="0"/>
        <pt x="396" y="460" on="0"/>
        <pt x="470" y="378" on="1"/>
        <pt x="156" y="68" on="1"/>
        <pt x="221" y="16" on="0"/>
        <pt x="341" y="16" on="0"/>
        <pt x="436" y="71" on="0"/>
        <pt x="467" y="117" on="1"/>
        <pt x="467" y="66" on="1"/>
        <pt x="396" y="-12" on="0"/>
      </contour>
      <contour>
        <pt x="205" y="432" on="0"/>
        <pt x="82" y="309" on="0"/>
        <pt x="82" y="149" on="0"/>
        <pt x="135" y="89" on="1"/>
        <pt x="426" y="378" on="1"/>
        <pt x="364" y="432" on="0"/>
      </contour>
      <contour>
        <pt x="273" y="644" on="1"/>
        <pt x="405" y="529" on="1"/>
        <pt x="364" y="529" on="1"/>
        <pt x="257" y="620" on="1"/>
        <pt x="151" y="529" on="1"/>
        <pt x="109" y="529" on="1"/>
        <pt x="243" y="644" on="1"/>
      </contour>
    </TTGlyph>
    <TTGlyph name="edieresis" xMin="50" yMin="-12" xMax="470" yMax="612">
      <contour>
        <pt x="295" y="-12" on="1"/>
        <pt x="286" y="-12" on="1"/>
        <pt x="191" y="-12" on="0"/>
        <pt x="50" y="131" on="0"/>
        <pt x="50" y="321" on="0"/>
        <pt x="190" y="460" on="0"/>
        <pt x="396" y="460" on="0"/>
        <pt x="470" y="378" on="1"/>
        <pt x="156" y="68" on="1"/>
        <pt x="221" y="16" on="0"/>
        <pt x="341" y="16" on="0"/>
        <pt x="436" y="71" on="0"/>
        <pt x="467" y="117" on="1"/>
        <pt x="467" y="66" on="1"/>
        <pt x="396" y="-12" on="0"/>
      </contour>
      <contour>
        <pt x="205" y="432" on="0"/>
        <pt x="82" y="309" on="0"/>
        <pt x="82" y="149" on="0"/>
        <pt x="135" y="89" on="1"/>
        <pt x="426" y="378" on="1"/>
        <pt x="364" y="432" on="0"/>
      </contour>
      <contour>
        <pt x="176" y="558" on="0"/>
        <pt x="176" y="612" on="0"/>
        <pt x="234" y="612" on="0"/>
        <pt x="234" y="558" on="0"/>
      </contour>
      <contour>
        <pt x="283" y="558" on="0"/>
        <pt x="283" y="612" on="0"/>
        <pt x="338" y="612" on="0"/>
        <pt x="338" y="558" on="0"/>
      </contour>
    </TTGlyph>
    <TTGlyph name="edotaccent" xMin="40" yMin="-12" xMax="460" yMax="613">
      <contour>
        <pt x="285" y="-12" on="1"/>
        <pt x="276" y="-12" on="1"/>
        <pt x="181" y="-12" on="0"/>
        <pt x="40" y="131" on="0"/>
        <pt x="40" y="321" on="0"/>
        <pt x="180" y="460" on="0"/>
        <pt x="386" y="460" on="0"/>
        <pt x="460" y="378" on="1"/>
        <pt x="146" y="68" on="1"/>
        <pt x="211" y="16" on="0"/>
        <pt x="331" y="16" on="0"/>
        <pt x="426" y="71" on="0"/>
        <pt x="457" y="117" on="1"/>
        <pt x="457" y="66" on="1"/>
        <pt x="386" y="-12" on="0"/>
      </contour>
      <contour>
        <pt x="195" y="432" on="0"/>
        <pt x="72" y="309" on="0"/>
        <pt x="72" y="149" on="0"/>
        <pt x="125" y="89" on="1"/>
        <pt x="416" y="378" on="1"/>
        <pt x="354" y="432" on="0"/>
      </contour>
      <contour>
        <pt x="218" y="559" on="0"/>
        <pt x="218" y="613" on="0"/>
        <pt x="276" y="613" on="0"/>
        <pt x="276" y="559" on="0"/>
      </contour>
    </TTGlyph>
    <TTGlyph name="egrave" xMin="50" yMin="-12" xMax="470" yMax="644">
      <contour>
        <pt x="295" y="-12" on="1"/>
        <pt x="286" y="-12" on="1"/>
        <pt x="191" y="-12" on="0"/>
        <pt x="50" y="131" on="0"/>
        <pt x="50" y="321" on="0"/>
        <pt x="190" y="460" on="0"/>
        <pt x="396" y="460" on="0"/>
        <pt x="470" y="378" on="1"/>
        <pt x="156" y="68" on="1"/>
        <pt x="221" y="16" on="0"/>
        <pt x="341" y="16" on="0"/>
        <pt x="436" y="71" on="0"/>
        <pt x="467" y="117" on="1"/>
        <pt x="467" y="66" on="1"/>
        <pt x="396" y="-12" on="0"/>
      </contour>
      <contour>
        <pt x="205" y="432" on="0"/>
        <pt x="82" y="309" on="0"/>
        <pt x="82" y="149" on="0"/>
        <pt x="135" y="89" on="1"/>
        <pt x="426" y="378" on="1"/>
        <pt x="364" y="432" on="0"/>
      </contour>
      <contour>
        <pt x="167" y="644" on="1"/>
        <pt x="208" y="644" on="1"/>
        <pt x="348" y="529" on="1"/>
        <pt x="306" y="529" on="1"/>
      </contour>
    </TTGlyph>
    <TTGlyph name="eight" xMin="30" yMin="-14" xMax="539" yMax="760">
      <contour>
        <pt x="435" y="609" on="1"/>
        <pt x="435" y="568" on="0"/>
        <pt x="391" y="498" on="0"/>
        <pt x="353" y="478" on="1"/>
        <pt x="434" y="458" on="0"/>
        <pt x="539" y="320" on="0"/>
        <pt x="539" y="238" on="1"/>
        <pt x="539" y="134" on="0"/>
        <pt x="390" y="-14" on="0"/>
        <pt x="180" y="-14" on="0"/>
        <pt x="30" y="135" on="0"/>
        <pt x="30" y="238" on="1"/>
        <pt x="30" y="318" on="0"/>
        <pt x="131" y="452" on="0"/>
        <pt x="210" y="476" on="1"/>
        <pt x="173" y="494" on="0"/>
        <pt x="125" y="568" on="0"/>
        <pt x="125" y="609" on="1"/>
        <pt x="125" y="672" on="0"/>
        <pt x="215" y="760" on="0"/>
        <pt x="344" y="760" on="0"/>
        <pt x="435" y="672" on="0"/>
      </contour>
      <contour>
        <pt x="230" y="732" on="0"/>
        <pt x="157" y="659" on="0"/>
        <pt x="157" y="561" on="0"/>
        <pt x="230" y="488" on="0"/>
        <pt x="329" y="488" on="0"/>
        <pt x="403" y="561" on="0"/>
        <pt x="403" y="659" on="0"/>
        <pt x="329" y="732" on="0"/>
      </contour>
      <contour>
        <pt x="63" y="146" on="0"/>
        <pt x="194" y="15" on="0"/>
        <pt x="376" y="15" on="0"/>
        <pt x="506" y="146" on="0"/>
        <pt x="506" y="328" on="0"/>
        <pt x="376" y="460" on="0"/>
        <pt x="195" y="460" on="0"/>
        <pt x="63" y="327" on="0"/>
      </contour>
    </TTGlyph>
    <TTGlyph name="ellipsis" xMin="75" yMin="-7" xMax="431" yMax="55">
      <contour>
        <pt x="75" y="-7" on="0"/>
        <pt x="75" y="55" on="0"/>
        <pt x="144" y="55" on="0"/>
        <pt x="144" y="-7" on="0"/>
      </contour>
      <contour>
        <pt x="222" y="-7" on="0"/>
        <pt x="222" y="55" on="0"/>
        <pt x="291" y="55" on="0"/>
        <pt x="291" y="-7" on="0"/>
      </contour>
      <contour>
        <pt x="362" y="-7" on="0"/>
        <pt x="362" y="55" on="0"/>
        <pt x="431" y="55" on="0"/>
        <pt x="431" y="-7" on="0"/>
      </contour>
    </TTGlyph>
    <TTGlyph name="emacron" xMin="40" yMin="-12" xMax="460" yMax="594">
      <contour>
        <pt x="285" y="-12" on="1"/>
        <pt x="276" y="-12" on="1"/>
        <pt x="181" y="-12" on="0"/>
        <pt x="40" y="131" on="0"/>
        <pt x="40" y="321" on="0"/>
        <pt x="180" y="460" on="0"/>
        <pt x="386" y="460" on="0"/>
        <pt x="460" y="378" on="1"/>
        <pt x="146" y="68" on="1"/>
        <pt x="211" y="16" on="0"/>
        <pt x="331" y="16" on="0"/>
        <pt x="426" y="71" on="0"/>
        <pt x="457" y="117" on="1"/>
        <pt x="457" y="66" on="1"/>
        <pt x="386" y="-12" on="0"/>
      </contour>
      <contour>
        <pt x="195" y="432" on="0"/>
        <pt x="72" y="309" on="0"/>
        <pt x="72" y="149" on="0"/>
        <pt x="125" y="89" on="1"/>
        <pt x="416" y="378" on="1"/>
        <pt x="354" y="432" on="0"/>
      </contour>
      <contour>
        <pt x="346" y="566" on="1"/>
        <pt x="149" y="566" on="1"/>
        <pt x="149" y="594" on="1"/>
        <pt x="346" y="594" on="1"/>
      </contour>
    </TTGlyph>
    <TTGlyph name="emdash" xMin="15" yMin="282" xMax="479" yMax="313">
      <contour>
        <pt x="479" y="282" on="1"/>
        <pt x="15" y="282" on="1"/>
        <pt x="15" y="313" on="1"/>
        <pt x="479" y="313" on="1"/>
      </contour>
    </TTGlyph>
    <TTGlyph name="endash" xMin="50" yMin="282" xMax="358" yMax="313">
      <contour>
        <pt x="358" y="282" on="1"/>
        <pt x="50" y="282" on="1"/>
        <pt x="50" y="313" on="1"/>
        <pt x="358" y="313" on="1"/>
      </contour>
    </TTGlyph>
    <TTGlyph name="eogonek" xMin="40" yMin="-200" xMax="460" yMax="460">
      <contour>
        <pt x="290" y="-12" on="1"/>
        <pt x="276" y="-12" on="1"/>
        <pt x="181" y="-12" on="0"/>
        <pt x="40" y="131" on="0"/>
        <pt x="40" y="321" on="0"/>
        <pt x="180" y="460" on="0"/>
        <pt x="386" y="460" on="0"/>
        <pt x="460" y="378" on="1"/>
        <pt x="146" y="68" on="1"/>
        <pt x="211" y="16" on="0"/>
        <pt x="331" y="16" on="0"/>
        <pt x="426" y="71" on="0"/>
        <pt x="457" y="117" on="1"/>
        <pt x="457" y="66" on="1"/>
        <pt x="400" y="2" on="0"/>
        <pt x="320" y="-9" on="1"/>
        <pt x="240" y="-125" on="1"/>
        <pt x="240" y="-146" on="0"/>
        <pt x="267" y="-175" on="0"/>
        <pt x="290" y="-175" on="1"/>
        <pt x="328" y="-175" on="1"/>
        <pt x="328" y="-200" on="1"/>
        <pt x="288" y="-200" on="1"/>
        <pt x="255" y="-200" on="0"/>
        <pt x="213" y="-160" on="0"/>
        <pt x="213" y="-130" on="1"/>
        <pt x="213" y="-123" on="1"/>
      </contour>
      <contour>
        <pt x="195" y="432" on="0"/>
        <pt x="72" y="309" on="0"/>
        <pt x="72" y="149" on="0"/>
        <pt x="125" y="89" on="1"/>
        <pt x="416" y="378" on="1"/>
        <pt x="354" y="432" on="0"/>
      </contour>
    </TTGlyph>
    <TTGlyph name="equal" xMin="50" yMin="333" xMax="361" yMax="492">
      <contour>
        <pt x="361" y="461" on="1"/>
        <pt x="50" y="461" on="1"/>
        <pt x="50" y="492" on="1"/>
        <pt x="361" y="492" on="1"/>
      </contour>
      <contour>
        <pt x="361" y="333" on="1"/>
        <pt x="50" y="333" on="1"/>
        <pt x="50" y="362" on="1"/>
        <pt x="361" y="362" on="1"/>
      </contour>
    </TTGlyph>
    <TTGlyph name="eth" xMin="55" yMin="-13" xMax="531" yMax="685">
      <contour>
        <pt x="531" y="304" on="1"/>
        <pt x="531" y="228" on="1"/>
        <pt x="531" y="133" on="0"/>
        <pt x="394" y="-13" on="0"/>
        <pt x="301" y="-13" on="1"/>
        <pt x="286" y="-13" on="1"/>
        <pt x="190" y="-13" on="0"/>
        <pt x="55" y="129" on="0"/>
        <pt x="55" y="320" on="0"/>
        <pt x="194" y="459" on="0"/>
        <pt x="293" y="459" on="1"/>
        <pt x="357" y="459" on="0"/>
        <pt x="471" y="391" on="0"/>
        <pt x="500" y="331" on="1"/>
        <pt x="500" y="340" on="1"/>
        <pt x="500" y="497" on="0"/>
        <pt x="292" y="580" on="1"/>
        <pt x="107" y="504" on="1"/>
        <pt x="107" y="533" on="1"/>
        <pt x="254" y="595" on="1"/>
        <pt x="107" y="656" on="1"/>
        <pt x="107" y="685" on="1"/>
        <pt x="290" y="610" on="1"/>
        <pt x="460" y="682" on="1"/>
        <pt x="460" y="651" on="1"/>
        <pt x="327" y="595" on="1"/>
        <pt x="376" y="574" on="0"/>
        <pt x="439" y="535" on="0"/>
        <pt x="470" y="502" on="1"/>
        <pt x="531" y="437" on="0"/>
      </contour>
      <contour>
        <pt x="87" y="138" on="0"/>
        <pt x="207" y="15" on="0"/>
        <pt x="376" y="15" on="0"/>
        <pt x="499" y="138" on="0"/>
        <pt x="499" y="306" on="0"/>
        <pt x="376" y="431" on="0"/>
        <pt x="208" y="431" on="0"/>
        <pt x="87" y="307" on="0"/>
      </contour>
    </TTGlyph>
    <TTGlyph name="exclam" xMin="80" yMin="-7" xMax="146" yMax="750">
      <contour>
        <pt x="98" y="750" on="1"/>
        <pt x="131" y="750" on="1"/>
        <pt x="131" y="100" on="1"/>
        <pt x="98" y="100" on="1"/>
      </contour>
      <contour>
        <pt x="80" y="-7" on="0"/>
        <pt x="80" y="55" on="0"/>
        <pt x="146" y="55" on="0"/>
        <pt x="146" y="-7" on="0"/>
      </contour>
    </TTGlyph>
    <TTGlyph name="exclamdown" xMin="80" yMin="0" xMax="146" yMax="757">
      <contour>
        <pt x="131" y="0" on="1"/>
        <pt x="98" y="0" on="1"/>
        <pt x="98" y="650" on="1"/>
        <pt x="131" y="650" on="1"/>
      </contour>
      <contour>
        <pt x="80" y="695" on="0"/>
        <pt x="80" y="757" on="0"/>
        <pt x="146" y="757" on="0"/>
        <pt x="146" y="695" on="0"/>
      </contour>
    </TTGlyph>
    <TTGlyph name="f" xMin="60" yMin="0" xMax="232" yMax="632">
      <contour>
        <pt x="231" y="632" on="1"/>
        <pt x="231" y="604" on="1"/>
        <pt x="173" y="604" on="0"/>
        <pt x="92" y="524" on="0"/>
        <pt x="92" y="463" on="1"/>
        <pt x="92" y="200" on="1"/>
        <pt x="232" y="200" on="1"/>
        <pt x="232" y="172" on="1"/>
        <pt x="92" y="172" on="1"/>
        <pt x="92" y="0" on="1"/>
        <pt x="60" y="0" on="1"/>
        <pt x="60" y="463" on="1"/>
        <pt x="60" y="537" on="0"/>
        <pt x="160" y="632" on="0"/>
      </contour>
    </TTGlyph>
    <TTGlyph name="f_f" xMin="60" yMin="0" xMax="464" yMax="632">
      <contour>
        <pt x="463" y="632" on="1"/>
        <pt x="463" y="604" on="1"/>
        <pt x="405" y="604" on="0"/>
        <pt x="324" y="524" on="0"/>
        <pt x="324" y="463" on="1"/>
        <pt x="324" y="200" on="1"/>
        <pt x="464" y="200" on="1"/>
        <pt x="464" y="172" on="1"/>
        <pt x="324" y="172" on="1"/>
        <pt x="324" y="0" on="1"/>
        <pt x="292" y="0" on="1"/>
        <pt x="292" y="172" on="1"/>
        <pt x="92" y="172" on="1"/>
        <pt x="92" y="0" on="1"/>
        <pt x="60" y="0" on="1"/>
        <pt x="60" y="463" on="1"/>
        <pt x="60" y="537" on="0"/>
        <pt x="160" y="632" on="0"/>
        <pt x="231" y="632" on="1"/>
        <pt x="231" y="604" on="1"/>
        <pt x="173" y="604" on="0"/>
        <pt x="92" y="524" on="0"/>
        <pt x="92" y="463" on="1"/>
        <pt x="92" y="200" on="1"/>
        <pt x="292" y="200" on="1"/>
        <pt x="292" y="463" on="1"/>
        <pt x="292" y="537" on="0"/>
        <pt x="392" y="632" on="0"/>
      </contour>
    </TTGlyph>
    <TTGlyph name="f_f_i" xMin="60" yMin="0" xMax="582" yMax="647">
      <contour>
        <pt x="569" y="449" on="1"/>
        <pt x="569" y="0" on="1"/>
        <pt x="537" y="0" on="1"/>
        <pt x="537" y="172" on="1"/>
        <pt x="324" y="172" on="1"/>
        <pt x="324" y="0" on="1"/>
        <pt x="292" y="0" on="1"/>
        <pt x="292" y="172" on="1"/>
        <pt x="92" y="172" on="1"/>
        <pt x="92" y="0" on="1"/>
        <pt x="60" y="0" on="1"/>
        <pt x="60" y="463" on="1"/>
        <pt x="60" y="537" on="0"/>
        <pt x="160" y="632" on="0"/>
        <pt x="231" y="632" on="1"/>
        <pt x="231" y="604" on="1"/>
        <pt x="173" y="604" on="0"/>
        <pt x="92" y="524" on="0"/>
        <pt x="92" y="463" on="1"/>
        <pt x="92" y="200" on="1"/>
        <pt x="292" y="200" on="1"/>
        <pt x="292" y="463" on="1"/>
        <pt x="292" y="537" on="0"/>
        <pt x="392" y="632" on="0"/>
        <pt x="463" y="632" on="1"/>
        <pt x="463" y="604" on="1"/>
        <pt x="405" y="604" on="0"/>
        <pt x="324" y="524" on="0"/>
        <pt x="324" y="463" on="1"/>
        <pt x="324" y="200" on="1"/>
        <pt x="537" y="200" on="1"/>
        <pt x="537" y="449" on="1"/>
      </contour>
      <contour>
        <pt x="524" y="593" on="0"/>
        <pt x="524" y="647" on="0"/>
        <pt x="582" y="647" on="0"/>
        <pt x="582" y="593" on="0"/>
      </contour>
    </TTGlyph>
    <TTGlyph name="f_f_l" xMin="60" yMin="-9" xMax="712" yMax="632">
      <contour>
        <pt x="712" y="19" on="1"/>
        <pt x="712" y="-9" on="1"/>
        <pt x="641" y="-9" on="0"/>
        <pt x="541" y="86" on="0"/>
        <pt x="541" y="160" on="1"/>
        <pt x="541" y="172" on="1"/>
        <pt x="324" y="172" on="1"/>
        <pt x="324" y="0" on="1"/>
        <pt x="292" y="0" on="1"/>
        <pt x="292" y="172" on="1"/>
        <pt x="92" y="172" on="1"/>
        <pt x="92" y="0" on="1"/>
        <pt x="60" y="0" on="1"/>
        <pt x="60" y="463" on="1"/>
        <pt x="60" y="537" on="0"/>
        <pt x="160" y="632" on="0"/>
        <pt x="231" y="632" on="1"/>
        <pt x="231" y="604" on="1"/>
        <pt x="173" y="604" on="0"/>
        <pt x="92" y="524" on="0"/>
        <pt x="92" y="463" on="1"/>
        <pt x="92" y="200" on="1"/>
        <pt x="292" y="200" on="1"/>
        <pt x="292" y="463" on="1"/>
        <pt x="292" y="537" on="0"/>
        <pt x="392" y="632" on="0"/>
        <pt x="463" y="632" on="1"/>
        <pt x="463" y="604" on="1"/>
        <pt x="405" y="604" on="0"/>
        <pt x="324" y="524" on="0"/>
        <pt x="324" y="463" on="1"/>
        <pt x="324" y="200" on="1"/>
        <pt x="541" y="200" on="1"/>
        <pt x="541" y="631" on="1"/>
        <pt x="573" y="631" on="1"/>
        <pt x="573" y="160" on="1"/>
        <pt x="573" y="99" on="0"/>
        <pt x="654" y="19" on="0"/>
      </contour>
    </TTGlyph>
    <TTGlyph name="fi" xMin="60" yMin="0" xMax="350" yMax="644">
      <contour>
        <pt x="337" y="449" on="1"/>
        <pt x="337" y="0" on="1"/>
        <pt x="305" y="0" on="1"/>
        <pt x="305" y="172" on="1"/>
        <pt x="92" y="172" on="1"/>
        <pt x="92" y="0" on="1"/>
        <pt x="60" y="0" on="1"/>
        <pt x="60" y="463" on="1"/>
        <pt x="60" y="537" on="0"/>
        <pt x="160" y="632" on="0"/>
        <pt x="231" y="632" on="1"/>
        <pt x="231" y="604" on="1"/>
        <pt x="173" y="604" on="0"/>
        <pt x="92" y="524" on="0"/>
        <pt x="92" y="463" on="1"/>
        <pt x="92" y="200" on="1"/>
        <pt x="305" y="200" on="1"/>
        <pt x="305" y="449" on="1"/>
      </contour>
      <contour>
        <pt x="292" y="590" on="0"/>
        <pt x="292" y="644" on="0"/>
        <pt x="350" y="644" on="0"/>
        <pt x="350" y="590" on="0"/>
      </contour>
    </TTGlyph>
    <TTGlyph name="five" xMin="45" yMin="-10" xMax="604" yMax="750">
      <contour>
        <pt x="521" y="750" on="1"/>
        <pt x="521" y="721" on="1"/>
        <pt x="140" y="721" on="1"/>
        <pt x="113" y="464" on="1"/>
        <pt x="148" y="509" on="0"/>
        <pt x="258" y="557" on="0"/>
        <pt x="319" y="557" on="1"/>
        <pt x="438" y="557" on="0"/>
        <pt x="604" y="390" on="0"/>
        <pt x="604" y="155" on="0"/>
        <pt x="437" y="-10" on="0"/>
        <pt x="319" y="-10" on="1"/>
        <pt x="224" y="-10" on="0"/>
        <pt x="67" y="110" on="0"/>
        <pt x="45" y="202" on="1"/>
        <pt x="76" y="202" on="1"/>
        <pt x="100" y="122" on="0"/>
        <pt x="236" y="18" on="0"/>
        <pt x="319" y="18" on="1"/>
        <pt x="424" y="18" on="0"/>
        <pt x="572" y="167" on="0"/>
        <pt x="572" y="378" on="0"/>
        <pt x="424" y="529" on="0"/>
        <pt x="319" y="529" on="1"/>
        <pt x="257" y="529" on="0"/>
        <pt x="147" y="468" on="0"/>
        <pt x="111" y="416" on="1"/>
        <pt x="76" y="416" on="1"/>
        <pt x="111" y="750" on="1"/>
      </contour>
    </TTGlyph>
    <TTGlyph name="fl" xMin="60" yMin="-9" xMax="463" yMax="633">
      <contour>
        <pt x="463" y="19" on="1"/>
        <pt x="463" y="-9" on="1"/>
        <pt x="392" y="-9" on="0"/>
        <pt x="292" y="86" on="0"/>
        <pt x="292" y="160" on="1"/>
        <pt x="292" y="172" on="1"/>
        <pt x="92" y="172" on="1"/>
        <pt x="92" y="0" on="1"/>
        <pt x="60" y="0" on="1"/>
        <pt x="60" y="463" on="1"/>
        <pt x="60" y="537" on="0"/>
        <pt x="160" y="632" on="0"/>
        <pt x="231" y="632" on="1"/>
        <pt x="231" y="604" on="1"/>
        <pt x="173" y="604" on="0"/>
        <pt x="92" y="524" on="0"/>
        <pt x="92" y="463" on="1"/>
        <pt x="92" y="200" on="1"/>
        <pt x="292" y="200" on="1"/>
        <pt x="292" y="633" on="1"/>
        <pt x="324" y="633" on="1"/>
        <pt x="324" y="160" on="1"/>
        <pt x="324" y="99" on="0"/>
        <pt x="405" y="19" on="0"/>
      </contour>
    </TTGlyph>
    <TTGlyph name="florin" xMin="25" yMin="-198" xMax="337" yMax="749">
      <contour>
        <pt x="25" y="-198" on="1"/>
        <pt x="25" y="-170" on="1"/>
        <pt x="84" y="-170" on="0"/>
        <pt x="165" y="-90" on="0"/>
        <pt x="165" y="-29" on="1"/>
        <pt x="165" y="422" on="1"/>
        <pt x="66" y="422" on="1"/>
        <pt x="66" y="450" on="1"/>
        <pt x="165" y="450" on="1"/>
        <pt x="165" y="580" on="1"/>
        <pt x="165" y="654" on="0"/>
        <pt x="265" y="749" on="0"/>
        <pt x="337" y="749" on="1"/>
        <pt x="337" y="721" on="1"/>
        <pt x="278" y="721" on="0"/>
        <pt x="197" y="641" on="0"/>
        <pt x="197" y="580" on="1"/>
        <pt x="197" y="450" on="1"/>
        <pt x="305" y="450" on="1"/>
        <pt x="305" y="422" on="1"/>
        <pt x="198" y="422" on="1"/>
        <pt x="198" y="-29" on="1"/>
        <pt x="198" y="-103" on="0"/>
        <pt x="97" y="-198" on="0"/>
      </contour>
    </TTGlyph>
    <TTGlyph name="four" xMin="17" yMin="0" xMax="475" yMax="760">
      <contour>
        <pt x="355" y="0" on="1"/>
        <pt x="355" y="91" on="1"/>
        <pt x="17" y="91" on="1"/>
        <pt x="388" y="760" on="1"/>
        <pt x="388" y="124" on="1"/>
        <pt x="475" y="124" on="1"/>
        <pt x="475" y="91" on="1"/>
        <pt x="388" y="91" on="1"/>
        <pt x="388" y="0" on="1"/>
      </contour>
      <contour>
        <pt x="355" y="124" on="1"/>
        <pt x="355" y="645" on="1"/>
        <pt x="66" y="124" on="1"/>
      </contour>
    </TTGlyph>
    <TTGlyph name="franc" xMin="24" yMin="0" xMax="342" yMax="750">
      <contour>
        <pt x="302" y="169" on="1"/>
        <pt x="108" y="169" on="1"/>
        <pt x="108" y="0" on="1"/>
        <pt x="75" y="0" on="1"/>
        <pt x="75" y="169" on="1"/>
        <pt x="24" y="169" on="1"/>
        <pt x="24" y="197" on="1"/>
        <pt x="75" y="197" on="1"/>
        <pt x="75" y="750" on="1"/>
        <pt x="342" y="750" on="1"/>
        <pt x="342" y="721" on="1"/>
        <pt x="108" y="721" on="1"/>
        <pt x="108" y="315" on="1"/>
        <pt x="303" y="315" on="1"/>
        <pt x="303" y="286" on="1"/>
        <pt x="108" y="286" on="1"/>
        <pt x="108" y="197" on="1"/>
        <pt x="302" y="197" on="1"/>
      </contour>
    </TTGlyph>
    <TTGlyph name="g" xMin="35" yMin="-208" xMax="510" yMax="460">
      <contour>
        <pt x="478" y="450" on="1"/>
        <pt x="510" y="450" on="1"/>
        <pt x="510" y="42" on="1"/>
        <pt x="510" y="-74" on="0"/>
        <pt x="382" y="-208" on="0"/>
        <pt x="278" y="-208" on="1"/>
        <pt x="221" y="-208" on="0"/>
        <pt x="113" y="-156" on="0"/>
        <pt x="83" y="-114" on="1"/>
        <pt x="83" y="-68" on="1"/>
        <pt x="109" y="-116" on="0"/>
        <pt x="220" y="-180" on="0"/>
        <pt x="278" y="-180" on="1"/>
        <pt x="366" y="-180" on="0"/>
        <pt x="478" y="-61" on="0"/>
        <pt x="478" y="42" on="1"/>
        <pt x="478" y="109" on="1"/>
        <pt x="451" y="54" on="0"/>
        <pt x="335" y="-12" on="0"/>
        <pt x="273" y="-12" on="1"/>
        <pt x="175" y="-12" on="0"/>
        <pt x="35" y="127" on="0"/>
        <pt x="35" y="321" on="0"/>
        <pt x="175" y="460" on="0"/>
        <pt x="273" y="460" on="1"/>
        <pt x="338" y="460" on="0"/>
        <pt x="451" y="395" on="0"/>
        <pt x="478" y="338" on="1"/>
      </contour>
      <contour>
        <pt x="67" y="139" on="0"/>
        <pt x="190" y="16" on="0"/>
        <pt x="359" y="16" on="0"/>
        <pt x="479" y="139" on="0"/>
        <pt x="479" y="309" on="0"/>
        <pt x="359" y="432" on="0"/>
        <pt x="190" y="432" on="0"/>
        <pt x="67" y="309" on="0"/>
      </contour>
    </TTGlyph>
    <TTGlyph name="gbreve" xMin="35" yMin="-208" xMax="510" yMax="644">
      <contour>
        <pt x="478" y="450" on="1"/>
        <pt x="510" y="450" on="1"/>
        <pt x="510" y="42" on="1"/>
        <pt x="510" y="-74" on="0"/>
        <pt x="382" y="-208" on="0"/>
        <pt x="278" y="-208" on="1"/>
        <pt x="221" y="-208" on="0"/>
        <pt x="113" y="-156" on="0"/>
        <pt x="83" y="-114" on="1"/>
        <pt x="83" y="-68" on="1"/>
        <pt x="109" y="-116" on="0"/>
        <pt x="220" y="-180" on="0"/>
        <pt x="278" y="-180" on="1"/>
        <pt x="366" y="-180" on="0"/>
        <pt x="478" y="-61" on="0"/>
        <pt x="478" y="42" on="1"/>
        <pt x="478" y="109" on="1"/>
        <pt x="451" y="54" on="0"/>
        <pt x="335" y="-12" on="0"/>
        <pt x="273" y="-12" on="1"/>
        <pt x="175" y="-12" on="0"/>
        <pt x="35" y="127" on="0"/>
        <pt x="35" y="321" on="0"/>
        <pt x="175" y="460" on="0"/>
        <pt x="273" y="460" on="1"/>
        <pt x="338" y="460" on="0"/>
        <pt x="451" y="395" on="0"/>
        <pt x="478" y="338" on="1"/>
      </contour>
      <contour>
        <pt x="67" y="139" on="0"/>
        <pt x="190" y="16" on="0"/>
        <pt x="359" y="16" on="0"/>
        <pt x="479" y="139" on="0"/>
        <pt x="479" y="309" on="0"/>
        <pt x="359" y="432" on="0"/>
        <pt x="190" y="432" on="0"/>
        <pt x="67" y="309" on="0"/>
      </contour>
      <contour>
        <pt x="190" y="608" on="0"/>
        <pt x="248" y="553" on="0"/>
        <pt x="319" y="553" on="0"/>
        <pt x="376" y="608" on="0"/>
        <pt x="380" y="644" on="1"/>
        <pt x="409" y="644" on="1"/>
        <pt x="407" y="597" on="0"/>
        <pt x="336" y="528" on="0"/>
        <pt x="288" y="528" on="1"/>
        <pt x="280" y="528" on="1"/>
        <pt x="232" y="528" on="0"/>
        <pt x="162" y="596" on="0"/>
        <pt x="160" y="644" on="1"/>
        <pt x="188" y="644" on="1"/>
      </contour>
    </TTGlyph>
    <TTGlyph name="gcircumflex" xMin="35" yMin="-208" xMax="510" yMax="644">
      <contour>
        <pt x="478" y="450" on="1"/>
        <pt x="510" y="450" on="1"/>
        <pt x="510" y="42" on="1"/>
        <pt x="510" y="-74" on="0"/>
        <pt x="382" y="-208" on="0"/>
        <pt x="278" y="-208" on="1"/>
        <pt x="221" y="-208" on="0"/>
        <pt x="113" y="-156" on="0"/>
        <pt x="83" y="-114" on="1"/>
        <pt x="83" y="-68" on="1"/>
        <pt x="109" y="-116" on="0"/>
        <pt x="220" y="-180" on="0"/>
        <pt x="278" y="-180" on="1"/>
        <pt x="366" y="-180" on="0"/>
        <pt x="478" y="-61" on="0"/>
        <pt x="478" y="42" on="1"/>
        <pt x="478" y="109" on="1"/>
        <pt x="451" y="54" on="0"/>
        <pt x="335" y="-12" on="0"/>
        <pt x="273" y="-12" on="1"/>
        <pt x="175" y="-12" on="0"/>
        <pt x="35" y="127" on="0"/>
        <pt x="35" y="321" on="0"/>
        <pt x="175" y="460" on="0"/>
        <pt x="273" y="460" on="1"/>
        <pt x="338" y="460" on="0"/>
        <pt x="451" y="395" on="0"/>
        <pt x="478" y="338" on="1"/>
      </contour>
      <contour>
        <pt x="67" y="139" on="0"/>
        <pt x="190" y="16" on="0"/>
        <pt x="359" y="16" on="0"/>
        <pt x="479" y="139" on="0"/>
        <pt x="479" y="309" on="0"/>
        <pt x="359" y="432" on="0"/>
        <pt x="190" y="432" on="0"/>
        <pt x="67" y="309" on="0"/>
      </contour>
      <contour>
        <pt x="301" y="644" on="1"/>
        <pt x="433" y="529" on="1"/>
        <pt x="392" y="529" on="1"/>
        <pt x="285" y="620" on="1"/>
        <pt x="179" y="529" on="1"/>
        <pt x="137" y="529" on="1"/>
        <pt x="271" y="644" on="1"/>
      </contour>
    </TTGlyph>
    <TTGlyph name="gdotaccent" xMin="35" yMin="-208" xMax="510" yMax="613">
      <contour>
        <pt x="478" y="450" on="1"/>
        <pt x="510" y="450" on="1"/>
        <pt x="510" y="42" on="1"/>
        <pt x="510" y="-74" on="0"/>
        <pt x="382" y="-208" on="0"/>
        <pt x="278" y="-208" on="1"/>
        <pt x="221" y="-208" on="0"/>
        <pt x="113" y="-156" on="0"/>
        <pt x="83" y="-114" on="1"/>
        <pt x="83" y="-68" on="1"/>
        <pt x="109" y="-116" on="0"/>
        <pt x="220" y="-180" on="0"/>
        <pt x="278" y="-180" on="1"/>
        <pt x="366" y="-180" on="0"/>
        <pt x="478" y="-61" on="0"/>
        <pt x="478" y="42" on="1"/>
        <pt x="478" y="109" on="1"/>
        <pt x="451" y="54" on="0"/>
        <pt x="335" y="-12" on="0"/>
        <pt x="273" y="-12" on="1"/>
        <pt x="175" y="-12" on="0"/>
        <pt x="35" y="127" on="0"/>
        <pt x="35" y="321" on="0"/>
        <pt x="175" y="460" on="0"/>
        <pt x="273" y="460" on="1"/>
        <pt x="338" y="460" on="0"/>
        <pt x="451" y="395" on="0"/>
        <pt x="478" y="338" on="1"/>
      </contour>
      <contour>
        <pt x="67" y="139" on="0"/>
        <pt x="190" y="16" on="0"/>
        <pt x="359" y="16" on="0"/>
        <pt x="479" y="139" on="0"/>
        <pt x="479" y="309" on="0"/>
        <pt x="359" y="432" on="0"/>
        <pt x="190" y="432" on="0"/>
        <pt x="67" y="309" on="0"/>
      </contour>
      <contour>
        <pt x="256" y="559" on="0"/>
        <pt x="256" y="613" on="0"/>
        <pt x="314" y="613" on="0"/>
        <pt x="314" y="559" on="0"/>
      </contour>
    </TTGlyph>
</ttFont>
